0
SECTION
2
HEADER
9
$INSUNITS
70
4
9
$ACADVER
1
AC1014
9
$HANDSEED
5
FFFF
0
ENDSEC
0
SECTION
2
TABLES
0
TABLE
2
VPORT
5
8
100
AcDbSymbolTable
0
ENDTAB
0
TABLE
2
LTYPE
5
5
100
AcDbSymbolTable
0
LTYPE
5
14
100
AcDbSymbolTableRecord
100
AcDbLinetypeTableRecord
2
BYBLOCK
70
0
0
LTYPE
5
15
100
AcDbSymbolTableRecord
100
AcDbLinetypeTableRecord
2
BYLAYER
70
0
0
ENDTAB
0
TABLE
2
LAYER
5
2
100
AcDbSymbolTable
70
2
0
LAYER
5
50
100
AcDbSymbolTableRecord
100
AcDbLayerTableRecord
2
0
70
0
6
CONTINUOUS
0
ENDTAB
0
TABLE
2
STYLE
5
3
100
AcDbSymbolTable
70
1
0
STYLE
5
11
100
AcDbSymbolTableRecord
100
AcDbTextStyleTableRecord
2
STANDARD
70
0
0
ENDTAB
0
TABLE
2
VIEW
5
6
100
AcDbSymbolTable
70
0
0
ENDTAB
0
TABLE
2
UCS
5
7
100
AcDbSymbolTable
70
0
0
ENDTAB
0
TABLE
2
APPID
5
9
100
AcDbSymbolTable
70
2
0
APPID
5
12
100
AcDbSymbolTableRecord
100
AcDbRegAppTableRecord
2
ACAD
70
0
0
ENDTAB
0
TABLE
2
DIMSTYLE
5
A
100
AcDbSymbolTable
70
1
0
ENDTAB
0
TABLE
2
BLOCK_RECORD
5
1
100
AcDbSymbolTable
70
1
0
BLOCK_RECORD
5
1F
100
AcDbSymbolTableRecord
100
AcDbBlockTableRecord
2
*MODEL_SPACE
0
BLOCK_RECORD
5
1B
100
AcDbSymbolTableRecord
100
AcDbBlockTableRecord
2
*PAPER_SPACE
0
ENDTAB
0
ENDSEC
0
SECTION
2
BLOCKS
0
BLOCK
5
20
100
AcDbEntity
100
AcDbBlockBegin
2
*MODEL_SPACE
0
ENDBLK
5
21
100
AcDbEntity
100
AcDbBlockEnd
0
BLOCK
5
1C
100
AcDbEntity
100
AcDbBlockBegin
2
*PAPER_SPACE
0
ENDBLK
5
1D
100
AcDbEntity
100
AcDbBlockEnd
0
ENDSEC
0
SECTION
2
ENTITIES
0
LWPOLYLINE
5
100
100
AcDbEntity
8
0
100
AcDbPolyline
90
78
70
1
43
0.0
10
152.76249999999999
20
-96.124999999999957
42
0.41421356237309503
10
154.76249999999996
20
-94.125
10
154.76250000000002
20
-93.825001000006296
42
-0.99999999999999989
10
159.5625
20
-93.825001000006296
10
159.5625
20
-94.125
42
0.41421356237309503
10
161.5625
20
-96.124999999999986
10
256.583042630656
20
-96.124999999999901
42
-0.37625066044341932
10
258.56581994939143
20
-97.863095238095156
42
0.87659628828303726
10
262.92793005060855
20
-97.863095238095156
42
-0.3762506604434202
10
264.91070736934398
20
-96.124999999999915
10
280.16587448000001
20
-96.125
42
0.41421356237309764
10
282.16587447999996
20
-94.125
10
282.16587447999996
20
-93.825000081903895
42
-0.99999999999999989
10
286.96587448000002
20
-93.825000081903895
10
286.96587448000002
20
-94.125
42
0.41421356237309764
10
288.96587448000002
20
-96.125
10
307.4375
20
-96.125
42
0.41421356237309503
10
309.4375
20
-94.125
10
309.4375
20
-1.1250000000000071
42
0.4142135623730952
10
307.4375
20
0.87499999999998701
10
294.91249999572699
20
0.87500000000000411
42
0.41421356237309687
10
292.91249999572705
20
-1.1250000000000007
10
292.91249999572705
20
-1.4250078729231856
42
-0.99999999999999989
10
288.11249999572703
20
-1.4250078729231603
10
288.11249999572698
20
-1.125
42
0.41421356237309681
10
286.11249999572698
20
0.87500000000000466
10
275.62633236934403
20
0.87499999999998912
42
-0.3762506604434116
10
273.6435550506086
20
2.6130952380951937
42
0.87659628828302671
10
269.28144494939141
20
2.6130952380951862
42
-0.37625066044341027
10
267.29866763065604
20
0.87500000000000022
10
218.712499995727
20
0.875000000000004
42
0.41421356237309503
10
216.712499995727
20
-1.125
10
216.71249999572697
20
-1.4250078729231856
42
-0.99999999999999989
10
211.91249999572702
20
-1.4250078729231603
10
211.91249999572702
20
-1.125
42
0.41421356237309503
10
209.91249999572702
20
0.87499999999999012
10
170.85133236934399
20
0.8749999999999889
42
-0.37625066044341104
10
168.86855505060856
20
2.6130952380951893
42
0.87659628828302627
10
164.50644494939144
20
2.6130952380951857
42
-0.37625066044341021
10
162.52366763065601
20
0.87500000000000022
10
123.4625001622
20
0.875000000000002
42
0.41421356237309548
10
121.46250016220002
20
-1.1250000000000007
10
121.4625001622
20
-1.4250068114309775
42
-0.99999999999999989
10
116.66250016219999
20
-1.4250068114310002
10
116.66250016220002
20
-1.125
42
0.41421356237309548
10
114.66250016220002
20
0.87499999999999578
10
66.076332369344399
20
0.87500000000000355
42
-0.37625066044341759
10
64.093555050608984
20
2.6130952380952372
42
0.87659628828302827
10
59.731444949391019
20
2.6130952380952377
42
-0.37625066044341765
10
57.748667630655603
20
0.87500000000000022
10
47.2624999957266
20
0.87499999999999301
42
0.41421356237309437
10
45.2624999957266
20
-1.1250000000000007
10
45.2624999957266
20
-1.4250070588476653
42
-0.99999999999999989
10
40.462499995726596
20
-1.4250070588476704
10
40.462499995726603
20
-1.125
42
0.41421356237309481
10
38.462499995726603
20
0.87500000000000044
10
13.688832369344404
20
0.87499999999999911
42
-0.37625066044341804
10
11.706055050608983
20
2.6130952380952377
42
0.87659628828302727
10
7.3439449493910391
20
2.6130952380952404
42
-0.37625066044341821
10
5.36116763065563
20
0.87499999999998967
10
2.125
20
0.87499999999999689
42
0.41421356237309515
10
0.12500000000000039
20
-1.1250000000000107
10
0.12500000000001094
20
-94.125
42
0.41421356237309548
10
2.1250000000000009
20
-96.124999999999986
10
5.36116763065563
20
-96.124999999999986
42
-0.37625066044341271
10
7.3439449493910347
20
-97.863095238095212
42
0.87659628828303826
10
11.706055050608995
20
-97.863095238095212
42
-0.3762506604434146
10
13.688832369344402
20
-96.125
10
44.422124479999908
20
-96.125
42
0.41421356237309503
10
46.422124479999894
20
-94.125
10
46.422124479999894
20
-93.825000081903923
42
-0.99999999999999989
10
51.222124479999906
20
-93.825000081903895
10
51.222124479999998
20
-94.125
42
0.41421356237309503
10
53.222124480000005
20
-96.125
10
68.464292630655606
20
-96.124999999999915
42
-0.37625066044342687
10
70.447069949391036
20
-97.863095238095212
42
0.87659628828303882
10
74.809180050608987
20
-97.863095238095212
42
-0.37625066044342698
10
76.791957369344402
20
-96.124999999999915
0
LWPOLYLINE
5
101
100
AcDbEntity
8
0
100
AcDbPolyline
90
8
70
1
43
0.0
10
159.9375
20
-2.5249999999999999
10
173.1875
20
-2.5250000000000035
42
-0.41421356237309503
10
173.68750000000003
20
-3.0250000000000106
10
173.6875
20
-16.024999999999999
42
-0.41421356237302348
10
173.1875
20
-16.525000000000002
10
159.9375
20
-16.525000000000006
42
-0.41421356237309503
10
159.4375
20
-16.024999999999999
10
159.4375
20
-3.0249999999999999
42
-0.41421356237309503
0
LWPOLYLINE
5
102
100
AcDbEntity
8
0
100
AcDbPolyline
90
8
70
1
43
0.0
10
135.08750000000001
20
-16.524999999999999
10
122.08750000000002
20
-16.525000000000009
42
-0.41421356237309631
10
121.58750000000001
20
-16.024999999999999
10
121.58749999999999
20
-3.0249999999999999
42
-0.41421356237310542
10
122.08750000000002
20
-2.5249999999999999
10
135.08750000000001
20
-2.5249999999999941
42
-0.41421356237307355
10
135.58750000000001
20
-3.0249999999999999
10
135.58750000000001
20
-16.024999999999999
42
-0.41421356237307161
0
LWPOLYLINE
5
103
100
AcDbEntity
8
0
100
AcDbPolyline
90
8
70
1
43
0.0
10
116.53750000000001
20
-3.0249999999999999
42
0.41421356237307355
10
116.03749999999999
20
-2.5249999999999941
10
103.03750000000001
20
-2.5249999999999999
42
0.41421356237310542
10
102.53749999999999
20
-3.0249999999999999
10
102.53749999999999
20
-16.024999999999999
42
0.41421356237309631
10
103.03750000000001
20
-16.524999999999999
10
116.03749999999999
20
-16.525000000000002
42
0.41421356237307161
10
116.53750000000001
20
-16.024999999999999
0
CIRCLE
5
104
100
AcDbEntity
8
0
100
AcDbCircle
10
61.912500000000001
20
2.3250000000000002
30
0
40
1.19999999999999
210
0
220
0
230
1
0
LWPOLYLINE
5
105
100
AcDbEntity
8
0
100
AcDbPolyline
90
8
70
1
43
0.0
10
97.487500000000011
20
-3.0249999999999999
42
0.41421356237309437
10
96.987500000000011
20
-2.5249999999999941
10
83.987499999999997
20
-2.5249999999999999
42
0.41421356237310542
10
83.487500000000011
20
-3.0249999999999999
10
83.487499999999983
20
-16.024999999999999
42
0.41421356237309631
10
83.987499999999997
20
-16.524999999999999
10
96.987500000000011
20
-16.525000000000002
42
0.41421356237309243
10
97.487500000000011
20
-16.024999999999999
0
CIRCLE
5
106
100
AcDbEntity
8
0
100
AcDbCircle
10
166.6875
20
2.3250000000000002
30
0
40
1.2000000000000099
210
-0
220
0
230
1
0
LWPOLYLINE
5
107
100
AcDbEntity
8
0
100
AcDbPolyline
90
8
70
1
43
0.0
10
274.48750000000007
20
-2.5249999999999999
10
287.48750000000001
20
-2.5249999999999817
42
-0.41421356237310153
10
287.98750000000001
20
-3.0249999999999999
10
287.98750000000001
20
-16.024999999999999
42
-0.41421356237309503
10
287.48750000000001
20
-16.525000000000002
10
274.48750000000007
20
-16.525000000000006
42
-0.41421356237309503
10
273.98750000000001
20
-16.024999999999999
10
273.98750000000001
20
-3.0249999999999999
42
-0.41421356237309503
0
LWPOLYLINE
5
108
100
AcDbEntity
8
0
100
AcDbPolyline
90
8
70
1
43
0.0
10
293.03750000000002
20
-16.024999999999999
10
293.03750000000002
20
-3.0249999999999999
42
-0.41421356237309503
10
293.53750000000002
20
-2.5249999999999999
10
306.53750000000002
20
-2.5249999999999928
42
-0.41421356237309503
10
307.03750000000002
20
-3.0249999999999999
10
307.03750000000002
20
-16.024999999999999
42
-0.41421356237309503
10
306.53750000000002
20
-16.525000000000002
10
293.53750000000002
20
-16.525000000000006
42
-0.41421356237309503
0
CIRCLE
5
109
100
AcDbEntity
8
0
100
AcDbCircle
10
9.5250000000000021
20
-97.575000000000003
30
0
40
1.19999999999999
210
0
220
0
230
1
0
CIRCLE
5
110
100
AcDbEntity
8
0
100
AcDbCircle
10
260.74687499999999
20
-97.575000000000003
30
0
40
1.19999999999997
210
0
220
0
230
1
0
LWPOLYLINE
5
111
100
AcDbEntity
8
0
100
AcDbPolyline
90
8
70
1
43
0.0
10
302.27499999999998
20
-22.074999999999999
10
302.27499999999998
20
-35.075000000000003
42
-0.41421356237309503
10
301.77499999999998
20
-35.57500000000001
10
288.77499999999998
20
-35.575000000000017
42
-0.41421356237310025
10
288.27499999999998
20
-35.075000000000003
10
288.27499999999998
20
-22.074999999999999
42
-0.41421356237305079
10
288.77499999999998
20
-21.575000000000003
10
301.77499999999998
20
-21.574999999999996
42
-0.41421356237313406
0
LWPOLYLINE
5
112
100
AcDbEntity
8
0
100
AcDbPolyline
90
8
70
1
43
0.0
10
29.80575
20
-75.174999999999997
10
29.805750000000003
20
-61.174999999999997
42
-0.41421356237309503
10
30.305750000000003
20
-60.674999999999997
10
36.305750000000003
20
-60.674999999999955
42
-0.41421356237309503
10
36.805750000000046
20
-61.174999999999997
10
36.805750000000003
20
-75.174999999999997
42
-0.41421356237309764
10
36.305750000000003
20
-75.674999999999997
10
30.305750000000003
20
-75.674999999999997
42
-0.41421356237309764
0
LWPOLYLINE
5
113
100
AcDbEntity
8
0
100
AcDbPolyline
90
8
70
1
43
0.0
10
29.21875
20
-40.625
10
42.21875
20
-40.625000000000028
42
-0.41421356237309503
10
42.718749999999972
20
-41.125
10
42.71875
20
-54.125000000000007
42
-0.41421356237309503
10
42.21875
20
-54.625
10
29.21875
20
-54.625
42
-0.41421356237309503
10
28.71875
20
-54.125000000000007
10
28.71875
20
-41.125
42
-0.41421356237309503
0
LWPOLYLINE
5
114
100
AcDbEntity
8
0
100
AcDbPolyline
90
8
70
1
43
0.0
10
306.53750000000002
20
-73.674999999999997
10
293.53750000000002
20
-73.675000000000011
42
-0.41421356237309503
10
293.03750000000002
20
-73.174999999999997
10
293.03750000000008
20
-60.174999999999997
42
-0.4142135623730222
10
293.53750000000002
20
-59.675000000000004
10
306.53750000000002
20
-59.675000000000011
42
-0.41421356237312623
10
307.03750000000002
20
-60.174999999999997
10
307.03750000000002
20
-73.174999999999997
42
-0.4142135623730222
0
LWPOLYLINE
5
115
100
AcDbEntity
8
0
100
AcDbPolyline
90
8
70
1
43
0.0
10
106.53750000000001
20
-76.724999999999994
10
112.53749999999999
20
-76.72499999999998
42
-0.41421356237310025
10
113.03750000000001
20
-77.224999999999994
10
113.03750000000001
20
-91.225000000000009
42
-0.41421356237307422
10
112.53749999999999
20
-91.725000000000009
10
106.53750000000001
20
-91.72499999999998
42
-0.41421356237309503
10
106.03750000000004
20
-91.225000000000009
10
106.03749999999999
20
-77.224999999999994
42
-0.41421356237309503
0
LWPOLYLINE
5
116
100
AcDbEntity
8
0
100
AcDbPolyline
90
8
70
1
43
0.0
10
31.600000000000001
20
-78.724999999999994
10
44.600000000000001
20
-78.724999999999994
42
-0.41421356237309503
10
45.099999999999994
20
-79.224999999999994
10
45.100000000000009
20
-92.224999999999994
42
-0.41421356237309503
10
44.600000000000001
20
-92.725000000000009
10
31.600000000000001
20
-92.725000000000051
42
-0.41421356237309503
10
31.099999999999959
20
-92.224999999999994
10
31.100000000000001
20
-79.224999999999994
42
-0.41421356237309503
0
LWPOLYLINE
5
117
100
AcDbEntity
8
0
100
AcDbPolyline
90
8
70
1
43
0.0
10
160.1875
20
-78.724999999999994
10
173.1875
20
-78.725000000000009
42
-0.41421356237312623
10
173.68750000000003
20
-79.224999999999994
10
173.6875
20
-92.224999999999994
42
-0.41421356237310542
10
173.1875
20
-92.725000000000009
10
160.1875
20
-92.725000000000051
42
-0.41421356237309503
10
159.68749999999997
20
-92.224999999999994
10
159.6875
20
-79.224999999999994
42
-0.41421356237309503
0
LWPOLYLINE
5
118
100
AcDbEntity
8
0
100
AcDbPolyline
90
8
70
1
43
0.0
10
220.33750000000001
20
-91.225000000000009
10
220.33750000000003
20
-77.224999999999994
42
-0.4142135623730222
10
220.83750000000003
20
-76.725000000000009
10
226.83750000000003
20
-76.725000000000023
42
-0.41421356237310025
10
227.33750000000001
20
-77.224999999999994
10
227.33750000000003
20
-91.225000000000009
42
-0.41421356237309503
10
226.83750000000003
20
-91.725000000000009
10
220.83750000000003
20
-91.725000000000009
42
-0.41421356237309503
0
LWPOLYLINE
5
119
100
AcDbEntity
8
0
100
AcDbPolyline
90
8
70
1
43
0.0
10
79.224999999999994
20
-78.724999999999994
10
92.224999999999994
20
-78.72499999999998
42
-0.41421356237310025
10
92.725000000000009
20
-79.224999999999994
10
92.725000000000009
20
-92.224999999999994
42
-0.41421356237309503
10
92.224999999999994
20
-92.725000000000009
10
79.224999999999994
20
-92.724999999999966
42
-0.41421356237309503
10
78.725000000000023
20
-92.224999999999994
10
78.724999999999994
20
-79.224999999999994
42
-0.41421356237309503
0
LWPOLYLINE
5
120
100
AcDbEntity
8
0
100
AcDbPolyline
90
8
70
1
43
0.0
10
301.77499999999998
20
-92.724999999999994
10
288.77499999999998
20
-92.725000000000023
42
-0.41421356237310542
10
288.27499999999998
20
-92.224999999999994
10
288.27499999999998
20
-79.224999999999994
42
-0.4142135623730222
10
288.77499999999998
20
-78.724999999999994
10
301.77499999999998
20
-78.725000000000023
42
-0.41421356237309503
10
302.27499999999998
20
-79.224999999999994
10
302.27499999999998
20
-92.224999999999994
42
-0.41421356237309503
0
LWPOLYLINE
5
121
100
AcDbEntity
8
0
100
AcDbPolyline
90
8
70
1
43
0.0
10
68.412499999999994
20
-92.724999999999994
10
55.412500000000108
20
-92.725000000000051
42
-0.41421356237309503
10
54.912500000000065
20
-92.224999999999994
10
54.912500000000108
20
-79.224999999999994
42
-0.41421356237309503
10
55.412500000000108
20
-78.724999999999994
10
68.412499999999994
20
-78.724999999999994
42
-0.41421356237309503
10
68.912499999999994
20
-79.224999999999994
10
68.91249999999998
20
-92.224999999999994
42
-0.41421356237309503
0
LWPOLYLINE
5
122
100
AcDbEntity
8
0
100
AcDbPolyline
90
8
70
1
43
0.0
10
264.96249999999998
20
-78.724999999999994
10
277.96249999999998
20
-78.724999999999994
42
-0.41421356237309503
10
278.46250000000003
20
-79.224999999999994
10
278.46250000000003
20
-92.224999999999994
42
-0.41421356237309503
10
277.96249999999998
20
-92.725000000000009
10
264.96249999999998
20
-92.725000000000009
42
-0.41421356237309503
10
264.46249999999998
20
-92.224999999999994
10
264.46249999999998
20
-79.224999999999994
42
-0.41421356237309503
0
LWPOLYLINE
5
123
100
AcDbEntity
8
0
100
AcDbPolyline
90
8
70
1
43
0.0
10
26.837499999999999
20
-2.5249999999999999
10
39.837499999999999
20
-2.5249999999999955
42
-0.4142135623731012
10
40.337500000000006
20
-3.0249999999999999
10
40.337500000000006
20
-16.024999999999999
42
-0.41421356237307944
10
39.837499999999999
20
-16.525000000000002
10
26.837499999999999
20
-16.525000000000002
42
-0.41421356237309631
10
26.337499999999999
20
-16.024999999999999
10
26.337499999999999
20
-3.0249999999999999
42
-0.41421356237309537
0
LWPOLYLINE
5
124
100
AcDbEntity
8
0
100
AcDbPolyline
90
8
70
1
43
0.0
10
45.887500000000003
20
-2.5249999999999999
10
58.88750000000001
20
-2.525000000000003
42
-0.41421356237309437
10
59.387500000000003
20
-3.0249999999999999
10
59.387500000000003
20
-16.024999999999999
42
-0.4142135623730937
10
58.88750000000001
20
-16.525000000000002
10
45.887500000000003
20
-16.524999999999999
42
-0.41421356237309503
10
45.387500000000003
20
-16.024999999999999
10
45.387500000000003
20
-3.0249999999999999
42
-0.41421356237309404
0
LWPOLYLINE
5
125
100
AcDbEntity
8
0
100
AcDbPolyline
90
8
70
1
43
0.0
10
64.9375
20
-2.5249999999999999
10
77.9375
20
-2.525000000000003
42
-0.41421356237309437
10
78.4375
20
-3.0249999999999999
10
78.4375
20
-16.024999999999999
42
-0.4142135623730937
10
77.9375
20
-16.525000000000002
10
64.9375
20
-16.525000000000002
42
-0.41421356237309764
10
64.4375
20
-16.024999999999999
10
64.4375
20
-3.0249999999999999
42
-0.41421356237309664
0
LWPOLYLINE
5
126
100
AcDbEntity
8
0
100
AcDbPolyline
90
8
70
1
43
0.0
10
112.56250000000001
20
-21.575000000000003
10
125.5625
20
-21.574999999999992
42
-0.41421356237307422
10
126.06250000000001
20
-22.074999999999999
10
126.0625
20
-35.075000000000003
42
-0.41421356237310025
10
125.5625
20
-35.575000000000003
10
112.56250000000001
20
-35.575000000000003
42
-0.41421356237309243
10
112.0625
20
-35.075000000000003
10
112.0625
20
-22.074999999999999
42
-0.41421356237311063
0
LWPOLYLINE
5
127
100
AcDbEntity
8
0
100
AcDbPolyline
90
8
70
1
43
0.0
10
55.412500000000009
20
-21.575000000000003
10
68.412499999999994
20
-21.575000000000003
42
-0.41421356237309503
10
68.912499999999994
20
-22.074999999999999
10
68.912499999999994
20
-35.075000000000003
42
-0.41421356237309503
10
68.412499999999994
20
-35.575000000000003
10
55.412500000000009
20
-35.575000000000003
42
-0.41421356237309503
10
54.912500000000009
20
-35.075000000000003
10
54.912500000000009
20
-22.074999999999999
42
-0.41421356237309503
0
LWPOLYLINE
5
128
100
AcDbEntity
8
0
100
AcDbPolyline
90
8
70
1
43
0.0
10
74.462500000000006
20
-21.575000000000003
10
87.46250000000002
20
-21.574999999999992
42
-0.41421356237307422
10
87.96250000000002
20
-22.074999999999999
10
87.962500000000006
20
-35.075000000000003
42
-0.41421356237310025
10
87.46250000000002
20
-35.575000000000003
10
74.462500000000006
20
-35.575000000000003
42
-0.41421356237309764
10
73.962500000000006
20
-35.075000000000003
10
73.96250000000002
20
-22.074999999999999
42
-0.41421356237309764
0
LWPOLYLINE
5
129
100
AcDbEntity
8
0
100
AcDbPolyline
90
8
70
1
43
0.0
10
31.600000000000001
20
-21.575000000000003
10
44.600000000000001
20
-21.575000000000003
42
-0.41421356237309503
10
45.099999999999994
20
-22.074999999999999
10
45.099999999999994
20
-35.075000000000003
42
-0.41421356237309503
10
44.600000000000001
20
-35.575000000000003
10
31.600000000000001
20
-35.575000000000003
42
-0.41421356237309503
10
31.100000000000001
20
-35.075000000000003
10
31.100000000000001
20
-22.074999999999999
42
-0.41421356237309503
0
LWPOLYLINE
5
130
100
AcDbEntity
8
0
100
AcDbPolyline
90
8
70
1
43
0.0
10
93.512500000000003
20
-21.575000000000003
10
106.51250000000002
20
-21.574999999999992
42
-0.41421356237309503
10
107.01250000000002
20
-22.074999999999999
10
107.01250000000002
20
-35.075000000000003
42
-0.41421356237311585
10
106.51250000000002
20
-35.575000000000003
10
93.512500000000003
20
-35.575000000000003
42
-0.41421356237309243
10
93.012499999999989
20
-35.075000000000003
10
93.012499999999989
20
-22.074999999999999
42
-0.41421356237311063
0
LWPOLYLINE
5
131
100
AcDbEntity
8
0
100
AcDbPolyline
90
8
70
1
43
0.0
10
188.76249999999999
20
-21.575000000000003
10
201.76249999999999
20
-21.574999999999996
42
-0.41421356237313406
10
202.26249999999999
20
-22.074999999999999
10
202.26250000000005
20
-35.075000000000003
42
-0.41421356237307683
10
201.76249999999999
20
-35.575000000000003
10
188.76249999999999
20
-35.575000000000017
42
-0.41421356237310025
10
188.26249999999999
20
-35.075000000000003
10
188.26249999999999
20
-22.074999999999999
42
-0.41421356237305079
0
LWPOLYLINE
5
132
100
AcDbEntity
8
0
100
AcDbPolyline
90
8
70
1
43
0.0
10
150.66249999999999
20
-21.575000000000003
10
163.66250000000002
20
-21.574999999999982
42
-0.41421356237310281
10
164.16250000000002
20
-22.074999999999999
10
164.16250000000002
20
-35.075000000000003
42
-0.41421356237304563
10
163.66250000000002
20
-35.575000000000003
10
150.66249999999999
20
-35.575000000000003
42
-0.41421356237309243
10
150.16249999999999
20
-35.075000000000003
10
150.16249999999999
20
-22.074999999999999
42
-0.41421356237311063
0
LWPOLYLINE
5
133
100
AcDbEntity
8
0
100
AcDbPolyline
90
8
70
1
43
0.0
10
245.91250000000002
20
-21.575000000000003
10
258.91250000000002
20
-21.574999999999996
42
-0.41421356237313406
10
259.41250000000002
20
-22.074999999999999
10
259.41250000000008
20
-35.075000000000003
42
-0.41421356237307683
10
258.91250000000002
20
-35.575000000000003
10
245.91250000000002
20
-35.575000000000017
42
-0.41421356237310025
10
245.41250000000002
20
-35.075000000000003
10
245.41250000000002
20
-22.074999999999999
42
-0.41421356237305079
0
LWPOLYLINE
5
134
100
AcDbEntity
8
0
100
AcDbPolyline
90
8
70
1
43
0.0
10
226.86250000000001
20
-21.575000000000003
42
0.41421356237305079
10
226.36250000000001
20
-22.074999999999999
10
226.36250000000001
20
-35.075000000000003
42
0.41421356237310025
10
226.86250000000001
20
-35.575000000000003
10
239.86250000000001
20
-35.575000000000003
42
0.41421356237307683
10
240.36250000000001
20
-35.075000000000003
10
240.36250000000001
20
-22.074999999999999
42
0.41421356237313406
10
239.86250000000001
20
-21.575000000000003
0
LWPOLYLINE
5
135
100
AcDbEntity
8
0
100
AcDbPolyline
90
8
70
1
43
0.0
10
264.96249999999998
20
-21.575000000000003
10
277.96249999999998
20
-21.574999999999982
42
-0.41421356237310281
10
278.46250000000003
20
-22.074999999999999
10
278.46250000000003
20
-35.075000000000003
42
-0.41421356237304563
10
277.96249999999998
20
-35.575000000000003
10
264.96249999999998
20
-35.575000000000003
42
-0.41421356237313145
10
264.46249999999998
20
-35.075000000000003
10
264.46249999999998
20
-22.074999999999999
42
-0.41421356237308204
0
LWPOLYLINE
5
136
100
AcDbEntity
8
0
100
AcDbPolyline
90
8
70
1
43
0.0
10
131.61250000000001
20
-21.575000000000003
10
144.61250000000001
20
-21.574999999999992
42
-0.41421356237307422
10
145.11250000000001
20
-22.074999999999999
10
145.11250000000001
20
-35.075000000000003
42
-0.41421356237310025
10
144.61250000000001
20
-35.575000000000003
10
131.61250000000001
20
-35.575000000000003
42
-0.41421356237309243
10
131.11250000000001
20
-35.075000000000003
10
131.11250000000001
20
-22.074999999999999
42
-0.41421356237311063
0
LWPOLYLINE
5
137
100
AcDbEntity
8
0
100
AcDbPolyline
90
8
70
1
43
0.0
10
169.71250000000001
20
-21.575000000000003
10
182.71250000000003
20
-21.574999999999982
42
-0.41421356237310281
10
183.21250000000003
20
-22.074999999999999
10
183.21250000000003
20
-35.075000000000003
42
-0.41421356237304563
10
182.71250000000003
20
-35.575000000000003
10
169.71250000000001
20
-35.575000000000003
42
-0.41421356237313145
10
169.21250000000001
20
-35.075000000000003
10
169.21250000000001
20
-22.074999999999999
42
-0.41421356237308204
0
LWPOLYLINE
5
138
100
AcDbEntity
8
0
100
AcDbPolyline
90
8
70
1
43
0.0
10
207.8125
20
-21.575000000000003
10
220.8125
20
-21.574999999999996
42
-0.41421356237313406
10
221.3125
20
-22.074999999999999
10
221.31250000000006
20
-35.075000000000003
42
-0.41421356237307683
10
220.8125
20
-35.575000000000003
10
207.8125
20
-35.575000000000017
42
-0.41421356237310025
10
207.3125
20
-35.075000000000003
10
207.3125
20
-22.074999999999999
42
-0.41421356237305079
0
LWPOLYLINE
5
139
100
AcDbEntity
8
0
100
AcDbPolyline
90
8
70
1
43
0.0
10
136.375
20
-40.625
10
149.375
20
-40.624999999999993
42
-0.41421356237309503
10
149.875
20
-41.125
10
149.875
20
-54.125000000000007
42
-0.41421356237311585
10
149.375
20
-54.625
10
136.375
20
-54.625000000000014
42
-0.41421356237307422
10
135.875
20
-54.125000000000007
10
135.87500000000003
20
-41.125
42
-0.41421356237310025
0
LWPOLYLINE
5
140
100
AcDbEntity
8
0
100
AcDbPolyline
90
8
70
1
43
0.0
10
60.174999999999997
20
-40.625
10
73.174999999999997
20
-40.625
42
-0.41421356237309503
10
73.674999999999997
20
-41.125
10
73.674999999999997
20
-54.125000000000007
42
-0.41421356237309503
10
73.174999999999997
20
-54.625
10
60.174999999999997
20
-54.625
42
-0.41421356237309503
10
59.675000000000004
20
-54.125000000000007
10
59.675000000000004
20
-41.125
42
-0.41421356237309503
0
LWPOLYLINE
5
141
100
AcDbEntity
8
0
100
AcDbPolyline
90
8
70
1
43
0.0
10
79.224999999999994
20
-40.625
10
92.224999999999994
20
-40.624999999999993
42
-0.41421356237309503
10
92.725000000000009
20
-41.125
10
92.725000000000009
20
-54.125000000000007
42
-0.41421356237311585
10
92.224999999999994
20
-54.625
10
79.224999999999994
20
-54.625
42
-0.41421356237309503
10
78.724999999999994
20
-54.125000000000007
10
78.724999999999994
20
-41.125
42
-0.41421356237309503
0
LWPOLYLINE
5
142
100
AcDbEntity
8
0
100
AcDbPolyline
90
8
70
1
43
0.0
10
130.82499999999999
20
-41.125
10
130.82499999999999
20
-54.125000000000007
42
-0.41421356237311585
10
130.32499999999999
20
-54.625
10
117.32500000000002
20
-54.625000000000014
42
-0.41421356237309503
10
116.82500000000002
20
-54.125000000000007
10
116.82500000000002
20
-41.125
42
-0.41421356237311585
10
117.32500000000002
20
-40.625
10
130.32499999999999
20
-40.624999999999993
42
-0.41421356237309503
0
LWPOLYLINE
5
143
100
AcDbEntity
8
0
100
AcDbPolyline
90
8
70
1
43
0.0
10
98.275000000000006
20
-40.625
10
111.27500000000001
20
-40.624999999999993
42
-0.41421356237309503
10
111.77500000000002
20
-41.125
10
111.77500000000002
20
-54.125000000000007
42
-0.41421356237311585
10
111.27500000000001
20
-54.625
10
98.275000000000006
20
-54.625000000000014
42
-0.41421356237309503
10
97.775000000000006
20
-54.125000000000007
10
97.775000000000006
20
-41.125
42
-0.41421356237311585
0
LWPOLYLINE
5
144
100
AcDbEntity
8
0
100
AcDbPolyline
90
8
70
1
43
0.0
10
212.57499999999999
20
-40.625
10
225.57500000000002
20
-40.625
42
-0.41421356237313145
10
226.07500000000002
20
-41.125
10
226.07500000000005
20
-54.125000000000007
42
-0.41421356237307422
10
225.57500000000002
20
-54.625
10
212.57499999999999
20
-54.624999999999986
42
-0.41421356237312101
10
212.07499999999999
20
-54.125000000000007
10
212.07500000000005
20
-41.125
42
-0.4142135623730222
0
LWPOLYLINE
5
145
100
AcDbEntity
8
0
100
AcDbPolyline
90
8
70
1
43
0.0
10
168.92500000000001
20
-41.125
10
168.92499999999998
20
-54.125000000000007
42
-0.4142135623730222
10
168.42500000000001
20
-54.625
10
155.42500000000001
20
-54.625000000000014
42
-0.41421356237307422
10
154.92500000000001
20
-54.125000000000007
10
154.92500000000004
20
-41.125
42
-0.41421356237310025
10
155.42500000000001
20
-40.625
10
168.42500000000001
20
-40.625000000000014
42
-0.41421356237312101
0
LWPOLYLINE
5
146
100
AcDbEntity
8
0
100
AcDbPolyline
90
8
70
1
43
0.0
10
187.97499999999999
20
-41.125
10
187.97500000000002
20
-54.125000000000007
42
-0.41421356237307422
10
187.47499999999999
20
-54.625
10
174.47500000000002
20
-54.625
42
-0.41421356237313145
10
173.97500000000002
20
-54.125000000000007
10
173.97499999999997
20
-41.125
42
-0.41421356237307422
10
174.47500000000002
20
-40.625
10
187.47499999999999
20
-40.625
42
-0.41421356237313145
0
LWPOLYLINE
5
147
100
AcDbEntity
8
0
100
AcDbPolyline
90
8
70
1
43
0.0
10
193.52500000000003
20
-40.625
42
0.41421356237307422
10
193.02499999999998
20
-41.125
10
193.02500000000003
20
-54.125000000000007
42
0.41421356237313145
10
193.52500000000003
20
-54.625
10
206.52500000000003
20
-54.625
42
0.4142135623730222
10
207.02500000000001
20
-54.125000000000007
10
207.02500000000003
20
-41.125
42
0.41421356237312101
10
206.52500000000003
20
-40.625
0
LWPOLYLINE
5
148
100
AcDbEntity
8
0
100
AcDbPolyline
90
8
70
1
43
0.0
10
231.625
20
-40.625
10
244.62500000000003
20
-40.625
42
-0.41421356237313145
10
245.12500000000003
20
-41.125
10
245.12500000000006
20
-54.125000000000007
42
-0.41421356237307422
10
244.62500000000003
20
-54.625
10
231.625
20
-54.624999999999986
42
-0.41421356237312101
10
231.125
20
-54.125000000000007
10
231.12500000000006
20
-41.125
42
-0.4142135623730222
0
LWPOLYLINE
5
149
100
AcDbEntity
8
0
100
AcDbPolyline
90
8
70
1
43
0.0
10
250.67500000000001
20
-40.625
10
263.67500000000001
20
-40.625
42
-0.41421356237313145
10
264.17500000000007
20
-41.125
10
264.17500000000007
20
-54.125000000000007
42
-0.41421356237307422
10
263.67500000000001
20
-54.625
10
250.67500000000001
20
-54.624999999999986
42
-0.41421356237312101
10
250.17500000000001
20
-54.125000000000007
10
250.17500000000007
20
-41.125
42
-0.4142135623730222
0
LWPOLYLINE
5
150
100
AcDbEntity
8
0
100
AcDbPolyline
90
8
70
1
43
0.0
10
107.80000000000001
20
-59.675000000000004
10
120.79999999999998
20
-59.674999999999983
42
-0.41421356237307944
10
121.30000000000001
20
-60.174999999999997
10
121.29999999999998
20
-73.174999999999997
42
-0.41421356237310025
10
120.8
20
-73.674999999999997
10
107.80000000000001
20
-73.675000000000011
42
-0.41421356237309503
10
107.30000000000001
20
-73.174999999999997
10
107.30000000000003
20
-60.174999999999997
42
-0.41421356237312101
0
LWPOLYLINE
5
151
100
AcDbEntity
8
0
100
AcDbPolyline
90
8
70
1
43
0.0
10
69.700000000000003
20
-59.675000000000004
10
82.699999999999989
20
-59.674999999999983
42
-0.41421356237307944
10
83.200000000000017
20
-60.174999999999997
10
83.200000000000003
20
-73.174999999999997
42
-0.41421356237310025
10
82.700000000000017
20
-73.674999999999997
10
69.700000000000003
20
-73.674999999999997
42
-0.41421356237309503
10
69.200000000000003
20
-73.174999999999997
10
69.200000000000003
20
-60.174999999999997
42
-0.41421356237310542
0
LWPOLYLINE
5
152
100
AcDbEntity
8
0
100
AcDbPolyline
90
8
70
1
43
0.0
10
88.75
20
-59.675000000000004
10
101.75
20
-59.674999999999983
42
-0.41421356237310025
10
102.25000000000001
20
-60.174999999999997
10
102.25000000000001
20
-73.174999999999997
42
-0.41421356237311585
10
101.75
20
-73.674999999999997
10
88.75
20
-73.675000000000011
42
-0.41421356237309503
10
88.25
20
-73.174999999999997
10
88.250000000000014
20
-60.174999999999997
42
-0.41421356237312101
0
LWPOLYLINE
5
153
100
AcDbEntity
8
0
100
AcDbPolyline
90
8
70
1
43
0.0
10
184.00000000000003
20
-59.675000000000004
10
197.00000000000003
20
-59.675000000000011
42
-0.41421356237312623
10
197.50000000000003
20
-60.174999999999997
10
197.5
20
-73.174999999999997
42
-0.4142135623730222
10
197.00000000000003
20
-73.674999999999997
10
184.00000000000003
20
-73.674999999999997
42
-0.41421356237313145
10
183.5
20
-73.174999999999997
10
183.49999999999997
20
-60.174999999999997
42
-0.41421356237307422
0
LWPOLYLINE
5
154
100
AcDbEntity
8
0
100
AcDbPolyline
90
8
70
1
43
0.0
10
145.90000000000001
20
-59.675000000000004
10
158.90000000000001
20
-59.674999999999983
42
-0.41421356237310025
10
159.40000000000001
20
-60.174999999999997
10
159.40000000000001
20
-73.174999999999997
42
-0.41421356237311585
10
158.90000000000001
20
-73.674999999999997
10
145.90000000000001
20
-73.675000000000011
42
-0.41421356237307422
10
145.40000000000001
20
-73.174999999999997
10
145.40000000000003
20
-60.174999999999997
42
-0.41421356237310542
0
LWPOLYLINE
5
155
100
AcDbEntity
8
0
100
AcDbPolyline
90
8
70
1
43
0.0
10
241.15000000000003
20
-59.675000000000004
10
254.15000000000003
20
-59.674999999999997
42
-0.41421356237313667
10
254.65000000000003
20
-60.174999999999997
10
254.65000000000006
20
-73.174999999999997
42
-0.41421356237307422
10
254.15000000000003
20
-73.674999999999997
10
241.15000000000003
20
-73.674999999999983
42
-0.41421356237312101
10
240.65000000000001
20
-73.174999999999997
10
240.65000000000003
20
-60.174999999999997
42
-0.4142135623730222
0
LWPOLYLINE
5
156
100
AcDbEntity
8
0
100
AcDbPolyline
90
8
70
1
43
0.0
10
222.10000000000002
20
-59.675000000000004
42
0.4142135623730222
10
221.60000000000002
20
-60.174999999999997
10
221.59999999999999
20
-73.174999999999997
42
0.41421356237312101
10
222.10000000000002
20
-73.674999999999997
10
235.10000000000002
20
-73.674999999999997
42
0.41421356237307422
10
235.60000000000002
20
-73.174999999999997
10
235.60000000000002
20
-60.174999999999997
42
0.41421356237313667
10
235.10000000000002
20
-59.675000000000004
0
LWPOLYLINE
5
157
100
AcDbEntity
8
0
100
AcDbPolyline
90
8
70
1
43
0.0
10
280.34375
20
-73.674999999999997
10
267.34375
20
-73.674999999999983
42
-0.41421356237312101
10
266.84375
20
-73.174999999999997
10
266.84375
20
-60.174999999999997
42
-0.4142135623730222
10
267.34375
20
-59.675000000000004
10
280.34375
20
-59.675000000000026
42
-0.41421356237309503
10
280.84375
20
-60.174999999999997
10
280.84375
20
-73.174999999999997
42
-0.41421356237309503
0
LWPOLYLINE
5
158
100
AcDbEntity
8
0
100
AcDbPolyline
90
8
70
1
43
0.0
10
126.85000000000001
20
-59.675000000000004
10
139.84999999999999
20
-59.674999999999983
42
-0.41421356237310025
10
140.34999999999999
20
-60.174999999999997
10
140.34999999999999
20
-73.174999999999997
42
-0.41421356237311585
10
139.84999999999999
20
-73.674999999999997
10
126.85000000000001
20
-73.675000000000011
42
-0.41421356237307422
10
126.34999999999999
20
-73.174999999999997
10
126.35000000000002
20
-60.174999999999997
42
-0.41421356237310542
0
LWPOLYLINE
5
159
100
AcDbEntity
8
0
100
AcDbPolyline
90
8
70
1
43
0.0
10
164.95000000000002
20
-59.675000000000004
10
177.94999999999999
20
-59.674999999999997
42
-0.41421356237313667
10
178.44999999999999
20
-60.174999999999997
10
178.45000000000002
20
-73.174999999999997
42
-0.41421356237307422
10
177.94999999999999
20
-73.674999999999997
10
164.95000000000002
20
-73.674999999999997
42
-0.41421356237313145
10
164.44999999999999
20
-73.174999999999997
10
164.44999999999996
20
-60.174999999999997
42
-0.41421356237307422
0
LWPOLYLINE
5
160
100
AcDbEntity
8
0
100
AcDbPolyline
90
8
70
1
43
0.0
10
203.05000000000004
20
-59.675000000000004
10
216.05000000000004
20
-59.675000000000011
42
-0.41421356237312623
10
216.55000000000004
20
-60.174999999999997
10
216.55000000000001
20
-73.174999999999997
42
-0.4142135623730222
10
216.05000000000004
20
-73.674999999999997
10
203.05000000000004
20
-73.674999999999997
42
-0.41421356237313145
10
202.55000000000001
20
-73.174999999999997
10
202.54999999999998
20
-60.174999999999997
42
-0.41421356237307422
0
LWPOLYLINE
5
161
100
AcDbEntity
8
0
100
AcDbPolyline
90
8
70
1
43
0.0
10
241.15000000000003
20
-78.724999999999994
10
254.15000000000003
20
-78.724999999999994
42
-0.41421356237309503
10
254.65000000000003
20
-79.224999999999994
10
254.65000000000003
20
-92.224999999999994
42
-0.41421356237309503
10
254.15000000000003
20
-92.725000000000009
10
241.15000000000003
20
-92.725000000000023
42
-0.41421356237310542
10
240.65000000000001
20
-92.224999999999994
10
240.65000000000003
20
-79.224999999999994
42
-0.4142135623730222
0
LWPOLYLINE
5
162
100
AcDbEntity
8
0
100
AcDbPolyline
90
8
70
1
43
0.0
10
3.0249999999999999
20
-2.5249999999999999
10
16.024999999999999
20
-2.5249999999999999
42
-0.4142135623730947
10
16.525000000000002
20
-3.0249999999999999
10
16.525000000000002
20
-16.024999999999999
42
-0.41421356237309243
10
16.024999999999999
20
-16.525000000000002
10
3.0249999999999999
20
-16.525000000000002
42
-0.4142135623730947
10
2.5249999999999999
20
-16.024999999999999
10
2.5249999999999999
20
-3.0249999999999999
42
-0.41421356237309437
0
LWPOLYLINE
5
163
100
AcDbEntity
8
0
100
AcDbPolyline
90
8
70
1
43
0.0
10
3.0249999999999999
20
-21.575000000000003
10
16.024999999999999
20
-21.574999999999996
42
-0.41421356237309503
10
16.525000000000002
20
-22.074999999999999
10
16.525000000000002
20
-35.075000000000003
42
-0.41421356237309631
10
16.024999999999999
20
-35.575000000000003
10
3.0249999999999999
20
-35.575000000000003
42
-0.41421356237309537
10
2.5249999999999999
20
-35.075000000000003
10
2.5250000000000004
20
-22.074999999999999
42
-0.4142135623730957
0
LWPOLYLINE
5
164
100
AcDbEntity
8
0
100
AcDbPolyline
90
8
70
1
43
0.0
10
3.0249999999999999
20
-40.625
10
16.024999999999999
20
-40.625
42
-0.4142135623730937
10
16.525000000000002
20
-41.125
10
16.524999999999999
20
-54.125000000000007
42
-0.41421356237309503
10
16.024999999999999
20
-54.625
10
3.0249999999999999
20
-54.625
42
-0.41421356237309404
10
2.5249999999999999
20
-54.125000000000007
10
2.525000000000003
20
-41.125
42
-0.41421356237309437
0
LWPOLYLINE
5
165
100
AcDbEntity
8
0
100
AcDbPolyline
90
8
70
1
43
0.0
10
3.0249999999999999
20
-59.675000000000004
10
16.024999999999999
20
-59.675000000000004
42
-0.41421356237309631
10
16.525000000000002
20
-60.174999999999997
10
16.524999999999999
20
-73.174999999999997
42
-0.41421356237309503
10
16.024999999999999
20
-73.674999999999997
10
3.0249999999999999
20
-73.674999999999997
42
-0.41421356237309404
10
2.5249999999999999
20
-73.174999999999997
10
2.5249999999999986
20
-60.174999999999997
42
-0.41421356237309698
0
LWPOLYLINE
5
166
100
AcDbEntity
8
0
100
AcDbPolyline
90
8
70
1
43
0.0
10
3.0249999999999999
20
-78.724999999999994
10
16.024999999999999
20
-78.724999999999994
42
-0.41421356237309631
10
16.525000000000002
20
-79.224999999999994
10
16.525000000000009
20
-92.224999999999994
42
-0.41421356237309631
10
16.024999999999999
20
-92.725000000000009
10
3.0249999999999999
20
-92.725000000000023
42
-0.41421356237310542
10
2.5249999999999999
20
-92.224999999999994
10
2.5249999999999986
20
-79.224999999999994
42
-0.41421356237309698
0
LWPOLYLINE
5
167
100
AcDbEntity
8
0
100
AcDbPolyline
90
8
70
1
43
0.0
10
303.56925000000001
20
-39.125
10
303.56925000000001
20
-53.125
42
-0.41421356237309503
10
303.06925000000001
20
-53.625
10
297.06925000000001
20
-53.625000000000007
42
-0.41421356237309503
10
296.56925000000001
20
-53.125
10
296.56925000000001
20
-39.125
42
-0.41421356237309503
10
297.06925000000001
20
-38.625
10
303.06925000000001
20
-38.624999999999993
42
-0.41421356237309503
0
LWPOLYLINE
5
168
100
AcDbEntity
8
0
100
AcDbPolyline
90
8
70
1
43
0.0
10
279.69324999999998
20
-39.125
10
279.69325000000003
20
-53.125
42
-0.41421356237309503
10
279.19325000000003
20
-53.625
10
273.19324999999998
20
-53.625000000000007
42
-0.41421356237309503
10
272.69324999999998
20
-53.125
10
272.69324999999998
20
-39.125
42
-0.41421356237305079
10
273.19324999999998
20
-38.625
10
279.19325000000003
20
-38.625000000000014
42
-0.41421356237310281
0
LWPOLYLINE
5
169
100
AcDbEntity
8
0
100
AcDbPolyline
90
8
70
1
43
0.0
10
281.63125000000002
20
-40.625
10
294.63125000000002
20
-40.624999999999993
42
-0.41421356237309503
10
295.13125000000008
20
-41.125
10
295.13125000000002
20
-54.125000000000007
42
-0.4142135623730222
10
294.63125000000002
20
-54.625
10
281.63125000000002
20
-54.625000000000014
42
-0.41421356237309503
10
281.13125000000002
20
-54.125000000000007
10
281.13125000000002
20
-41.125
42
-0.41421356237309503
0
LWPOLYLINE
5
170
100
AcDbEntity
8
0
100
AcDbPolyline
90
8
70
1
43
0.0
10
60.681750000000001
20
-61.174999999999997
10
60.681750000000001
20
-75.174999999999997
42
-0.41421356237309503
10
60.181750000000001
20
-75.674999999999997
10
54.181750000000008
20
-75.674999999999997
42
-0.41421356237309503
10
53.681750000000008
20
-75.174999999999997
10
53.681750000000108
20
-61.174999999999997
42
-0.41421356237309503
10
54.181750000000108
20
-60.674999999999997
10
60.181750000000001
20
-60.674999999999997
42
-0.41421356237309503
0
LWPOLYLINE
5
171
100
AcDbEntity
8
0
100
AcDbPolyline
90
8
70
1
43
0.0
10
38.743749999999999
20
-59.675000000000004
10
51.743750000000006
20
-59.675000000000026
42
-0.41421356237309503
10
52.243749999999977
20
-60.174999999999997
10
52.243750000000006
20
-73.174999999999997
42
-0.41421356237309503
10
51.743750000000006
20
-73.674999999999997
10
38.743749999999999
20
-73.674999999999969
42
-0.41421356237309503
10
38.243750000000027
20
-73.174999999999997
10
38.243750000000006
20
-60.174999999999997
42
-0.41421356237309503
0
CIRCLE
5
172
100
AcDbEntity
8
0
100
AcDbCircle
10
72.628124999999997
20
-97.575000000000003
30
0
40
1.19999999999999
210
0
220
0
230
1
0
LWPOLYLINE
5
173
100
AcDbEntity
8
0
100
AcDbPolyline
90
8
70
1
43
0.0
10
192.73750000000004
20
-3.0249999999999999
42
0.41421356237310153
10
192.23750000000001
20
-2.5249999999999817
10
179.23750000000001
20
-2.5249999999999999
42
0.41421356237307749
10
178.73750000000001
20
-3.0249999999999999
10
178.73750000000001
20
-16.024999999999999
42
0.41421356237313406
10
179.23750000000001
20
-16.524999999999999
10
192.23750000000001
20
-16.525000000000002
42
0.41421356237302348
10
192.73750000000004
20
-16.024999999999999
0
LWPOLYLINE
5
174
100
AcDbEntity
8
0
100
AcDbPolyline
90
8
70
1
43
0.0
10
211.28749999999999
20
-16.524999999999999
10
198.28749999999999
20
-16.524999999999984
42
-0.41421356237312362
10
197.78749999999999
20
-16.024999999999999
10
197.78749999999999
20
-3.0249999999999999
42
-0.41421356237304624
10
198.28749999999999
20
-2.5249999999999999
10
211.28749999999999
20
-2.5249999999999995
42
-0.41421356237313273
10
211.78750000000002
20
-3.0249999999999999
10
211.78750000000005
20
-16.024999999999999
42
-0.41421356237307549
0
LWPOLYLINE
5
175
100
AcDbEntity
8
0
100
AcDbPolyline
90
8
70
1
43
0.0
10
235.88750000000002
20
-16.024999999999999
42
0.41421356237312362
10
236.38750000000002
20
-16.524999999999984
10
249.38749999999999
20
-16.525000000000002
42
0.41421356237302348
10
249.88749999999999
20
-16.024999999999999
10
249.88749999999999
20
-3.0249999999999999
42
0.41421356237310153
10
249.38749999999999
20
-2.5249999999999901
10
236.38750000000002
20
-2.5249999999999999
42
0.41421356237304624
10
235.88750000000002
20
-3.0249999999999999
0
LWPOLYLINE
5
176
100
AcDbEntity
8
0
100
AcDbPolyline
90
8
70
1
43
0.0
10
216.83750000000001
20
-16.024999999999999
42
0.41421356237312362
10
217.33750000000001
20
-16.524999999999984
10
230.33750000000001
20
-16.525000000000002
42
0.41421356237307549
10
230.83750000000003
20
-16.024999999999999
10
230.83750000000003
20
-3.0249999999999999
42
0.41421356237313273
10
230.33750000000001
20
-2.5249999999999901
10
217.33750000000001
20
-2.5249999999999999
42
0.41421356237304624
10
216.83750000000003
20
-3.0249999999999999
0
LWPOLYLINE
5
177
100
AcDbEntity
8
0
100
AcDbPolyline
90
8
70
1
43
0.0
10
268.9375
20
-3.0249999999999999
10
268.9375
20
-16.024999999999999
42
-0.41421356237309503
10
268.4375
20
-16.525000000000002
10
255.43750000000003
20
-16.524999999999984
42
-0.41421356237312362
10
254.93750000000003
20
-16.024999999999999
10
254.93750000000003
20
-3.0249999999999999
42
-0.41421356237309503
10
255.43750000000003
20
-2.5249999999999999
10
268.4375
20
-2.5249999999999928
42
-0.41421356237309503
0
CIRCLE
5
178
100
AcDbEntity
8
0
100
AcDbCircle
10
271.46249999999998
20
2.3250000000000002
30
0
40
1.2000000000000099
210
0
220
0
230
1
0
CIRCLE
5
179
100
AcDbEntity
8
0
100
AcDbCircle
10
9.5250000000000021
20
2.3250000000000002
30
0
40
1.2
210
0
220
0
230
1
0
LWPOLYLINE
5
180
100
AcDbEntity
8
0
100
AcDbPolyline
90
8
70
1
43
0.0
10
154.38749999999999
20
-3.0249999999999999
10
154.38750000000002
20
-16.024999999999999
42
-0.41421356237309503
10
153.88749999999999
20
-16.525000000000002
10
141.13749999999999
20
-16.525000000000009
42
-0.41421356237309631
10
140.63749999999999
20
-16.024999999999999
10
140.63749999999999
20
-3.0249999999999999
42
-0.41421356237309503
10
141.13749999999999
20
-2.5249999999999999
10
153.88749999999999
20
-2.5250000000000106
42
-0.41421356237309503
0
ENDSEC
0
SECTION
2
OBJECTS
0
DICTIONARY
5
C
100
AcDbDictionary
3
ACAD_GROUP
350
D
3
ACAD_MLINESTYLE
350
17
0
DICTIONARY
5
D
100
AcDbDictionary
0
DICTIONARY
5
1A
330
C
100
AcDbDictionary
0
DICTIONARY
5
17
100
AcDbDictionary
0
ENDSEC
0
EOF
