0
SECTION
2
HEADER
9
$INSUNITS
70
4
9
$ACADVER
1
AC1014
9
$HANDSEED
5
FFFF
0
ENDSEC
0
SECTION
2
TABLES
0
TABLE
2
VPORT
5
8
100
AcDbSymbolTable
0
ENDTAB
0
TABLE
2
LTYPE
5
5
100
AcDbSymbolTable
0
LTYPE
5
14
100
AcDbSymbolTableRecord
100
AcDbLinetypeTableRecord
2
BYBLOCK
70
0
0
LTYPE
5
15
100
AcDbSymbolTableRecord
100
AcDbLinetypeTableRecord
2
BYLAYER
70
0
0
ENDTAB
0
TABLE
2
LAYER
5
2
100
AcDbSymbolTable
70
2
0
LAYER
5
50
100
AcDbSymbolTableRecord
100
AcDbLayerTableRecord
2
0
70
0
6
CONTINUOUS
0
ENDTAB
0
TABLE
2
STYLE
5
3
100
AcDbSymbolTable
70
1
0
STYLE
5
11
100
AcDbSymbolTableRecord
100
AcDbTextStyleTableRecord
2
STANDARD
70
0
0
ENDTAB
0
TABLE
2
VIEW
5
6
100
AcDbSymbolTable
70
0
0
ENDTAB
0
TABLE
2
UCS
5
7
100
AcDbSymbolTable
70
0
0
ENDTAB
0
TABLE
2
APPID
5
9
100
AcDbSymbolTable
70
2
0
APPID
5
12
100
AcDbSymbolTableRecord
100
AcDbRegAppTableRecord
2
ACAD
70
0
0
ENDTAB
0
TABLE
2
DIMSTYLE
5
A
100
AcDbSymbolTable
70
1
0
ENDTAB
0
TABLE
2
BLOCK_RECORD
5
1
100
AcDbSymbolTable
70
1
0
BLOCK_RECORD
5
1F
100
AcDbSymbolTableRecord
100
AcDbBlockTableRecord
2
*MODEL_SPACE
0
BLOCK_RECORD
5
1B
100
AcDbSymbolTableRecord
100
AcDbBlockTableRecord
2
*PAPER_SPACE
0
ENDTAB
0
ENDSEC
0
SECTION
2
BLOCKS
0
BLOCK
5
20
100
AcDbEntity
100
AcDbBlockBegin
2
*MODEL_SPACE
0
ENDBLK
5
21
100
AcDbEntity
100
AcDbBlockEnd
0
BLOCK
5
1C
100
AcDbEntity
100
AcDbBlockBegin
2
*PAPER_SPACE
0
ENDBLK
5
1D
100
AcDbEntity
100
AcDbBlockEnd
0
ENDSEC
0
SECTION
2
ENTITIES
0
LWPOLYLINE
5
100
100
AcDbEntity
8
0
100
AcDbPolyline
90
52
70
1
43
0.0
10
-296.406153989968
20
99.949231012787223
42
0.53518364392252615
10
-296.60000027146305
20
99.400000361950475
42
0.23606809691276162
10
-295.80000000000001
20
98.999999999999801
10
-206.78242080301104
20
98.999999999999801
42
0.35433971334437275
10
-205.80411009738813
20
99.792857142856718
42
-0.81043490406560059
10
-200.91255656927791
20
99.792857142856931
42
0.35433971334436937
10
-199.93424586365603
20
98.999999999999801
10
-104.86575413634399
20
98.999999999999801
42
0.35433971334437164
10
-103.88744343072213
20
99.792857142856931
42
-0.81043490406561014
10
-98.995889902611879
20
99.792857142856874
42
0.35433971334437642
10
-98.017579196989601
20
98.999999999999801
10
-8.999999999999968
20
98.999999999999915
42
0.23606785090275553
10
-8.2000002877947047
20
99.39999961627359
42
0.53518388091701641
10
-8.3938463073365774
20
99.949230511281542
42
-0.80553090208110689
10
-8.2871794871794862
20
103.07401620302801
42
0.3622916187713871
10
-8.0000000000000302
20
103.418332312394
10
-8.0000000000000515
20
104.40000000000001
42
-0.41421356237309503
10
-7.6500000000000501
20
104.75000000000001
10
-0.99999999999993872
20
104.75000000000001
42
0.41421356237309492
10
6.0923488476305465e-14
20
105.75000000000001
10
6.9388939039072284e-16
20
199.00000000000003
42
0.41421356237309503
10
-1
20
200.00000000000003
10
-26.771870000000103
20
200
42
-0.41421356237309503
10
-27.121870000000104
20
200.34999999999999
10
-27.121870000000104
20
201.33166497582403
42
0.36229161877135341
10
-27.409049487179512
20
201.67598108518999
42
-0.80553127469697094
10
-27.515714905557964
20
204.80076713294326
42
0.53518276281021993
10
-27.321867659459929
20
205.34999687926674
42
0.23606900707528236
10
-28.121870000000104
20
205.75000000000003
10
-98.017579196989715
20
205.75000000000003
42
0.35433971334434616
10
-98.995889902611864
20
204.95714285714303
42
-0.81043490406565011
10
-103.88744343072213
20
204.957142857143
42
0.35433971334433795
10
-104.86575413634399
20
205.75000000000003
10
-199.93424586365603
20
205.75000000000003
42
0.35433971334434616
10
-200.91255656927885
20
204.95714285714317
42
-0.81043490406566809
10
-205.80411009738913
20
204.95714285714297
42
0.35433971334434977
10
-206.78242080301104
20
205.75000000000003
10
-276.67813000000001
20
205.75000000000003
42
0.23606900787227475
10
-277.47813234235218
20
205.34999687685112
42
0.53518276203966819
10
-277.28428509540811
20
204.80076713131962
42
-0.80553127495397137
10
-277.39095051282095
20
201.67598108332089
42
0.36229161877104682
10
-277.67813000000001
20
201.33166497395501
10
-277.67813000000001
20
200.34999999999999
42
-0.41421356237309503
10
-278.02813000000003
20
200.00000000000003
10
-303.80000000000001
20
200
42
0.41421356237309503
10
-304.80000000000007
20
199.00000000000003
10
-304.80000000000007
20
105.75000000000001
42
0.41421356237309503
10
-303.80000000000001
20
104.75000000000001
10
-297.14999999999998
20
104.75000000000001
42
-0.41421356237309503
10
-296.80000000000001
20
104.40000000000001
10
-296.80000000000001
20
103.418332891755
42
0.36229161956455191
10
-296.51282051185478
20
103.07401678221326
42
-0.80553098369690435
0
LWPOLYLINE
5
101
100
AcDbEntity
8
0
100
AcDbPolyline
90
8
70
1
43
0.0
10
-175.44399999999999
20
190.32499999999999
10
-175.44399999999999
20
190.625
42
-0.41421356237309503
10
-175.09399999999999
20
190.97499999999999
10
-152.25
20
190.97499999999999
42
-0.41421356237309503
10
-151.90000000000001
20
190.625
10
-151.90000000000001
20
190.32499999999999
42
-0.41421356237309503
10
-152.25
20
189.97499999999999
10
-175.09399999999999
20
189.97499999999999
42
-0.41421356237309503
0
LWPOLYLINE
5
102
100
AcDbEntity
8
0
100
AcDbPolyline
90
8
70
1
43
0.0
10
-91.599750000000014
20
189.97499999999999
10
-121.59375
20
189.97499999999999
42
-0.41421356237309503
10
-121.94375000000001
20
190.32499999999999
10
-121.94375000000001
20
190.625
42
-0.41421356237309503
10
-121.59375
20
190.97499999999999
10
-91.599750000000014
20
190.97499999999999
42
-0.41421356237309503
10
-91.249750000000006
20
190.625
10
-91.249750000000006
20
190.32499999999999
42
-0.41421356237309503
0
LWPOLYLINE
5
103
100
AcDbEntity
8
0
100
AcDbPolyline
90
10
70
1
43
0.0
10
-189.55904605459122
20
104.75000054339331
42
3.4279039422604205
10
-191.4409539454108
20
104.75000054339331
10
-225.27500000000003
20
104.75000054339336
42
0.41421356237309503
10
-225.62499999809279
20
104.40000054716101
10
-225.62500000000006
20
104.35000054769901
42
0.41421356237309503
10
-225.27500000000003
20
104.00000054955966
10
-156.75
20
104.00000055146674
42
0.41421356237309503
10
-156.40000000186058
20
104.35000054769901
10
-156.39999999999998
20
104.40000054716101
42
0.41421356237310991
10
-156.75000000000003
20
104.75000054530035
0
LWPOLYLINE
5
104
100
AcDbEntity
8
0
100
AcDbPolyline
90
10
70
1
43
0.0
10
-113.35904605459122
20
104.75000054339333
42
3.4279039422603836
10
-115.24095394541079
20
104.75000054339333
10
-148.05000000000001
20
104.75000054339331
42
0.41421356237309503
10
-148.3999999980928
20
104.40000054716101
10
-148.40000000000003
20
104.35000054769901
42
0.41421356237309503
10
-148.05000000000001
20
104.00000054955967
10
-79.524999999999906
20
104.00000055146671
42
0.41421356237309503
10
-79.175000001907009
20
104.35000054769901
10
-79.174999999999912
20
104.40000054716101
42
0.41421356237309503
10
-79.524999999999906
20
104.75000054530034
0
LWPOLYLINE
5
105
100
AcDbEntity
8
0
100
AcDbPolyline
90
14
70
1
43
0.0
10
-287.34252797906481
20
105.50000053531967
42
0.14490959412824977
10
-286.69095309700094
20
104.75000000234709
10
-286.69095309700094
20
104.35000054769901
42
0.41421356237309503
10
-286.34095309700103
20
104.00000054955969
10
-250.97499999999999
20
104.00000055146677
42
0.41421356237309503
10
-250.62500000190724
20
104.35000054769901
10
-250.62500000000006
20
104.40000054716101
42
0.41421356237309503
10
-250.97499999999999
20
104.75000054530031
10
-284.80904605459051
20
104.75000054339377
42
1.6887808047265309
10
-287.49999903999998
20
106.22550176751
10
-289.690953097001
20
106.22550176751031
42
0.41421356237309503
10
-290.04095309509381
20
105.87550177127801
10
-290.04095309700097
20
105.850000531552
42
0.41421356237306534
10
-289.69095309700106
20
105.50000053341272
0
LWPOLYLINE
5
106
100
AcDbEntity
8
0
100
AcDbPolyline
90
14
70
1
43
0.0
10
-18.109046902996702
20
104.75000000234969
42
0.14490959412759571
10
-17.457472020936816
20
105.50000053531997
10
-15.109046902996901
20
105.50000053531969
42
0.41421356237309503
10
-14.759046904903999
20
105.850000531552
10
-14.7590469029969
20
105.87550177127801
42
0.41421356237309503
10
-15.109046902996901
20
106.22550176941735
10
-17.30000096000078
20
106.22550176751
42
1.6887808047270365
10
-19.990953945410599
20
104.75000054339301
10
-53.824999999999903
20
104.75000054339333
42
0.41421356237309503
10
-54.174999998092794
20
104.40000054716101
10
-54.174999999999905
20
104.35000054769901
42
0.41421356237309503
10
-53.824999999999903
20
104.00000054955969
10
-18.459046902996899
20
104.00000055146668
42
0.41421356237309503
10
-18.10904690485749
20
104.35000054769901
0
LWPOLYLINE
5
107
100
AcDbEntity
8
0
100
AcDbPolyline
90
8
70
1
43
0.0
10
-302.27499999999998
20
126.875
10
-302.27500000000003
20
139.77500000000001
42
-0.41421356237309503
10
-301.72500000000002
20
140.32500000000002
10
-288.82499999999999
20
140.32499999999996
42
-0.41421356237309503
10
-288.27500000000003
20
139.77500000000001
10
-288.27499999999998
20
126.875
42
-0.41421356237309503
10
-288.82499999999999
20
126.32499999999996
10
-301.72500000000002
20
126.32500000000005
42
-0.41421356237309503
0
LWPOLYLINE
5
108
100
AcDbEntity
8
0
100
AcDbPolyline
90
8
70
1
43
0.0
10
-278.46249999999998
20
126.875
10
-278.46250000000003
20
139.77500000000001
42
-0.41421356237309503
10
-277.91250000000002
20
140.32499999999996
10
-265.01249999999999
20
140.32500000000005
42
-0.41421356237309503
10
-264.46249999999998
20
139.77500000000001
10
-264.46249999999998
20
126.875
42
-0.41421356237309503
10
-265.01249999999999
20
126.32499999999996
10
-277.91250000000002
20
126.32500000000007
42
-0.41421356237309503
0
LWPOLYLINE
5
109
100
AcDbEntity
8
0
100
AcDbPolyline
90
8
70
1
43
0.0
10
-254.65000000000003
20
126.875
10
-254.65000000000001
20
139.77500000000001
42
-0.41421356237309503
10
-254.09999999999999
20
140.32500000000002
10
-241.20000000000002
20
140.32500000000005
42
-0.41421356237309503
10
-240.64999999999998
20
139.77500000000001
10
-240.65000000000003
20
126.875
42
-0.41421356237309503
10
-241.20000000000002
20
126.32500000000005
10
-254.09999999999999
20
126.32499999999996
42
-0.41421356237309503
0
LWPOLYLINE
5
110
100
AcDbEntity
8
0
100
AcDbPolyline
90
8
70
1
43
0.0
10
-235.60000000000002
20
126.875
10
-235.60000000000002
20
139.77500000000001
42
-0.41421356237309503
10
-235.05000000000001
20
140.32500000000002
10
-222.15000000000003
20
140.32500000000005
42
-0.41421356237309503
10
-221.59999999999999
20
139.77500000000001
10
-221.60000000000002
20
126.875
42
-0.41421356237309503
10
-222.15000000000003
20
126.32500000000002
10
-235.05000000000001
20
126.325
42
-0.41421356237309503
0
LWPOLYLINE
5
111
100
AcDbEntity
8
0
100
AcDbPolyline
90
8
70
1
43
0.0
10
-216.55000000000001
20
126.875
10
-216.55000000000001
20
139.77500000000001
42
-0.41421356237309503
10
-216
20
140.32500000000002
10
-203.10000000000002
20
140.32500000000002
42
-0.41421356237309503
10
-202.55000000000001
20
139.77500000000001
10
-202.54999999999995
20
126.875
42
-0.41421356237309503
10
-203.10000000000002
20
126.32499999999992
10
-216
20
126.325
42
-0.41421356237309503
0
LWPOLYLINE
5
112
100
AcDbEntity
8
0
100
AcDbPolyline
90
8
70
1
43
0.0
10
-197.5
20
126.875
10
-197.50000000000003
20
139.77500000000001
42
-0.41421356237309503
10
-196.94999999999999
20
140.32500000000005
10
-184.05000000000001
20
140.3249999999999
42
-0.41421356237309503
10
-183.50000000000011
20
139.77500000000001
10
-183.49999999999997
20
126.875
42
-0.41421356237309503
10
-184.05000000000001
20
126.32499999999996
10
-196.94999999999999
20
126.325
42
-0.41421356237309503
0
LWPOLYLINE
5
113
100
AcDbEntity
8
0
100
AcDbPolyline
90
8
70
1
43
0.0
10
-178.44999999999999
20
126.875
10
-178.45000000000005
20
139.77500000000001
42
-0.41421356237309503
10
-177.90000000000003
20
140.32500000000005
10
-165
20
140.32500000000002
42
-0.41421356237309503
10
-164.44999999999999
20
139.77500000000001
10
-164.44999999999999
20
126.875
42
-0.41421356237309503
10
-165
20
126.32500000000002
10
-177.90000000000003
20
126.32500000000005
42
-0.41421356237309503
0
LWPOLYLINE
5
114
100
AcDbEntity
8
0
100
AcDbPolyline
90
8
70
1
43
0.0
10
-159.40000000000001
20
126.875
10
-159.39999999999998
20
139.77500000000001
42
-0.41421356237309503
10
-158.84999999999999
20
140.32499999999999
10
-145.94999999999999
20
140.32500000000002
42
-0.41421356237309503
10
-145.39999999999998
20
139.77500000000001
10
-145.40000000000003
20
126.875
42
-0.41421356237309503
10
-145.94999999999999
20
126.32500000000005
10
-158.84999999999999
20
126.32499999999999
42
-0.41421356237309503
0
LWPOLYLINE
5
115
100
AcDbEntity
8
0
100
AcDbPolyline
90
8
70
1
43
0.0
10
-140.34999999999999
20
126.875
10
-140.35000000000002
20
139.77500000000001
42
-0.41421356237309503
10
-139.80000000000001
20
140.32500000000002
10
-126.90000000000001
20
140.32499999999996
42
-0.41421356237309503
10
-126.35000000000005
20
139.77500000000001
10
-126.35000000000005
20
126.875
42
-0.41421356237309503
10
-126.90000000000001
20
126.32500000000005
10
-139.80000000000001
20
126.32500000000002
42
-0.41421356237309503
0
LWPOLYLINE
5
116
100
AcDbEntity
8
0
100
AcDbPolyline
90
8
70
1
43
0.0
10
-121.30000000000001
20
126.875
10
-121.30000000000007
20
139.77500000000001
42
-0.41421356237309503
10
-120.75000000000001
20
140.32500000000005
10
-107.84999999999999
20
140.32499999999999
42
-0.41421356237309503
10
-107.30000000000003
20
139.77500000000001
10
-107.29999999999997
20
126.875
42
-0.41421356237309503
10
-107.84999999999999
20
126.32499999999996
10
-120.75000000000001
20
126.325
42
-0.41421356237309503
0
LWPOLYLINE
5
117
100
AcDbEntity
8
0
100
AcDbPolyline
90
8
70
1
43
0.0
10
-181.47500000000002
20
127.32499977458501
10
-181.47500000000002
20
139.32499987571299
42
-0.41421356237309503
10
-181.125
20
139.67499987571298
10
-180.82499999999999
20
139.67499987571298
42
-0.41421356237309503
10
-180.47499999999999
20
139.32499987571299
10
-180.47499999999999
20
127.32499977458501
42
-0.41421356237309503
10
-180.82499999999999
20
126.974999774585
10
-181.125
20
126.974999774585
42
-0.41421356237309503
0
LWPOLYLINE
5
118
100
AcDbEntity
8
0
100
AcDbPolyline
90
8
70
1
43
0.0
10
-302.27499999999998
20
145.92500000000001
10
-302.27500000000009
20
158.82499999999999
42
-0.41421356237309503
10
-301.72500000000002
20
159.37500000000006
10
-288.82499999999999
20
159.375
42
-0.41421356237309503
10
-288.27499999999998
20
158.82499999999999
10
-288.27499999999998
20
145.92500000000001
42
-0.41421356237309503
10
-288.82499999999999
20
145.37500000000003
10
-301.72500000000002
20
145.37500000000006
42
-0.41421356237309503
0
LWPOLYLINE
5
119
100
AcDbEntity
8
0
100
AcDbPolyline
90
8
70
1
43
0.0
10
-279.75675000000001
20
145.92500000000001
10
-279.7567499999999
20
160.82499999999999
42
-0.41421356237309503
10
-279.20675000000006
20
161.37499999999989
10
-273.30675000000002
20
161.375
42
-0.41421356237309503
10
-272.75675000000001
20
160.82499999999999
10
-272.75675000000001
20
145.92500000000001
42
-0.41421356237309503
10
-273.30675000000002
20
145.37499999999997
10
-279.20675000000006
20
145.375
42
-0.41421356237309503
0
LWPOLYLINE
5
120
100
AcDbEntity
8
0
100
AcDbPolyline
90
8
70
1
43
0.0
10
-271.31875000000002
20
145.92500000000001
10
-271.31875000000014
20
158.82499999999999
42
-0.41421356237309503
10
-270.76875000000001
20
159.37500000000011
10
-257.86874999999998
20
159.37499999999994
42
-0.41421356237309503
10
-257.31875000000008
20
158.82499999999999
10
-257.31875000000008
20
145.92500000000001
42
-0.41421356237309503
10
-257.86874999999998
20
145.37500000000011
10
-270.76875000000001
20
145.37499999999997
42
-0.41421356237309503
0
LWPOLYLINE
5
121
100
AcDbEntity
8
0
100
AcDbPolyline
90
8
70
1
43
0.0
10
-255.88075000000003
20
145.92500000000001
10
-255.88075000000006
20
160.82499999999999
42
-0.41421356237309503
10
-255.33074999999999
20
161.37500000000006
10
-249.43074999999999
20
161.375
42
-0.41421356237309503
10
-248.88075000000001
20
160.82499999999999
10
-248.88074999999986
20
145.92500000000001
42
-0.41421356237309503
10
-249.43074999999999
20
145.37499999999989
10
-255.33074999999999
20
145.37499999999997
42
-0.41421356237309503
0
LWPOLYLINE
5
122
100
AcDbEntity
8
0
100
AcDbPolyline
90
8
70
1
43
0.0
10
-240.36250000000001
20
145.92500000000001
10
-240.36250000000013
20
158.82499999999999
42
-0.41421356237309503
10
-239.81250000000003
20
159.37500000000011
10
-226.91249999999999
20
159.375
42
-0.41421356237309503
10
-226.36250000000001
20
158.82499999999999
10
-226.36250000000001
20
145.92500000000001
42
-0.41421356237309503
10
-226.91249999999999
20
145.375
10
-239.81250000000003
20
145.375
42
-0.41421356237309503
0
LWPOLYLINE
5
123
100
AcDbEntity
8
0
100
AcDbPolyline
90
8
70
1
43
0.0
10
-221.3125
20
145.92500000000001
10
-221.31250000000011
20
158.82499999999999
42
-0.41421356237309503
10
-220.76250000000002
20
159.37500000000011
10
-207.86250000000001
20
159.37499999999997
42
-0.41421356237309503
10
-207.31250000000006
20
158.82499999999999
10
-207.3125
20
145.92500000000001
42
-0.41421356237309503
10
-207.86250000000001
20
145.37499999999997
10
-220.76250000000002
20
145.375
42
-0.41421356237309503
0
LWPOLYLINE
5
124
100
AcDbEntity
8
0
100
AcDbPolyline
90
8
70
1
43
0.0
10
-202.26249999999999
20
145.92500000000001
10
-202.26250000000019
20
158.82499999999999
42
-0.41421356237309503
10
-201.71250000000001
20
159.37500000000017
10
-188.8125
20
159.37500000000003
42
-0.41421356237309503
10
-188.26249999999999
20
158.82499999999999
10
-188.26249999999993
20
145.92500000000001
42
-0.41421356237309503
10
-188.8125
20
145.37499999999997
10
-201.71250000000001
20
145.375
42
-0.41421356237309503
0
LWPOLYLINE
5
125
100
AcDbEntity
8
0
100
AcDbPolyline
90
8
70
1
43
0.0
10
-183.21250000000003
20
145.92500000000001
10
-183.21249999999995
20
158.82499999999999
42
-0.41421356237309503
10
-182.66249999999999
20
159.37499999999997
10
-169.76249999999999
20
159.37499999999997
42
-0.41421356237309503
10
-169.21250000000003
20
158.82499999999999
10
-169.21250000000001
20
145.92500000000001
42
-0.41421356237309503
10
-169.76249999999999
20
145.375
10
-182.66249999999999
20
145.37499999999997
42
-0.41421356237309503
0
LWPOLYLINE
5
126
100
AcDbEntity
8
0
100
AcDbPolyline
90
8
70
1
43
0.0
10
-167.1875
20
146.37499992626999
10
-167.1875
20
158.37500002738801
42
-0.41421356237309503
10
-166.83750000000001
20
158.72500002738801
10
-166.53749999999999
20
158.72500002738801
42
-0.41421356237309503
10
-166.1875
20
158.37500002738801
10
-166.1875
20
146.37499992626999
42
-0.41421356237309503
10
-166.53749999999999
20
146.02499992627
10
-166.83750000000001
20
146.02499992627
42
-0.41421356237309503
0
LWPOLYLINE
5
127
100
AcDbEntity
8
0
100
AcDbPolyline
90
8
70
1
43
0.0
10
-145.11250000000001
20
145.92500000000001
10
-145.1125000000001
20
158.82499999999999
42
-0.41421356237309503
10
-144.5625
20
159.37500000000009
10
-131.66249999999999
20
159.37499999999994
42
-0.41421356237309503
10
-131.11250000000007
20
158.82499999999999
10
-131.11250000000001
20
145.92500000000001
42
-0.41421356237309503
10
-131.66249999999999
20
145.37500000000003
10
-144.5625
20
145.375
42
-0.41421356237309503
0
LWPOLYLINE
5
128
100
AcDbEntity
8
0
100
AcDbPolyline
90
8
70
1
43
0.0
10
-126.06250000000001
20
145.92500000000001
10
-126.06250000000009
20
158.82499999999999
42
-0.41421356237309503
10
-125.51250000000002
20
159.37500000000006
10
-112.61250000000001
20
159.37499999999997
42
-0.41421356237309503
10
-112.06250000000003
20
158.82499999999999
10
-112.06249999999999
20
145.92500000000001
42
-0.41421356237309503
10
-112.61250000000001
20
145.375
10
-125.51250000000002
20
145.375
42
-0.41421356237309503
0
LWPOLYLINE
5
129
100
AcDbEntity
8
0
100
AcDbPolyline
90
8
70
1
43
0.0
10
-110.03749999999999
20
146.37499992627301
10
-110.03749999999999
20
158.37500002739301
42
-0.41421356237309503
10
-109.6875
20
158.72500002739304
10
-109.3875
20
158.72500002739304
42
-0.41421356237309503
10
-109.03750000000001
20
158.37500002739301
10
-109.03750000000001
20
146.37499992627301
42
-0.41421356237309503
10
-109.3875
20
146.02499992627301
10
-109.6875
20
146.02499992627301
42
-0.41421356237309503
0
LWPOLYLINE
5
130
100
AcDbEntity
8
0
100
AcDbPolyline
90
8
70
1
43
0.0
10
-159.6875
20
177.875
10
-159.6875
20
164.97499999999999
42
-0.41421356237309503
10
-160.23750000000004
20
164.42499999999995
10
-173.13749999999999
20
164.42499999999995
42
-0.41421356237309503
10
-173.68750000000003
20
164.97499999999999
10
-173.6875
20
177.875
42
-0.41421356237309503
10
-173.13749999999999
20
178.42500000000001
10
-160.23750000000004
20
178.42500000000004
42
-0.41421356237309503
0
LWPOLYLINE
5
131
100
AcDbEntity
8
0
100
AcDbPolyline
90
8
70
1
43
0.0
10
-238.125
20
123.64999974114902
10
-238.12500000000003
20
123.949999757472
42
-0.41421356237309503
10
-237.77500000000003
20
124.29999975747201
10
-200.375
20
124.29999975747201
42
-0.41421356237309503
10
-200.02500000000001
20
123.949999757472
10
-200.02500000000001
20
123.64999974115001
42
-0.41421356237309503
10
-200.375
20
123.29999974115
10
-237.77500000000003
20
123.29999974115005
42
-0.41421356237226259
0
LWPOLYLINE
5
132
100
AcDbEntity
8
0
100
AcDbPolyline
90
8
70
1
43
0.0
10
-214.31250000000003
20
161.75000004451203
10
-214.31250000000003
20
162.05000006083503
42
-0.41421356237309503
10
-213.96250000000003
20
162.40000006083503
10
-176.5625
20
162.40000006083503
42
-0.41421356237309503
10
-176.21250000000001
20
162.05000006083503
10
-176.21250000000001
20
161.75000004451303
42
-0.41421356237392748
10
-176.5625
20
161.40000004451201
10
-213.96250000000003
20
161.40000004451201
42
-0.41421356237309503
0
LWPOLYLINE
5
133
100
AcDbEntity
8
0
100
AcDbPolyline
90
8
70
1
43
0.0
10
-146.0969258435
20
181.880896924697
10
-127.74692584349999
20
181.88089692469703
42
-0.41421356237309503
10
-127.39692584349999
20
181.53089692469703
10
-127.39692584349999
20
181.230896908375
42
-0.41421356237309503
10
-127.74692584349999
20
180.88089690837501
10
-146.0969258435
20
180.88089690837501
42
-0.41421356237309503
10
-146.4469258435
20
181.230896908375
10
-146.44692584349997
20
181.53089692469703
42
-0.41421356237309503
0
LWPOLYLINE
5
134
100
AcDbEntity
8
0
100
AcDbPolyline
90
8
70
1
43
0.0
10
-85.724999999999994
20
123.64999974115001
10
-85.724999999999994
20
123.94999975747299
42
-0.41421356237309503
10
-85.375
20
124.299999757473
10
-47.975000000000001
20
124.299999757473
42
-0.41421356237309503
10
-47.625
20
123.94999975747299
10
-47.625
20
123.64999974115101
42
-0.41421356237309503
10
-47.975000000000001
20
123.299999741151
10
-85.375
20
123.29999974115
42
-0.41421356237309503
0
LWPOLYLINE
5
135
100
AcDbEntity
8
0
100
AcDbPolyline
90
8
70
1
43
0.0
10
-100.0125
20
161.75000004451203
10
-100.0125000000001
20
162.05000006083503
42
-0.41421356237309503
10
-99.662500000000094
20
162.40000006083503
10
-62.262500000000003
20
162.40000006083503
42
-0.41421356237309503
10
-61.912500000000001
20
162.05000006083503
10
-61.912500000000001
20
161.75000004451203
42
-0.41421356237309503
10
-62.262500000000003
20
161.40000004451201
10
-99.662500000000094
20
161.4000000445121
42
-0.41421356237309503
0
LWPOLYLINE
5
136
100
AcDbEntity
8
0
100
AcDbPolyline
90
8
70
1
43
0.0
10
-79.510934999999904
20
200.39999951374199
10
-79.510935003767557
20
200.34999951428003
42
-0.41421356237309503
10
-79.860934999999898
20
199.99999951804767
10
-148.05000000000001
20
199.99999951428003
42
-0.41421356237309503
10
-148.40000000000001
20
200.34999951428003
10
-148.39999999623237
20
200.39999951374199
42
-0.41421356237309503
10
-148.05000000000001
20
200.74999950997434
10
-79.860934999999913
20
200.74999951374198
42
-0.41421356237310253
0
LWPOLYLINE
5
137
100
AcDbEntity
8
0
100
AcDbPolyline
90
16
70
1
43
0.0
10
-274.67812999813947
20
199.649999521815
10
-274.67813000376771
20
198.87449953016301
42
-0.41421356237309503
10
-275.02812999999998
20
198.52449953393068
10
-281.95000000000005
20
198.52449953016304
42
-0.41421356237306534
10
-282.29999999999995
20
198.87449953016301
10
-282.29999999623226
20
198.89999952988902
42
-0.41421356237309503
10
-281.94999999999999
20
199.24999952612129
10
-276.02812999999998
20
199.249999526121
42
0.41421356237309503
10
-275.67813000376765
20
199.59999952235302
10
-275.67812999623231
20
200.39999951374199
42
-0.41421356237309503
10
-275.32812999999999
20
200.74999950997426
10
-237.63906500000002
20
200.74999951374201
42
-0.41421356237309503
10
-237.28906499999997
20
200.39999951374199
10
-237.28906500376769
20
200.34999951428003
42
-0.41421356237309503
10
-237.63906500000002
20
199.9999995180477
10
-274.32812999999999
20
199.99999951804801
42
0.41421356237309503
0
LWPOLYLINE
5
138
100
AcDbEntity
8
0
100
AcDbPolyline
90
8
70
1
43
0.0
10
-122.04999904000002
20
105.87550177127801
10
-122.04999904376768
20
105.850000531552
42
-0.41421356237309503
10
-122.39999904000001
20
105.50000053531967
10
-182.40000096
20
105.50000053155208
42
-0.41421356237309503
10
-182.75000095999991
20
105.850000531552
10
-182.75000095623221
20
105.87550177127801
42
-0.41421356237309503
10
-182.40000096
20
106.22550176751022
10
-122.39999904000001
20
106.225501771278
42
-0.41421356237309503
0
LWPOLYLINE
5
139
100
AcDbEntity
8
0
100
AcDbPolyline
90
8
70
1
43
0.0
10
-200.25000000000003
20
198.52449953393102
10
-262.32813000000004
20
198.52449953016301
42
-0.41421356237306534
10
-262.67813000000001
20
198.87449953016301
10
-262.67812999623226
20
198.89999952988902
42
-0.41421356237309503
10
-262.32812999999999
20
199.24999952612129
10
-200.25000000000003
20
199.24999952988901
42
-0.41421356237309503
10
-199.90000000000003
20
198.89999952988902
10
-199.90000000376801
20
198.87449953016301
42
-0.41421356237309503
0
LWPOLYLINE
5
140
100
AcDbEntity
8
0
100
AcDbPolyline
90
16
70
1
43
0.0
10
-67.160934999999895
20
200.74999950997403
10
-29.471869999999903
20
200.74999951374198
42
-0.41421356237309503
10
-29.121869999999902
20
200.39999951374199
10
-29.121869999999902
20
199.59999952235302
42
0.41421356237309503
10
-28.771869999999904
20
199.24999952235299
10
-22.849999999999802
20
199.24999952988898
42
-0.41421356237309503
10
-22.499999999999837
20
198.89999952988902
10
-22.500000003767489
20
198.87449953016301
42
-0.41421356237309503
10
-22.849999999999802
20
198.52449953393068
10
-29.7718699999999
20
198.52449953016301
42
-0.41421356237309503
10
-30.121869999999902
20
198.87449953016301
10
-30.121869999999902
20
199.649999521815
42
0.41421356237309503
10
-30.471869999999903
20
199.999999521815
10
-67.160934999999895
20
199.99999951428003
42
-0.41421356237309503
10
-67.510934999999904
20
200.34999951428003
10
-67.510934996231924
20
200.39999951374199
42
-0.41421356237309503
0
LWPOLYLINE
5
141
100
AcDbEntity
8
0
100
AcDbPolyline
90
8
70
1
43
0.0
10
-189.90000000000003
20
198.87449953016301
10
-189.89999999623228
20
198.89999952988902
42
-0.41421356237309503
10
-189.55000000000001
20
199.24999952612129
10
-115.25
20
199.24999952988898
42
-0.41421356237309503
10
-114.90000000000003
20
198.89999952988902
10
-114.90000000376773
20
198.87449953016301
42
-0.41421356237309503
10
-115.25
20
198.52449953393074
10
-189.55000000000001
20
198.52449953016301
42
-0.41421356237309503
0
LWPOLYLINE
5
142
100
AcDbEntity
8
0
100
AcDbPolyline
90
8
70
1
43
0.0
10
-271.65000096
20
106.22550176751
10
-204.59999904
20
106.22550177127808
42
-0.41421356237309503
10
-204.24999903999992
20
105.87550177127801
10
-204.24999904376779
20
105.850000531552
42
-0.41421356237309503
10
-204.59999904
20
105.5000005353198
10
-271.65000096
20
105.500000531552
42
-0.41421356237309503
10
-272.00000096000002
20
105.850000531552
10
-272.00000095623199
20
105.87550177127801
42
-0.41421356237309503
0
LWPOLYLINE
5
143
100
AcDbEntity
8
0
100
AcDbPolyline
90
8
70
1
43
0.0
10
-32.799999039999904
20
105.87550177127801
10
-32.799999043767599
20
105.850000531552
42
-0.41421356237309503
10
-33.149999039999898
20
105.50000053531971
10
-100.20000096000001
20
105.500000531552
42
-0.41421356237309503
10
-100.55000096000001
20
105.850000531552
10
-100.55000095623234
20
105.87550177127801
42
-0.41421356237309503
10
-100.20000096000001
20
106.22550176751034
10
-33.149999039999898
20
106.22550177127799
42
-0.41421356237309503
0
LWPOLYLINE
5
144
100
AcDbEntity
8
0
100
AcDbPolyline
90
8
70
1
43
0.0
10
-224.93906500000003
20
200.74999950997403
10
-156.75000000000003
20
200.74999951374198
42
-0.41421356237310991
10
-156.40000000000001
20
200.39999951374199
10
-156.4000000037677
20
200.34999951428003
42
-0.41421356237309503
10
-156.75
20
199.9999995180477
10
-224.93906499999997
20
199.99999951427998
42
-0.41421356237312473
10
-225.28906500000005
20
200.34999951428003
10
-225.28906499623204
20
200.39999951374199
42
-0.41421356237309503
0
LWPOLYLINE
5
145
100
AcDbEntity
8
0
100
AcDbPolyline
90
8
70
1
43
0.0
10
-104.90000000000002
20
198.87449953016301
10
-104.89999999623235
20
198.89999952988902
42
-0.41421356237309503
10
-104.55
20
199.24999952612137
10
-42.471869999999903
20
199.24999952988901
42
-0.41421356237309503
10
-42.121869999999902
20
198.89999952988902
10
-42.12187000376759
20
198.87449953016301
42
-0.41421356237309503
10
-42.471869999999903
20
198.52449953393068
10
-104.55
20
198.52449953016298
42
-0.41421356237309503
0
LWPOLYLINE
5
146
100
AcDbEntity
8
0
100
AcDbPolyline
90
14
70
1
43
0.0
10
-203.52500000000003
20
183.47499999999999
10
-208.85650000000001
20
183.47500000000008
42
-0.41421356237309503
10
-209.40649999999994
20
184.02500000000001
10
-209.40650000000002
20
196.92500000000001
42
-0.41421356237309503
10
-208.85650000000001
20
197.47500000000002
10
-195.95625000000001
20
197.47499999999997
42
-0.41421356237309503
10
-195.40625000000009
20
196.92500000000001
10
-195.4062500000002
20
184.02500000000001
42
-0.41421356237309503
10
-195.95625000000001
20
183.47500000000019
10
-196.52500000000003
20
183.47499999999999
10
-196.52499999999998
20
182.02500000000001
42
-0.41421356237309503
10
-197.07499999999999
20
181.47499999999997
10
-202.97499999999999
20
181.47500000000005
42
-0.41421356237309503
10
-203.52499999999995
20
182.02500000000001
0
LWPOLYLINE
5
147
100
AcDbEntity
8
0
100
AcDbPolyline
90
8
70
1
43
0.0
10
-217.38749999999999
20
183.47499999999999
10
-232.66900000000004
20
183.47500000000002
42
-0.41421356237309503
10
-233.21899999999999
20
184.02500000000001
10
-233.21899999999997
20
196.92500000000001
42
-0.41421356237309503
10
-232.66900000000004
20
197.47499999999997
10
-217.38749999999999
20
197.47500000000005
42
-0.41421356237309503
10
-216.83749999999998
20
196.92500000000001
10
-216.83750000000001
20
184.02500000000001
42
-0.41421356237309503
0
LWPOLYLINE
5
148
100
AcDbEntity
8
0
100
AcDbPolyline
90
8
70
1
43
0.0
10
-3.0749999999999398
20
107.27500000000001
10
-15.975000000000001
20
107.27499999999998
42
-0.41421356237304185
10
-16.524999999999938
20
107.825
10
-16.524999999999981
20
120.72499999999999
42
-0.41421356237309503
10
-15.975000000000001
20
121.27499999999998
10
-3.07499999999997
20
121.27499999999999
42
-0.41421356237310009
10
-2.5249999999999559
20
120.72499999999999
10
-2.5249999999999528
20
107.825
42
-0.41421356237308971
0
LWPOLYLINE
5
149
100
AcDbEntity
8
0
100
AcDbPolyline
90
8
70
1
43
0.0
10
-7.8374999999999808
20
126.325
10
-20.737500000000001
20
126.32499999999999
42
-0.41421356237309503
10
-21.287500000000016
20
126.875
10
-21.287499999999998
20
139.77500000000001
42
-0.41421356237309503
10
-20.737500000000001
20
140.32500000000002
10
-7.8374999999999817
20
140.32500000000002
42
-0.4142135623731063
10
-7.2874999999999632
20
139.77500000000001
10
-7.287499999999973
20
126.875
42
-0.41421356237310036
0
LWPOLYLINE
5
150
100
AcDbEntity
8
0
100
AcDbPolyline
90
8
70
1
43
0.0
10
-154.92500000000004
20
120.72499999999999
42
0.41421356237309503
10
-155.47499999999999
20
121.27499999999995
10
-168.37500000000003
20
121.27499999999989
42
0.41421356237309503
10
-168.92500000000001
20
120.72499999999999
10
-168.92500000000001
20
107.825
42
0.41421356237309503
10
-168.37500000000003
20
107.27500000000001
10
-155.47499999999999
20
107.27500000000003
42
0.41421356237309503
10
-154.92500000000001
20
107.825
0
LWPOLYLINE
5
151
100
AcDbEntity
8
0
100
AcDbPolyline
90
8
70
1
43
0.0
10
-64.987499999999997
20
164.42499999999995
42
0.41421356237309503
10
-64.437499999999986
20
164.97499999999999
10
-64.4375
20
177.875
42
0.41421356237309503
10
-64.987499999999997
20
178.42500000000001
10
-77.887500000000003
20
178.42500000000001
42
0.41421356237309503
10
-78.4375
20
177.875
10
-78.437499999999986
20
164.97499999999999
42
0.41421356237309503
10
-77.887500000000003
20
164.42500000000001
0
LWPOLYLINE
5
152
100
AcDbEntity
8
0
100
AcDbPolyline
90
8
70
1
43
0.0
10
-68.912499999999994
20
184.02500000000001
10
-68.912499999999994
20
196.92500000000001
42
-0.41421356237309503
10
-68.362499999999997
20
197.47500000000002
10
-53.081250000000004
20
197.47500000000002
42
-0.41421356237309503
10
-52.531250000000007
20
196.92500000000001
10
-52.531250000000007
20
184.02500000000001
42
-0.41421356237309503
10
-53.081250000000004
20
183.47499999999999
10
-68.362499999999997
20
183.47499999999999
42
-0.41421356237309503
0
LWPOLYLINE
5
153
100
AcDbEntity
8
0
100
AcDbPolyline
90
8
70
1
43
0.0
10
-96.937500000000099
20
178.42500000000001
42
0.41421356237309503
10
-97.487500000000082
20
177.875
10
-97.487500000000026
20
164.97499999999997
42
0.41421356237302881
10
-96.937500000000099
20
164.42500000000001
10
-84.037500000000009
20
164.42500000000001
42
0.41421356237309503
10
-83.487500000000011
20
164.97499999999999
10
-83.487500000000026
20
177.875
42
0.41421356237309503
10
-84.037500000000009
20
178.42500000000001
0
LWPOLYLINE
5
154
100
AcDbEntity
8
0
100
AcDbPolyline
90
8
70
1
43
0.0
10
-302.27500000000003
20
164.97499999999999
42
0.41421356237309503
10
-301.72500000000002
20
164.42499999999998
10
-288.82499999999999
20
164.42499999999993
42
0.41421356237309503
10
-288.27499999999998
20
164.97499999999999
10
-288.27499999999998
20
177.875
42
0.41421356237309503
10
-288.82499999999999
20
178.42500000000001
10
-301.72500000000002
20
178.42499999999998
42
0.41421356237309503
10
-302.27499999999998
20
177.875
0
LWPOLYLINE
5
155
100
AcDbEntity
8
0
100
AcDbPolyline
90
8
70
1
43
0.0
10
-149.875
20
107.825
10
-149.87499999999994
20
120.72499999999999
42
-0.41421356237309503
10
-149.32499999999999
20
121.27499999999996
10
-136.42500000000001
20
121.27499999999998
42
-0.41421356237309503
10
-135.87500000000003
20
120.72499999999999
10
-135.875
20
107.825
42
-0.41421356237309503
10
-136.42500000000001
20
107.27499999999999
10
-149.32499999999999
20
107.27499999999999
42
-0.41421356237309503
0
LWPOLYLINE
5
156
100
AcDbEntity
8
0
100
AcDbPolyline
90
8
70
1
43
0.0
10
-92.725000000000094
20
107.825
10
-92.725000000000023
20
120.72499999999999
42
-0.41421356237309503
10
-92.174999999999997
20
121.27500000000003
10
-79.275000000000006
20
121.27500000000001
42
-0.41421356237309503
10
-78.725000000000009
20
120.72499999999999
10
-78.72499999999998
20
107.825
42
-0.41421356237309503
10
-79.275000000000006
20
107.27499999999998
10
-92.174999999999997
20
107.27500000000001
42
-0.41421356237315182
0
LWPOLYLINE
5
157
100
AcDbEntity
8
0
100
AcDbPolyline
90
8
70
1
43
0.0
10
-149.875
20
184.02500000000001
42
0.41421356237309503
10
-149.32499999999999
20
183.47499999999997
10
-124.51875000000001
20
183.47500000000002
42
0.41421356237309503
10
-123.96875000000001
20
184.02500000000001
10
-123.96875000000001
20
196.92500000000001
42
0.41421356237309503
10
-124.51875000000001
20
197.47500000000002
10
-149.32499999999999
20
197.47500000000002
42
0.41421356237309503
10
-149.875
20
196.92500000000001
0
LWPOLYLINE
5
158
100
AcDbEntity
8
0
100
AcDbPolyline
90
8
70
1
43
0.0
10
-21.57500000000001
20
120.72499999999999
42
0.41421356237309503
10
-22.125
20
121.27499999999998
10
-35.024999999999999
20
121.27499999999998
42
0.41421356237309503
10
-35.575000000000003
20
120.72499999999999
10
-35.574999999999932
20
107.825
42
0.41421356237304302
10
-35.024999999999999
20
107.27500000000001
10
-22.125
20
107.27499999999999
42
0.41421356237309503
10
-21.575000000000003
20
107.825
0
LWPOLYLINE
5
159
100
AcDbEntity
8
0
100
AcDbPolyline
90
8
70
1
43
0.0
10
-82.650000000000006
20
140.32499999999999
42
0.41421356237309503
10
-83.199999999999989
20
139.77500000000001
10
-83.199999999999989
20
126.875
42
0.41421356237309503
10
-82.650000000000006
20
126.325
10
-69.75
20
126.32499999999996
42
0.41421356237309503
10
-69.200000000000003
20
126.875
10
-69.199999999999974
20
139.77500000000001
42
0.41421356237309503
10
-69.75
20
140.32499999999999
0
LWPOLYLINE
5
160
100
AcDbEntity
8
0
100
AcDbPolyline
90
8
70
1
43
0.0
10
-14.431250000000013
20
177.875
42
0.41421356237309503
10
-14.981249999999999
20
178.42500000000001
10
-27.881250000000005
20
178.42500000000001
42
0.41421356237309503
10
-28.431250000000002
20
177.875
10
-28.431250000000002
20
164.97499999999999
42
0.41421356237309503
10
-27.881250000000005
20
164.42500000000001
10
-14.981249999999999
20
164.42499999999998
42
0.41421356237309503
10
-14.431250000000002
20
164.97499999999999
0
LWPOLYLINE
5
161
100
AcDbEntity
8
0
100
AcDbPolyline
90
8
70
1
43
0.0
10
-269.22500000000002
20
196.92500000000001
42
0.41421356237309503
10
-269.77499999999998
20
197.47500000000002
10
-282.67500000000001
20
197.47499999999999
42
0.41421356237309503
10
-283.22500000000002
20
196.92500000000001
10
-283.22499999999997
20
184.02500000000001
42
0.41421356237309503
10
-282.67500000000001
20
183.47499999999999
10
-269.77499999999998
20
183.47499999999999
42
0.41421356237309503
10
-269.22500000000002
20
184.02500000000001
0
LWPOLYLINE
5
162
100
AcDbEntity
8
0
100
AcDbPolyline
90
8
70
1
43
0.0
10
-40.624999999999986
20
120.72499999999999
42
0.41421356237309503
10
-41.174999999999997
20
121.27500000000001
10
-54.075000000000003
20
121.27499999999999
42
0.41421356237309503
10
-54.625
20
120.72499999999999
10
-54.625
20
107.825
42
0.41421356237309503
10
-54.075000000000003
20
107.27500000000001
10
-41.174999999999997
20
107.27499999999995
42
0.41421356237309503
10
-40.625
20
107.825
0
LWPOLYLINE
5
163
100
AcDbEntity
8
0
100
AcDbPolyline
90
8
70
1
43
0.0
10
-302.27499999999998
20
107.825
10
-302.27500000000003
20
120.72499999999999
42
-0.41421356237309503
10
-301.72500000000002
20
121.27499999999999
10
-288.82499999999999
20
121.27499999999996
42
-0.41421356237309503
10
-288.27500000000003
20
120.72499999999999
10
-288.27500000000003
20
107.825
42
-0.41421356237309503
10
-288.82499999999999
20
107.27500000000005
10
-301.72500000000002
20
107.27500000000005
42
-0.41421356237309503
0
LWPOLYLINE
5
164
100
AcDbEntity
8
0
100
AcDbPolyline
90
8
70
1
43
0.0
10
-29.268750000000004
20
183.47499999999999
42
0.41421356237309503
10
-28.718750000000011
20
184.02500000000001
10
-28.718750000000011
20
196.92500000000001
42
0.41421356237309503
10
-29.268750000000004
20
197.47500000000002
10
-44.549999999999997
20
197.47500000000002
42
0.41421356237309503
10
-45.100000000000009
20
196.92500000000001
10
-45.100000000000016
20
184.02500000000001
42
0.41421356237309503
10
-44.549999999999997
20
183.47499999999999
0
LWPOLYLINE
5
165
100
AcDbEntity
8
0
100
AcDbPolyline
90
8
70
1
43
0.0
10
-250.17500000000007
20
196.92500000000001
42
0.41421356237309503
10
-250.72500000000002
20
197.47499999999999
10
-263.625
20
197.47500000000005
42
0.41421356237309503
10
-264.17500000000007
20
196.92500000000001
10
-264.17500000000007
20
184.02500000000001
42
0.41421356237309503
10
-263.625
20
183.47499999999999
10
-250.72500000000002
20
183.47500000000002
42
0.41421356237309503
10
-250.17500000000001
20
184.02500000000001
0
LWPOLYLINE
5
166
100
AcDbEntity
8
0
100
AcDbPolyline
90
8
70
1
43
0.0
10
-102.53749999999999
20
177.875
10
-102.53750000000005
20
164.97499999999999
42
-0.41421356237309503
10
-103.08750000000002
20
164.42500000000001
10
-115.98750000000001
20
164.42499999999995
42
-0.41421356237309503
10
-116.53750000000004
20
164.97499999999999
10
-116.53749999999997
20
177.875
42
-0.41421356237309503
10
-115.98750000000001
20
178.42499999999998
10
-103.08750000000002
20
178.42500000000001
42
-0.41421356237309503
0
LWPOLYLINE
5
167
100
AcDbEntity
8
0
100
AcDbPolyline
90
8
70
1
43
0.0
10
-50.700000000000003
20
126.325
10
-63.600000000000001
20
126.32499999999999
42
-0.41421356237309503
10
-64.15000000000002
20
126.875
10
-64.150000000000034
20
139.77500000000001
42
-0.41421356237309503
10
-63.600000000000001
20
140.32500000000005
10
-50.700000000000003
20
140.32499999999999
42
-0.41421356237309503
10
-50.150000000000034
20
139.77500000000001
10
-50.150000000000006
20
126.875
42
-0.41421356237309503
0
LWPOLYLINE
5
168
100
AcDbEntity
8
0
100
AcDbPolyline
90
8
70
1
43
0.0
10
-98.325000000000017
20
107.27500000000003
42
0.41421356237309503
10
-97.775000000000034
20
107.825
10
-97.775000000000034
20
120.72499999999999
42
0.41421356237304774
10
-98.325000000000017
20
121.27500000000001
10
-111.22500000000001
20
121.27500000000001
42
0.41421356237309503
10
-111.77500000000002
20
120.72499999999999
10
-111.77499999999992
20
107.825
42
0.41421356237309503
10
-111.22500000000001
20
107.27500000000001
0
LWPOLYLINE
5
169
100
AcDbEntity
8
0
100
AcDbPolyline
90
8
70
1
43
0.0
10
-5.9932499999999997
20
179.875
10
-5.9932499999999838
20
164.97499999999999
42
-0.41421356237310569
10
-6.5432500000000005
20
164.42499999999998
10
-12.443250000000001
20
164.42499999999998
42
-0.41421356237309503
10
-12.993249999999994
20
164.97499999999999
10
-12.993249999999998
20
179.875
42
-0.41421356237309503
10
-12.443250000000001
20
180.42500000000001
10
-6.5432500000000005
20
180.42500000000001
42
-0.41421356237310036
0
LWPOLYLINE
5
170
100
AcDbEntity
8
0
100
AcDbPolyline
90
8
70
1
43
0.0
10
-177.46875000000014
20
196.92500000000001
42
0.41421356237309503
10
-178.01875000000001
20
197.47499999999991
10
-183.91874999999999
20
197.47500000000002
42
0.41421356237309503
10
-184.46875000000003
20
196.92500000000001
10
-184.46875000000003
20
182.02500000000001
42
0.41421356237309503
10
-183.91874999999999
20
181.47500000000002
10
-178.01875000000001
20
181.47500000000008
42
0.41421356237309503
10
-177.46875
20
182.02500000000001
0
LWPOLYLINE
5
171
100
AcDbEntity
8
0
100
AcDbPolyline
90
8
70
1
43
0.0
10
-31.100000000000001
20
139.77500000000001
10
-31.099999999999987
20
126.875
42
-0.41421356237309503
10
-31.649999999999999
20
126.32499999999999
10
-44.549999999999997
20
126.32499999999996
42
-0.41421356237309503
10
-45.100000000000023
20
126.875
10
-45.100000000000016
20
139.77500000000001
42
-0.41421356237309503
10
-44.549999999999997
20
140.32500000000002
10
-31.649999999999999
20
140.32500000000002
42
-0.41421356237309503
0
LWPOLYLINE
5
172
100
AcDbEntity
8
0
100
AcDbPolyline
90
8
70
1
43
0.0
10
-23.118750000000002
20
159.375
42
0.41421356237309503
10
-23.668749999999996
20
158.82499999999999
10
-23.668750000000024
20
145.92500000000001
42
0.41421356237309503
10
-23.118750000000002
20
145.375
10
-5.4562499999999803
20
145.375
42
0.41421356237308971
10
-4.9062499999999796
20
145.92500000000001
10
-4.9062499999999813
20
158.82499999999999
42
0.41421356237310569
10
-5.4562499999999803
20
159.375
0
LWPOLYLINE
5
173
100
AcDbEntity
8
0
100
AcDbPolyline
90
8
70
1
43
0.0
10
-21.287500000000001
20
184.02500000000001
10
-21.287499999999998
20
196.92500000000001
42
-0.41421356237309503
10
-20.737500000000001
20
197.47500000000002
10
-5.4562500000000114
20
197.47500000000002
42
-0.41421356237310097
10
-4.9062500000000036
20
196.92500000000001
10
-4.9062500000000036
20
184.02500000000001
42
-0.41421356237310036
10
-5.4562500000000105
20
183.47499999999999
10
-20.737500000000001
20
183.47499999999999
42
-0.41421356237309503
0
LWPOLYLINE
5
174
100
AcDbEntity
8
0
100
AcDbPolyline
90
8
70
1
43
0.0
10
-207.02499999999998
20
107.825
42
0.41421356237309503
10
-206.47500000000002
20
107.27500000000005
10
-193.57500000000002
20
107.27500000000006
42
0.41421356237309503
10
-193.02500000000003
20
107.825
10
-193.02500000000006
20
120.72499999999999
42
0.41421356237309503
10
-193.57500000000002
20
121.27500000000001
10
-206.47500000000002
20
121.27499999999996
42
0.41421356237309503
10
-207.02500000000001
20
120.72499999999999
0
LWPOLYLINE
5
175
100
AcDbEntity
8
0
100
AcDbPolyline
90
20
70
1
43
0.0
10
-251.262
20
121.27500000000001
10
-250.72500000000002
20
121.27499999999999
42
-0.41421356237309503
10
-250.17500000000001
20
120.72499999999999
10
-250.17499999999998
20
107.825
42
-0.41421356237309503
10
-250.72500000000002
20
107.27499999999998
10
-282.67500000000001
20
107.27499999999998
42
-0.41421356237309503
10
-283.22500000000002
20
107.825
10
-283.22500000000002
20
120.72499999999999
42
-0.41421356237309503
10
-282.67500000000001
20
121.27500000000003
10
-282.13799999999998
20
121.27500000000001
10
-282.13800000000003
20
122.72500000000001
42
-0.41421356237309503
10
-281.58800000000002
20
123.27500000000001
10
-275.68799999999999
20
123.27499999999998
42
-0.41421356237309503
10
-275.13800000000003
20
122.72500000000001
10
-275.13799999999998
20
121.27500000000001
10
-258.262
20
121.27500000000001
10
-258.26200000000006
20
122.72500000000001
42
-0.41421356237309503
10
-257.71199999999999
20
123.27500000000008
10
-251.81200000000004
20
123.27499999999998
42
-0.41421356237309503
10
-251.26200000000009
20
122.72500000000001
0
LWPOLYLINE
5
176
100
AcDbEntity
8
0
100
AcDbPolyline
90
8
70
1
43
0.0
10
-244.57499999999999
20
121.27500000000001
10
-231.67500000000004
20
121.27500000000011
42
-0.41421356237309503
10
-231.12499999999994
20
120.72499999999999
10
-231.12500000000009
20
107.825
42
-0.41421356237309503
10
-231.67500000000004
20
107.27500000000005
10
-244.57499999999999
20
107.27499999999993
42
-0.41421356237309503
10
-245.12500000000006
20
107.825
10
-245.12500000000003
20
120.72499999999999
42
-0.41421356237309503
0
LWPOLYLINE
5
177
100
AcDbEntity
8
0
100
AcDbPolyline
90
8
70
1
43
0.0
10
-226.07500000000002
20
107.825
10
-226.07499999999999
20
120.72499999999999
42
-0.41421356237309503
10
-225.52500000000003
20
121.27499999999996
10
-212.62500000000003
20
121.27500000000006
42
-0.41421356237309503
10
-212.07499999999996
20
120.72499999999999
10
-212.07499999999996
20
107.825
42
-0.41421356237309503
10
-212.62500000000003
20
107.27499999999992
10
-225.52500000000003
20
107.27500000000001
42
-0.41421356237309503
0
LWPOLYLINE
5
178
100
AcDbEntity
8
0
100
AcDbPolyline
90
8
70
1
43
0.0
10
-68.362499999999997
20
159.375
10
-55.462500000000006
20
159.375
42
-0.41421356237309503
10
-54.912500000000009
20
158.82499999999999
10
-54.912499999999973
20
145.92500000000001
42
-0.41421356237309503
10
-55.462500000000006
20
145.37499999999997
10
-68.362499999999997
20
145.375
42
-0.41421356237309503
10
-68.912499999999994
20
145.92500000000001
10
-68.912499999999994
20
158.82499999999999
42
-0.41421356237309503
0
LWPOLYLINE
5
179
100
AcDbEntity
8
0
100
AcDbPolyline
90
8
70
1
43
0.0
10
-45.9375
20
164.42500000000001
10
-58.837499999999999
20
164.42499999999998
42
-0.41421356237309503
10
-59.387499999999996
20
164.97499999999999
10
-59.387499999999996
20
177.875
42
-0.41421356237309503
10
-58.837499999999999
20
178.42500000000001
10
-45.9375
20
178.42500000000001
42
-0.41421356237309503
10
-45.387499999999996
20
177.875
10
-45.387500000000038
20
164.97499999999999
42
-0.41421356237309503
0
LWPOLYLINE
5
180
100
AcDbEntity
8
0
100
AcDbPolyline
90
8
70
1
43
0.0
10
-88.674999999999997
20
197.47499999999999
42
0.41421356237309503
10
-89.22499999999998
20
196.92500000000001
10
-89.22499999999998
20
182.02500000000001
42
0.41421356237309503
10
-88.674999999999997
20
181.47500000000002
10
-78.018749999999997
20
181.47499999999997
42
0.41421356237309503
10
-77.46875
20
182.02500000000001
10
-77.468750000000014
20
196.92500000000001
42
0.41421356237309503
10
-78.018749999999997
20
197.47500000000002
0
LWPOLYLINE
5
181
100
AcDbEntity
8
0
100
AcDbPolyline
90
8
70
1
43
0.0
10
-87.962500000000006
20
145.92500000000001
10
-87.962500000000006
20
158.82499999999999
42
-0.4142135623730383
10
-87.412500000000094
20
159.37500000000003
10
-74.512500000000003
20
159.375
42
-0.41421356237309503
10
-73.962500000000006
20
158.82499999999999
10
-73.962499999999991
20
145.92500000000001
42
-0.41421356237309503
10
-74.512500000000003
20
145.375
10
-87.412500000000094
20
145.375
42
-0.4142135623730383
0
LWPOLYLINE
5
182
100
AcDbEntity
8
0
100
AcDbPolyline
90
8
70
1
43
0.0
10
-302.27499999999998
20
184.02500000000001
42
0.41421356237309503
10
-301.72500000000002
20
183.47500000000008
10
-288.82499999999999
20
183.47499999999997
42
0.41421356237309503
10
-288.27499999999998
20
184.02500000000001
10
-288.27499999999998
20
196.92500000000001
42
0.41421356237309503
10
-288.82499999999999
20
197.47500000000002
10
-301.72500000000002
20
197.47499999999999
42
0.41421356237309503
10
-302.27499999999998
20
196.92500000000001
0
LWPOLYLINE
5
183
100
AcDbEntity
8
0
100
AcDbPolyline
90
8
70
1
43
0.0
10
-35.862499999999997
20
158.82499999999999
10
-35.862500000000004
20
145.92500000000001
42
-0.41421356237309503
10
-36.412500000000001
20
145.375
10
-49.3125
20
145.375
42
-0.41421356237309503
10
-49.86249999999999
20
145.92500000000001
10
-49.862499999999983
20
158.82499999999999
42
-0.41421356237309503
10
-49.3125
20
159.37499999999997
10
-36.412500000000001
20
159.375
42
-0.41421356237309503
0
LWPOLYLINE
5
184
100
AcDbEntity
8
0
100
AcDbPolyline
90
8
70
1
43
0.0
10
-174.52500000000001
20
107.27500000000006
42
0.41421356237309503
10
-173.97500000000005
20
107.825
10
-173.97500000000005
20
120.72499999999999
42
0.41421356237309503
10
-174.52500000000001
20
121.27500000000001
10
-187.42500000000004
20
121.27499999999998
42
0.41421356237309503
10
-187.97499999999999
20
120.72499999999999
10
-187.97500000000002
20
107.825
42
0.41421356237309503
10
-187.42500000000004
20
107.27500000000001
0
LWPOLYLINE
5
185
100
AcDbEntity
8
0
100
AcDbPolyline
90
8
70
1
43
0.0
10
-29.869250000000008
20
179.875
42
0.41421356237309503
10
-30.419250000000005
20
180.42500000000001
10
-36.319249999999997
20
180.42500000000001
42
0.41421356237309503
10
-36.869250000000008
20
179.875
10
-36.869249999999973
20
164.97499999999999
42
0.41421356237309503
10
-36.319249999999997
20
164.42500000000001
10
-30.419250000000005
20
164.42499999999998
42
0.41421356237309503
10
-29.869250000000001
20
164.97499999999999
0
LWPOLYLINE
5
186
100
AcDbEntity
8
0
100
AcDbPolyline
90
8
70
1
43
0.0
10
-73.125
20
121.27500000000001
10
-60.225000000000009
20
121.27499999999998
42
-0.41421356237309503
10
-59.675000000000018
20
120.72499999999999
10
-59.674999999999976
20
107.825
42
-0.41421356237309503
10
-60.225000000000009
20
107.27499999999998
10
-73.125
20
107.27499999999995
42
-0.41421356237309503
10
-73.675000000000054
20
107.825
10
-73.675000000000011
20
120.72499999999999
42
-0.41421356237309503
0
LWPOLYLINE
5
187
100
AcDbEntity
8
0
100
AcDbPolyline
90
8
70
1
43
0.0
10
-116.82500000000002
20
120.72499999999999
10
-116.82499999999999
20
107.825
42
-0.41421356237309503
10
-117.375
20
107.27499999999999
10
-130.27500000000001
20
107.27500000000001
42
-0.41421356237309503
10
-130.82500000000002
20
107.825
10
-130.82500000000005
20
120.72499999999999
42
-0.41421356237309503
10
-130.27500000000001
20
121.27500000000001
10
-117.375
20
121.27499999999999
42
-0.41421356237309503
0
LWPOLYLINE
5
188
100
AcDbEntity
8
0
100
AcDbPolyline
90
8
70
1
43
0.0
10
-93.562500000000099
20
145.37499999999997
42
0.41421356237309503
10
-93.012500000000045
20
145.92500000000001
10
-93.012500000000045
20
158.82499999999999
42
0.41421356237309503
10
-93.562500000000099
20
159.375
10
-106.46250000000002
20
159.37499999999997
42
0.41421356237309503
10
-107.01250000000002
20
158.82499999999999
10
-107.0125
20
145.92500000000001
42
0.41421356237309503
10
-106.46250000000002
20
145.375
0
LWPOLYLINE
5
189
100
AcDbEntity
8
0
100
AcDbPolyline
90
8
70
1
43
0.0
10
-102.25000000000001
20
126.875
10
-102.25000000000006
20
139.77500000000001
42
-0.41421356237309503
10
-101.70000000000002
20
140.32500000000005
10
-88.800000000000097
20
140.32499999999999
42
-0.41421356237314239
10
-88.250000000000028
20
139.77500000000001
10
-88.250000000000028
20
126.875
42
-0.41421356237309503
10
-88.800000000000011
20
126.32500000000002
10
-101.70000000000002
20
126.325
42
-0.41421356237309503
0
LWPOLYLINE
5
190
100
AcDbEntity
8
0
100
AcDbPolyline
90
8
70
1
43
0.0
10
-269.22500000000002
20
177.875
10
-269.22500000000002
20
164.97499999999999
42
-0.41421356237309503
10
-269.77499999999998
20
164.42499999999998
10
-282.67500000000001
20
164.42499999999993
42
-0.41421356237309503
10
-283.22500000000008
20
164.97499999999999
10
-283.22500000000008
20
177.875
42
-0.41421356237309503
10
-282.67500000000001
20
178.42500000000007
10
-269.77499999999998
20
178.42499999999998
42
-0.41421356237309503
0
LWPOLYLINE
5
191
100
AcDbEntity
8
0
100
AcDbPolyline
90
8
70
1
43
0.0
10
-243.03125
20
177.875
10
-243.03125
20
164.97499999999999
42
-0.41421356237309503
10
-243.58125000000001
20
164.42499999999998
10
-256.48124999999999
20
164.42499999999998
42
-0.41421356237309503
10
-257.03125
20
164.97499999999999
10
-257.03125
20
177.875
42
-0.41421356237309503
10
-256.48124999999999
20
178.42500000000001
10
-243.58125000000001
20
178.42500000000001
42
-0.41421356237309503
0
LWPOLYLINE
5
192
100
AcDbEntity
8
0
100
AcDbPolyline
90
8
70
1
43
0.0
10
-216.83750000000003
20
177.875
10
-216.83749999999992
20
164.97499999999999
42
-0.41421356237309503
10
-217.38749999999999
20
164.42499999999993
10
-230.28750000000002
20
164.42500000000001
42
-0.41421356237309503
10
-230.83749999999998
20
164.97499999999999
10
-230.83749999999998
20
177.875
42
-0.41421356237309503
10
-230.28750000000002
20
178.42499999999998
10
-217.38749999999999
20
178.42499999999998
42
-0.41421356237309503
0
LWPOLYLINE
5
193
100
AcDbEntity
8
0
100
AcDbPolyline
90
8
70
1
43
0.0
10
-197.78750000000002
20
177.875
10
-197.78749999999997
20
164.97499999999999
42
-0.41421356237309503
10
-198.33750000000003
20
164.42499999999993
10
-211.23750000000001
20
164.42499999999998
42
-0.41421356237309503
10
-211.78750000000002
20
164.97499999999999
10
-211.78749999999994
20
177.875
42
-0.41421356237309503
10
-211.23750000000001
20
178.42499999999995
10
-198.33750000000003
20
178.42500000000001
42
-0.41421356237309503
0
LWPOLYLINE
5
194
100
AcDbEntity
8
0
100
AcDbPolyline
90
8
70
1
43
0.0
10
-178.73750000000001
20
177.875
10
-178.7374999999999
20
164.97499999999999
42
-0.41421356237309503
10
-179.28750000000002
20
164.4249999999999
10
-192.1875
20
164.42499999999995
42
-0.41421356237309503
10
-192.73750000000004
20
164.97499999999999
10
-192.73750000000001
20
177.875
42
-0.41421356237309503
10
-192.1875
20
178.42500000000001
10
-179.28750000000002
20
178.42500000000001
42
-0.41421356237309503
0
LWPOLYLINE
5
195
100
AcDbEntity
8
0
100
AcDbPolyline
90
8
70
1
43
0.0
10
-121.58750000000001
20
177.875
10
-121.58750000000001
20
164.97499999999999
42
-0.41421356237309503
10
-122.13750000000002
20
164.42499999999998
10
-135.03749999999999
20
164.42499999999995
42
-0.41421356237309503
10
-135.58750000000001
20
164.97499999999999
10
-135.58750000000001
20
177.875
42
-0.41421356237309503
10
-135.03749999999999
20
178.42500000000001
10
-122.13750000000002
20
178.42500000000001
42
-0.41421356237309503
0
LWPOLYLINE
5
196
100
AcDbEntity
8
0
100
AcDbPolyline
90
8
70
1
43
0.0
10
-156.66249999999999
20
177.42500017906704
10
-156.66249999999999
20
165.42500007795701
42
-0.41421356237309503
10
-157.01249999999999
20
165.07500007795701
10
-157.3125
20
165.07500007795701
42
-0.41421356237309503
10
-157.66250000000002
20
165.42500007795701
10
-157.66250000000002
20
177.42500017906704
42
-0.41421356237309503
10
-157.3125
20
177.77500017906704
10
-157.01249999999999
20
177.77500017906704
42
-0.41421356237309503
0
LWPOLYLINE
5
197
100
AcDbEntity
8
0
100
AcDbPolyline
90
8
70
1
43
0.0
10
-140.63749999999999
20
177.875
10
-140.63750000000002
20
164.97499999999999
42
-0.41421356237309503
10
-141.1875
20
164.42499999999998
10
-154.08750000000001
20
164.42499999999995
42
-0.41421356237309503
10
-154.63750000000007
20
164.97499999999999
10
-154.63750000000005
20
177.875
42
-0.41421356237309503
10
-154.08750000000001
20
178.42500000000004
10
-141.1875
20
178.42500000000001
42
-0.41421356237309503
0
LWPOLYLINE
5
198
100
AcDbEntity
8
0
100
AcDbPolyline
90
8
70
1
43
0.0
10
-119.21250000000001
20
177.775000179074
10
-118.91249999999999
20
177.775000179074
42
-0.41421356237309503
10
-118.5625
20
177.425000179074
10
-118.5625
20
165.425000077954
42
-0.41421356237309503
10
-118.91249999999999
20
165.075000077954
10
-119.21250000000001
20
165.075000077954
42
-0.41421356237309503
10
-119.5625
20
165.425000077954
10
-119.5625
20
177.425000179074
42
-0.41421356237309503
0
LWPOLYLINE
5
199
100
AcDbEntity
8
0
100
AcDbPolyline
90
8
70
1
43
0.0
10
-164.16250000000002
20
145.92500000000001
10
-164.16250000000002
20
158.82499999999999
42
-0.41421356237309503
10
-163.61250000000001
20
159.375
10
-150.71250000000001
20
159.37499999999989
42
-0.41421356237309503
10
-150.16250000000011
20
158.82499999999999
10
-150.16249999999999
20
145.92500000000001
42
-0.41421356237309503
10
-150.71250000000001
20
145.375
10
-163.61250000000001
20
145.375
42
-0.41421356237309503
0
LWPOLYLINE
5
200
100
AcDbEntity
8
0
100
AcDbPolyline
90
8
70
1
43
0.0
10
-105.27500000000002
20
127.324999774592
10
-105.27500000000001
20
139.32499987571299
42
-0.41421356237309503
10
-104.925
20
139.67499987571298
10
-104.625
20
139.67499987571298
42
-0.41421356237309503
10
-104.27500000000001
20
139.32499987571299
10
-104.27500000000001
20
127.324999774592
42
-0.41421356237309503
10
-104.625
20
126.97499977459201
10
-104.925
20
126.97499977459199
42
-0.41421356237309503
0
LWPOLYLINE
5
201
100
AcDbEntity
8
0
100
AcDbPolyline
90
52
70
1
43
0.0
10
-296.406153989968
20
99.949231012787223
42
0.53518364392258633
10
-296.60000027146305
20
99.400000361950475
42
0.2360680969127654
10
-295.80000000000001
20
98.999999999999787
10
-206.78242080301104
20
98.999999999999801
42
0.35433971334437275
10
-205.80411009738813
20
99.792857142856718
42
-0.81043490406560059
10
-200.91255656927791
20
99.792857142856931
42
0.35433971334435466
10
-199.93424586365603
20
98.999999999999844
10
-104.86575413634399
20
98.999999999999801
42
0.35433971334437553
10
-103.88744343072213
20
99.792857142856931
42
-0.81043490406561092
10
-98.995889902611879
20
99.792857142856874
42
0.35433971334438524
10
-98.017579196989601
20
98.999999999999787
10
-8.999999999999968
20
98.999999999999915
42
0.23606785090276006
10
-8.2000002877947082
20
99.39999961627359
42
0.53518388091702218
10
-8.3938463073365792
20
99.949230511281527
42
-0.80553090208111233
10
-8.2871794871794862
20
103.07401620302801
42
0.36229161877138627
10
-8.0000000000000266
20
103.418332312394
10
-8.0000000000000515
20
104.40000000000001
42
-0.41421356237309503
10
-7.6500000000000501
20
104.75000000000001
10
-0.99999999999993872
20
104.75000000000001
42
0.41421356237309404
10
5.440092820663267e-14
20
105.75000000000001
10
6.9388939039072284e-16
20
199.00000000000003
42
0.41421356237307411
10
-1
20
200.00000000000003
10
-26.771870000000103
20
199.99999999999997
42
-0.41421356237313223
10
-27.121870000000104
20
200.34999999999999
10
-27.121870000000104
20
201.33166497582403
42
0.36229161877124977
10
-27.409049487179509
20
201.67598108519007
42
-0.80553127469695474
10
-27.515714905557964
20
204.80076713294326
42
0.53518276281021049
10
-27.321867659459947
20
205.34999687926674
42
0.23606900707526968
10
-28.121870000000104
20
205.75000000000003
10
-98.017579196989715
20
205.75000000000003
42
0.35433971334436865
10
-98.995889902611879
20
204.957142857143
42
-0.81043490406564489
10
-103.88744343072213
20
204.957142857143
42
0.35433971334434372
10
-104.86575413634399
20
205.75000000000006
10
-199.93424586365603
20
205.75000000000003
42
0.35433971334434616
10
-200.91255656927893
20
204.9571428571432
42
-0.81043490406566809
10
-205.80411009738913
20
204.95714285714297
42
0.35433971334434183
10
-206.78242080301104
20
205.75000000000006
10
-276.67813000000001
20
205.75000000000003
42
0.23606900787226351
10
-277.47813234235218
20
205.34999687685112
42
0.53518276203966819
10
-277.28428509540811
20
204.80076713131962
42
-0.80553127495397137
10
-277.39095051282095
20
201.67598108332089
42
0.36229161877109861
10
-277.67813000000001
20
201.33166497395501
10
-277.67813000000007
20
200.34999999999999
42
-0.41421356237324369
10
-278.02813000000003
20
200.00000000000003
10
-303.80000000000001
20
200
42
0.41421356237307422
10
-304.80000000000007
20
199.00000000000003
10
-304.80000000000007
20
105.75000000000001
42
0.41421356237308982
10
-303.80000000000001
20
104.75000000000001
10
-297.14999999999998
20
104.75000000000001
42
-0.41421356237309503
10
-296.80000000000001
20
104.40000000000001
10
-296.80000000000001
20
103.418332891755
42
0.36229161956449762
10
-296.51282051185484
20
103.07401678221325
42
-0.80553098369688703
0
LWPOLYLINE
5
202
100
AcDbEntity
8
0
100
AcDbPolyline
90
8
70
1
43
0.0
10
-175.44399999999999
20
190.32499999999999
10
-175.44399999999999
20
190.625
42
-0.41421356237309503
10
-175.09399999999999
20
190.97499999999999
10
-152.25
20
190.97499999999999
42
-0.41421356237309503
10
-151.90000000000001
20
190.625
10
-151.90000000000001
20
190.32499999999999
42
-0.41421356237309503
10
-152.25
20
189.97499999999999
10
-175.09399999999999
20
189.97499999999999
42
-0.41421356237309503
0
LWPOLYLINE
5
203
100
AcDbEntity
8
0
100
AcDbPolyline
90
8
70
1
43
0.0
10
-91.599750000000014
20
189.97499999999999
10
-121.59375
20
189.97499999999999
42
-0.41421356237309503
10
-121.94375000000001
20
190.32499999999999
10
-121.94375000000001
20
190.625
42
-0.41421356237309503
10
-121.59375
20
190.97499999999999
10
-91.599750000000014
20
190.97499999999999
42
-0.41421356237309503
10
-91.249750000000006
20
190.625
10
-91.249750000000006
20
190.32499999999999
42
-0.41421356237309503
0
LWPOLYLINE
5
204
100
AcDbEntity
8
0
100
AcDbPolyline
90
10
70
1
43
0.0
10
-189.55904605459122
20
104.75000054339331
42
3.4279039422604742
10
-191.44095394541074
20
104.75000054339331
10
-225.27500000000003
20
104.75000054339336
42
0.41421356237303558
10
-225.62499999809279
20
104.40000054716101
10
-225.62500000000006
20
104.35000054769901
42
0.41421356237313967
10
-225.27500000000003
20
104.00000054955966
10
-156.75
20
104.00000055146674
42
0.41421356237309503
10
-156.40000000186058
20
104.35000054769901
10
-156.39999999999998
20
104.40000054716101
42
0.41421356237313967
10
-156.75000000000003
20
104.75000054530035
0
LWPOLYLINE
5
205
100
AcDbEntity
8
0
100
AcDbPolyline
90
10
70
1
43
0.0
10
-113.35904605459122
20
104.75000054339333
42
3.4279039422603583
10
-115.24095394541081
20
104.75000054339333
10
-148.05000000000001
20
104.75000054339331
42
0.41421356237312473
10
-148.3999999980928
20
104.40000054716101
10
-148.40000000000003
20
104.35000054769901
42
0.41421356237310991
10
-148.05000000000001
20
104.00000054955967
10
-79.524999999999906
20
104.00000055146671
42
0.41421356237311735
10
-79.175000001907009
20
104.35000054769901
10
-79.174999999999912
20
104.40000054716101
42
0.41421356237307272
10
-79.524999999999906
20
104.75000054530034
0
LWPOLYLINE
5
206
100
AcDbEntity
8
0
100
AcDbPolyline
90
14
70
1
43
0.0
10
-287.34252797906481
20
105.50000053531967
42
0.14490959412822171
10
-286.69095309700094
20
104.75000000234709
10
-286.69095309700094
20
104.35000054769901
42
0.41421356237308021
10
-286.34095309700103
20
104.00000054955969
10
-250.97499999999999
20
104.00000055146677
42
0.41421356237308021
10
-250.62500000190724
20
104.35000054769901
10
-250.62500000000006
20
104.40000054716101
42
0.41421356237315454
10
-250.97499999999999
20
104.75000054530031
10
-284.80904605459051
20
104.75000054339377
42
1.6887808047264994
10
-287.49999903999998
20
106.22550176751
10
-289.690953097001
20
106.22550176751031
42
0.41421356237316936
10
-290.04095309509381
20
105.87550177127801
10
-290.04095309700097
20
105.850000531552
42
0.41421356237302071
10
-289.69095309700106
20
105.50000053341272
0
LWPOLYLINE
5
207
100
AcDbEntity
8
0
100
AcDbPolyline
90
14
70
1
43
0.0
10
-18.109046902996702
20
104.75000000234969
42
0.14490959412759105
10
-17.457472020936816
20
105.50000053531997
10
-15.109046902996901
20
105.50000053531969
42
0.41421356237306717
10
-14.759046904903999
20
105.850000531552
10
-14.7590469029969
20
105.87550177127801
42
0.41421356237308948
10
-15.109046902996901
20
106.22550176941735
10
-17.30000096000078
20
106.22550176751
42
1.6887808047270338
10
-19.990953945410599
20
104.75000054339301
10
-53.824999999999903
20
104.75000054339333
42
0.41421356237308021
10
-54.174999998092794
20
104.40000054716101
10
-54.174999999999905
20
104.35000054769901
42
0.41421356237307272
10
-53.824999999999903
20
104.00000054955969
10
-18.459046902996899
20
104.00000055146668
42
0.41421356237309692
10
-18.10904690485749
20
104.35000054769901
0
LWPOLYLINE
5
208
100
AcDbEntity
8
0
100
AcDbPolyline
90
8
70
1
43
0.0
10
-302.27499999999998
20
126.875
10
-302.27500000000003
20
139.77500000000001
42
-0.41421356237309503
10
-301.72500000000002
20
140.32500000000002
10
-288.82499999999999
20
140.32499999999999
42
-0.41421356237306667
10
-288.27500000000003
20
139.77500000000001
10
-288.27499999999992
20
126.875
42
-0.4142135623730856
10
-288.82499999999999
20
126.32499999999996
10
-301.72500000000002
20
126.325
42
-0.41421356237307611
0
LWPOLYLINE
5
209
100
AcDbEntity
8
0
100
AcDbPolyline
90
8
70
1
43
0.0
10
-278.46249999999998
20
126.875
10
-278.46250000000003
20
139.77500000000001
42
-0.41421356237309503
10
-277.91250000000002
20
140.32499999999996
10
-265.01249999999999
20
140.32500000000005
42
-0.41421356237314239
10
-264.46249999999998
20
139.77500000000001
10
-264.46249999999992
20
126.875
42
-0.4142135623730856
10
-265.01249999999999
20
126.32499999999996
10
-277.91250000000002
20
126.32500000000009
42
-0.4142135623730856
0
LWPOLYLINE
5
210
100
AcDbEntity
8
0
100
AcDbPolyline
90
8
70
1
43
0.0
10
-254.65000000000003
20
126.875
10
-254.65000000000001
20
139.77500000000001
42
-0.41421356237309503
10
-254.09999999999999
20
140.32500000000002
10
-241.20000000000002
20
140.32500000000007
42
-0.41421356237311396
10
-240.64999999999998
20
139.77500000000001
10
-240.65000000000003
20
126.875
42
-0.41421356237312346
10
-241.20000000000002
20
126.32500000000005
10
-254.09999999999997
20
126.32499999999995
42
-0.41421356237314239
0
LWPOLYLINE
5
211
100
AcDbEntity
8
0
100
AcDbPolyline
90
8
70
1
43
0.0
10
-235.60000000000002
20
126.875
10
-235.60000000000002
20
139.77500000000001
42
-0.41421356237314239
10
-235.05000000000001
20
140.32500000000002
10
-222.15000000000003
20
140.32500000000005
42
-0.41421356237310453
10
-221.59999999999999
20
139.77500000000001
10
-221.60000000000011
20
126.875
42
-0.41421356237307611
10
-222.15000000000003
20
126.32500000000002
10
-235.05000000000001
20
126.32500000000002
42
-0.4142135623730856
0
LWPOLYLINE
5
212
100
AcDbEntity
8
0
100
AcDbPolyline
90
8
70
1
43
0.0
10
-216.55000000000001
20
126.875
10
-216.55000000000004
20
139.77500000000001
42
-0.4142135623730856
10
-216
20
140.32500000000002
10
-203.10000000000002
20
140.32500000000002
42
-0.41421356237309503
10
-202.55000000000001
20
139.77500000000001
10
-202.54999999999995
20
126.875
42
-0.41421356237313289
10
-203.10000000000002
20
126.32499999999992
10
-216
20
126.32499999999999
42
-0.41421356237310453
0
LWPOLYLINE
5
213
100
AcDbEntity
8
0
100
AcDbPolyline
90
8
70
1
43
0.0
10
-197.5
20
126.875
10
-197.5
20
139.77500000000001
42
-0.41421356237310453
10
-196.94999999999999
20
140.32500000000005
10
-184.05000000000001
20
140.3249999999999
42
-0.41421356237309503
10
-183.50000000000011
20
139.77500000000001
10
-183.49999999999994
20
126.875
42
-0.4142135623730856
10
-184.05000000000001
20
126.32499999999996
10
-196.94999999999999
20
126.32499999999999
42
-0.41421356237314239
0
LWPOLYLINE
5
214
100
AcDbEntity
8
0
100
AcDbPolyline
90
8
70
1
43
0.0
10
-178.44999999999999
20
126.875
10
-178.45000000000005
20
139.77500000000001
42
-0.41421356237311396
10
-177.90000000000003
20
140.32500000000005
10
-165
20
140.32500000000002
42
-0.41421356237309503
10
-164.44999999999999
20
139.77500000000001
10
-164.45000000000007
20
126.875
42
-0.41421356237307611
10
-165
20
126.32500000000002
10
-177.89999999999998
20
126.32500000000002
42
-0.41421356237310453
0
LWPOLYLINE
5
215
100
AcDbEntity
8
0
100
AcDbPolyline
90
8
70
1
43
0.0
10
-159.40000000000001
20
126.875
10
-159.39999999999998
20
139.77500000000001
42
-0.41421356237311396
10
-158.84999999999999
20
140.32499999999999
10
-145.94999999999999
20
140.32499999999999
42
-0.4142135623730856
10
-145.39999999999998
20
139.77500000000001
10
-145.40000000000003
20
126.875
42
-0.41421356237311396
10
-145.94999999999999
20
126.32500000000005
10
-158.84999999999999
20
126.32499999999999
42
-0.4142135623730383
0
LWPOLYLINE
5
216
100
AcDbEntity
8
0
100
AcDbPolyline
90
8
70
1
43
0.0
10
-140.34999999999999
20
126.875
10
-140.35000000000002
20
139.77500000000001
42
-0.41421356237309503
10
-139.80000000000001
20
140.32500000000002
10
-126.90000000000001
20
140.32499999999996
42
-0.41421356237311396
10
-126.35000000000005
20
139.77500000000001
10
-126.35000000000005
20
126.875
42
-0.41421356237301937
10
-126.90000000000001
20
126.32500000000005
10
-139.80000000000001
20
126.325
42
-0.41421356237312346
0
LWPOLYLINE
5
217
100
AcDbEntity
8
0
100
AcDbPolyline
90
8
70
1
43
0.0
10
-121.30000000000001
20
126.875
10
-121.30000000000007
20
139.77500000000001
42
-0.41421356237309503
10
-120.75000000000001
20
140.32500000000005
10
-107.84999999999999
20
140.32499999999996
42
-0.41421356237312346
10
-107.30000000000003
20
139.77500000000001
10
-107.29999999999997
20
126.875
42
-0.41421356237305718
10
-107.84999999999999
20
126.32499999999996
10
-120.75000000000001
20
126.325
42
-0.41421356237311396
0
LWPOLYLINE
5
218
100
AcDbEntity
8
0
100
AcDbPolyline
90
8
70
1
43
0.0
10
-181.47500000000002
20
127.32499977458501
10
-181.47500000000002
20
139.32499987571299
42
-0.41421356237309503
10
-181.125
20
139.67499987571298
10
-180.82499999999999
20
139.67499987571298
42
-0.41421356237309503
10
-180.47499999999999
20
139.32499987571299
10
-180.47499999999999
20
127.32499977458501
42
-0.41421356237309503
10
-180.82499999999999
20
126.974999774585
10
-181.125
20
126.974999774585
42
-0.41421356237309503
0
LWPOLYLINE
5
219
100
AcDbEntity
8
0
100
AcDbPolyline
90
8
70
1
43
0.0
10
-302.27499999999998
20
145.92500000000001
10
-302.27500000000009
20
158.82499999999999
42
-0.41421356237310453
10
-301.72500000000002
20
159.37500000000006
10
-288.82499999999999
20
159.37500000000003
42
-0.41421356237310453
10
-288.27499999999998
20
158.82499999999999
10
-288.27500000000009
20
145.92500000000001
42
-0.41421356237307611
10
-288.82499999999999
20
145.37500000000003
10
-301.72500000000002
20
145.37500000000003
42
-0.41421356237310453
0
LWPOLYLINE
5
220
100
AcDbEntity
8
0
100
AcDbPolyline
90
8
70
1
43
0.0
10
-279.75675000000001
20
145.92500000000001
10
-279.7567499999999
20
160.82499999999999
42
-0.41421356237317075
10
-279.20675000000006
20
161.37499999999989
10
-273.30675000000002
20
161.375
42
-0.41421356237313289
10
-272.75675000000001
20
160.82499999999999
10
-272.75675000000001
20
145.92500000000001
42
-0.41421356237310453
10
-273.30675000000002
20
145.37499999999997
10
-279.20675000000006
20
145.375
42
-0.41421356237309503
0
LWPOLYLINE
5
221
100
AcDbEntity
8
0
100
AcDbPolyline
90
8
70
1
43
0.0
10
-271.31875000000002
20
145.92500000000001
10
-271.31875000000014
20
158.82499999999999
42
-0.4142135623730856
10
-270.76875000000001
20
159.37500000000011
10
-257.86875000000003
20
159.37499999999994
42
-0.41421356237306667
10
-257.31875000000008
20
158.82499999999999
10
-257.31875000000008
20
145.92500000000001
42
-0.41421356237306667
10
-257.86874999999998
20
145.37500000000011
10
-270.76875000000001
20
145.37499999999997
42
-0.41421356237309503
0
LWPOLYLINE
5
222
100
AcDbEntity
8
0
100
AcDbPolyline
90
8
70
1
43
0.0
10
-255.88075000000003
20
145.92500000000001
10
-255.88075000000006
20
160.82499999999999
42
-0.41421356237305718
10
-255.33074999999999
20
161.37500000000006
10
-249.43074999999999
20
161.375
42
-0.41421356237313289
10
-248.88075000000001
20
160.82499999999999
10
-248.88074999999986
20
145.92500000000001
42
-0.41421356237305718
10
-249.43074999999999
20
145.37499999999989
10
-255.33074999999999
20
145.37499999999997
42
-0.41421356237310453
0
LWPOLYLINE
5
223
100
AcDbEntity
8
0
100
AcDbPolyline
90
8
70
1
43
0.0
10
-240.36250000000001
20
145.92500000000001
10
-240.3625000000001
20
158.82499999999999
42
-0.41421356237310453
10
-239.81250000000003
20
159.37500000000011
10
-226.91249999999999
20
159.375
42
-0.41421356237309503
10
-226.36250000000001
20
158.82499999999999
10
-226.36250000000004
20
145.92500000000001
42
-0.41421356237310453
10
-226.91249999999999
20
145.375
10
-239.81250000000003
20
145.375
42
-0.41421356237305718
0
LWPOLYLINE
5
224
100
AcDbEntity
8
0
100
AcDbPolyline
90
8
70
1
43
0.0
10
-221.3125
20
145.92500000000001
10
-221.31250000000009
20
158.82499999999999
42
-0.41421356237310453
10
-220.76250000000002
20
159.37500000000011
10
-207.86250000000001
20
159.37499999999997
42
-0.41421356237305718
10
-207.31250000000006
20
158.82499999999999
10
-207.31249999999994
20
145.92500000000001
42
-0.4142135623730856
10
-207.86250000000001
20
145.37499999999997
10
-220.76250000000002
20
145.37499999999997
42
-0.41421356237307611
0
LWPOLYLINE
5
225
100
AcDbEntity
8
0
100
AcDbPolyline
90
8
70
1
43
0.0
10
-202.26249999999999
20
145.92500000000001
10
-202.26250000000019
20
158.82499999999999
42
-0.41421356237305718
10
-201.71250000000001
20
159.37500000000017
10
-188.81250000000006
20
159.37500000000003
42
-0.4142135623730856
10
-188.26249999999999
20
158.82499999999999
10
-188.26249999999993
20
145.92500000000001
42
-0.41421356237312346
10
-188.8125
20
145.37499999999997
10
-201.71250000000001
20
145.375
42
-0.41421356237310453
0
LWPOLYLINE
5
226
100
AcDbEntity
8
0
100
AcDbPolyline
90
8
70
1
43
0.0
10
-183.21250000000003
20
145.92500000000001
10
-183.21249999999995
20
158.82499999999999
42
-0.41421356237309503
10
-182.66249999999999
20
159.37499999999997
10
-169.76249999999999
20
159.375
42
-0.41421356237307611
10
-169.21250000000003
20
158.82499999999999
10
-169.21250000000001
20
145.92500000000001
42
-0.41421356237310453
10
-169.76249999999999
20
145.375
10
-182.66249999999999
20
145.37499999999994
42
-0.41421356237307611
0
LWPOLYLINE
5
227
100
AcDbEntity
8
0
100
AcDbPolyline
90
8
70
1
43
0.0
10
-167.1875
20
146.37499992626999
10
-167.1875
20
158.37500002738801
42
-0.41421356237309503
10
-166.83750000000001
20
158.72500002738801
10
-166.53749999999999
20
158.72500002738801
42
-0.41421356237309503
10
-166.1875
20
158.37500002738801
10
-166.1875
20
146.37499992626999
42
-0.41421356237309503
10
-166.53749999999999
20
146.02499992627
10
-166.83750000000001
20
146.02499992627
42
-0.41421356237309503
0
LWPOLYLINE
5
228
100
AcDbEntity
8
0
100
AcDbPolyline
90
8
70
1
43
0.0
10
-145.11250000000001
20
145.92500000000001
10
-145.1125000000001
20
158.82499999999999
42
-0.41421356237313289
10
-144.5625
20
159.37500000000009
10
-131.66249999999999
20
159.37499999999994
42
-0.4142135623730856
10
-131.11250000000007
20
158.82499999999999
10
-131.11250000000001
20
145.92500000000001
42
-0.41421356237305718
10
-131.66249999999999
20
145.37500000000003
10
-144.5625
20
145.375
42
-0.41421356237307611
0
LWPOLYLINE
5
229
100
AcDbEntity
8
0
100
AcDbPolyline
90
8
70
1
43
0.0
10
-126.06250000000001
20
145.92500000000001
10
-126.06250000000009
20
158.82499999999999
42
-0.41421356237309503
10
-125.51250000000002
20
159.37500000000006
10
-112.61250000000001
20
159.37499999999997
42
-0.41421356237313289
10
-112.06250000000003
20
158.82499999999999
10
-112.06249999999999
20
145.92500000000001
42
-0.41421356237311396
10
-112.61250000000001
20
145.375
10
-125.51250000000002
20
145.375
42
-0.4142135623730383
0
LWPOLYLINE
5
230
100
AcDbEntity
8
0
100
AcDbPolyline
90
8
70
1
43
0.0
10
-110.03749999999999
20
146.37499992627301
10
-110.03749999999999
20
158.37500002739301
42
-0.41421356237309503
10
-109.6875
20
158.72500002739304
10
-109.3875
20
158.72500002739304
42
-0.41421356237309503
10
-109.03750000000001
20
158.37500002739301
10
-109.03750000000001
20
146.37499992627301
42
-0.41421356237309503
10
-109.3875
20
146.02499992627301
10
-109.6875
20
146.02499992627301
42
-0.41421356237309503
0
LWPOLYLINE
5
231
100
AcDbEntity
8
0
100
AcDbPolyline
90
8
70
1
43
0.0
10
-159.6875
20
177.875
10
-159.6875
20
164.97499999999999
42
-0.41421356237305718
10
-160.23750000000004
20
164.42499999999995
10
-173.13749999999999
20
164.42499999999995
42
-0.41421356237305718
10
-173.68750000000003
20
164.97499999999999
10
-173.6875
20
177.875
42
-0.41421356237298157
10
-173.13749999999999
20
178.42500000000001
10
-160.23750000000004
20
178.42500000000001
42
-0.41421356237311396
0
LWPOLYLINE
5
232
100
AcDbEntity
8
0
100
AcDbPolyline
90
8
70
1
43
0.0
10
-238.125
20
123.64999974114902
10
-238.12500000000003
20
123.949999757472
42
-0.41421356237309503
10
-237.77500000000003
20
124.29999975747201
10
-200.375
20
124.29999975747201
42
-0.41421356237309503
10
-200.02500000000001
20
123.949999757472
10
-200.02500000000001
20
123.64999974115001
42
-0.41421356237309503
10
-200.375
20
123.29999974115
10
-237.77500000000003
20
123.29999974115005
42
-0.41421356237226259
0
LWPOLYLINE
5
233
100
AcDbEntity
8
0
100
AcDbPolyline
90
8
70
1
43
0.0
10
-214.31250000000003
20
161.75000004451203
10
-214.31250000000003
20
162.05000006083503
42
-0.41421356237309503
10
-213.96250000000003
20
162.40000006083503
10
-176.5625
20
162.40000006083503
42
-0.41421356237309503
10
-176.21250000000001
20
162.05000006083503
10
-176.21250000000001
20
161.75000004451303
42
-0.41421356237392748
10
-176.5625
20
161.40000004451201
10
-213.96250000000003
20
161.40000004451201
42
-0.41421356237309503
0
LWPOLYLINE
5
234
100
AcDbEntity
8
0
100
AcDbPolyline
90
8
70
1
43
0.0
10
-146.0969258435
20
181.880896924697
10
-127.74692584349999
20
181.88089692469703
42
-0.41421356237309503
10
-127.39692584349999
20
181.53089692469703
10
-127.39692584349999
20
181.230896908375
42
-0.41421356237309503
10
-127.74692584349999
20
180.88089690837501
10
-146.0969258435
20
180.88089690837501
42
-0.41421356237309503
10
-146.4469258435
20
181.230896908375
10
-146.44692584349997
20
181.53089692469703
42
-0.41421356237309503
0
LWPOLYLINE
5
235
100
AcDbEntity
8
0
100
AcDbPolyline
90
8
70
1
43
0.0
10
-85.724999999999994
20
123.64999974115001
10
-85.724999999999994
20
123.94999975747299
42
-0.41421356237309503
10
-85.375
20
124.299999757473
10
-47.975000000000001
20
124.299999757473
42
-0.41421356237309503
10
-47.625
20
123.94999975747299
10
-47.625
20
123.64999974115101
42
-0.41421356237309503
10
-47.975000000000001
20
123.299999741151
10
-85.375
20
123.29999974115
42
-0.41421356237309503
0
LWPOLYLINE
5
236
100
AcDbEntity
8
0
100
AcDbPolyline
90
8
70
1
43
0.0
10
-100.0125
20
161.75000004451203
10
-100.0125000000001
20
162.05000006083503
42
-0.41421356237309503
10
-99.662500000000094
20
162.40000006083503
10
-62.262500000000003
20
162.40000006083503
42
-0.41421356237309503
10
-61.912500000000001
20
162.05000006083503
10
-61.912500000000001
20
161.75000004451203
42
-0.41421356237309503
10
-62.262500000000003
20
161.40000004451201
10
-99.662500000000094
20
161.4000000445121
42
-0.41421356237309503
0
LWPOLYLINE
5
237
100
AcDbEntity
8
0
100
AcDbPolyline
90
8
70
1
43
0.0
10
-79.510934999999904
20
200.39999951374199
10
-79.510935003767543
20
200.34999951428003
42
-0.41421356237316193
10
-79.860934999999898
20
199.99999951804767
10
-148.05000000000001
20
199.99999951428003
42
-0.41421356237309503
10
-148.40000000000001
20
200.34999951428003
10
-148.39999999623234
20
200.39999951374199
42
-0.41421356237302071
10
-148.05000000000001
20
200.74999950997434
10
-79.860934999999913
20
200.74999951374195
42
-0.4142135623730579
0
LWPOLYLINE
5
238
100
AcDbEntity
8
0
100
AcDbPolyline
90
16
70
1
43
0.0
10
-274.67812999813947
20
199.649999521815
10
-274.67813000376771
20
198.87449953016301
42
-0.41421356237315454
10
-275.02812999999998
20
198.52449953393068
10
-281.95000000000005
20
198.52449953016301
42
-0.41421356237309503
10
-282.29999999999995
20
198.87449953016301
10
-282.29999999623226
20
198.89999952988902
42
-0.41421356237315454
10
-281.94999999999999
20
199.24999952612129
10
-276.02812999999998
20
199.249999526121
42
0.41421356237309503
10
-275.67813000376765
20
199.59999952235302
10
-275.67812999623231
20
200.39999951374199
42
-0.41421356237309503
10
-275.32812999999999
20
200.74999950997426
10
-237.63906500000002
20
200.74999951374201
42
-0.41421356237315454
10
-237.28906499999997
20
200.39999951374199
10
-237.28906500376769
20
200.34999951428003
42
-0.41421356237315454
10
-237.63906500000002
20
199.9999995180477
10
-274.32812999999999
20
199.99999951804801
42
0.41421356237309503
0
LWPOLYLINE
5
239
100
AcDbEntity
8
0
100
AcDbPolyline
90
8
70
1
43
0.0
10
-122.04999904000002
20
105.87550177127801
10
-122.0499990437677
20
105.850000531552
42
-0.41421356237308021
10
-122.39999904000001
20
105.50000053531967
10
-182.40000096
20
105.50000053155208
42
-0.41421356237309503
10
-182.75000095999991
20
105.850000531552
10
-182.75000095623221
20
105.87550177127801
42
-0.41421356237315454
10
-182.40000096
20
106.22550176751022
10
-122.39999904000001
20
106.225501771278
42
-0.41421356237312473
0
LWPOLYLINE
5
240
100
AcDbEntity
8
0
100
AcDbPolyline
90
8
70
1
43
0.0
10
-200.25000000000003
20
198.52449953393102
10
-262.32813000000004
20
198.52449953016301
42
-0.41421356237300588
10
-262.67813000000001
20
198.87449953016301
10
-262.67812999623226
20
198.89999952988902
42
-0.41421356237315454
10
-262.32812999999999
20
199.24999952612129
10
-200.25000000000003
20
199.24999952988898
42
-0.41421356237306534
10
-199.90000000000003
20
198.89999952988902
10
-199.90000000376801
20
198.87449953016301
42
-0.41421356237303558
0
LWPOLYLINE
5
241
100
AcDbEntity
8
0
100
AcDbPolyline
90
16
70
1
43
0.0
10
-67.160934999999895
20
200.74999950997403
10
-29.471869999999903
20
200.74999951374195
42
-0.4142135623730579
10
-29.121869999999902
20
200.39999951374199
10
-29.121869999999902
20
199.59999952235302
42
0.41421356237309503
10
-28.771869999999904
20
199.24999952235299
10
-22.849999999999802
20
199.24999952988898
42
-0.41421356237304302
10
-22.499999999999837
20
198.89999952988902
10
-22.500000003767475
20
198.87449953016301
42
-0.41421356237310619
10
-22.849999999999802
20
198.52449953393068
10
-29.7718699999999
20
198.52449953016304
42
-0.41421356237305418
10
-30.121869999999902
20
198.87449953016301
10
-30.121869999999902
20
199.649999521815
42
0.41421356237309503
10
-30.471869999999903
20
199.999999521815
10
-67.160934999999895
20
199.99999951428003
42
-0.41421356237309503
10
-67.510934999999904
20
200.34999951428003
10
-67.510934996231938
20
200.39999951374199
42
-0.41421356237310253
0
LWPOLYLINE
5
242
100
AcDbEntity
8
0
100
AcDbPolyline
90
8
70
1
43
0.0
10
-189.90000000000003
20
198.87449953016301
10
-189.89999999623228
20
198.89999952988902
42
-0.41421356237309503
10
-189.55000000000001
20
199.24999952612129
10
-115.25
20
199.24999952988898
42
-0.41421356237309503
10
-114.90000000000003
20
198.89999952988902
10
-114.9000000037677
20
198.87449953016301
42
-0.41421356237316936
10
-115.25
20
198.52449953393074
10
-189.55000000000001
20
198.52449953016304
42
-0.41421356237306534
0
LWPOLYLINE
5
243
100
AcDbEntity
8
0
100
AcDbPolyline
90
8
70
1
43
0.0
10
-271.65000096
20
106.22550176751
10
-204.59999904
20
106.22550177127809
42
-0.41421356237305046
10
-204.24999903999992
20
105.87550177127801
10
-204.24999904376784
20
105.850000531552
42
-0.41421356237310991
10
-204.59999904
20
105.5000005353198
10
-271.65000096
20
105.50000053155199
42
-0.41421356237305046
10
-272.00000096000002
20
105.850000531552
10
-272.00000095623193
20
105.87550177127801
42
-0.41421356237316936
0
LWPOLYLINE
5
244
100
AcDbEntity
8
0
100
AcDbPolyline
90
8
70
1
43
0.0
10
-32.799999039999904
20
105.87550177127801
10
-32.799999043767592
20
105.85000053155201
42
-0.41421356237310253
10
-33.149999039999898
20
105.50000053531971
10
-100.20000096000001
20
105.500000531552
42
-0.41421356237306534
10
-100.55000096000001
20
105.850000531552
10
-100.55000095623231
20
105.87550177127801
42
-0.41421356237308021
10
-100.20000096000001
20
106.22550176751034
10
-33.149999039999898
20
106.225501771278
42
-0.41421356237309132
0
LWPOLYLINE
5
245
100
AcDbEntity
8
0
100
AcDbPolyline
90
8
70
1
43
0.0
10
-224.93906500000003
20
200.74999950997403
10
-156.75000000000003
20
200.74999951374198
42
-0.41421356237305046
10
-156.40000000000001
20
200.39999951374199
10
-156.40000000376767
20
200.34999951428006
42
-0.41421356237310991
10
-156.75
20
199.9999995180477
10
-224.93906499999997
20
199.99999951427998
42
-0.41421356237306534
10
-225.28906500000005
20
200.34999951428003
10
-225.28906499623204
20
200.39999951374199
42
-0.41421356237297613
0
LWPOLYLINE
5
246
100
AcDbEntity
8
0
100
AcDbPolyline
90
8
70
1
43
0.0
10
-104.90000000000002
20
198.87449953016301
10
-104.89999999623234
20
198.89999952988902
42
-0.41421356237302071
10
-104.55
20
199.24999952612137
10
-42.471869999999903
20
199.24999952988898
42
-0.41421356237305046
10
-42.121869999999902
20
198.89999952988902
10
-42.121870003767611
20
198.87449953016301
42
-0.41421356237313967
10
-42.471869999999903
20
198.52449953393068
10
-104.55
20
198.52449953016298
42
-0.41421356237313967
0
LWPOLYLINE
5
247
100
AcDbEntity
8
0
100
AcDbPolyline
90
14
70
1
43
0.0
10
-203.52500000000003
20
183.47499999999999
10
-208.85650000000001
20
183.47500000000008
42
-0.41421356237309503
10
-209.40649999999994
20
184.02500000000001
10
-209.40650000000002
20
196.92500000000001
42
-0.41421356237309503
10
-208.85650000000001
20
197.47500000000002
10
-195.95625000000001
20
197.47499999999997
42
-0.41421356237305718
10
-195.40625000000009
20
196.92500000000001
10
-195.4062500000002
20
184.02500000000001
42
-0.41421356237309503
10
-195.95625000000001
20
183.47500000000019
10
-196.52500000000003
20
183.47499999999999
10
-196.52499999999998
20
182.02500000000001
42
-0.41421356237305718
10
-197.07499999999999
20
181.47499999999997
10
-202.97499999999999
20
181.47500000000005
42
-0.41421356237305718
10
-203.52499999999995
20
182.02500000000001
0
LWPOLYLINE
5
248
100
AcDbEntity
8
0
100
AcDbPolyline
90
8
70
1
43
0.0
10
-217.38749999999999
20
183.47499999999999
10
-232.66900000000004
20
183.47500000000002
42
-0.41421356237309503
10
-233.21899999999999
20
184.02500000000001
10
-233.21899999999997
20
196.92500000000001
42
-0.41421356237309503
10
-232.66900000000004
20
197.47499999999997
10
-217.38749999999999
20
197.47500000000005
42
-0.41421356237305718
10
-216.83749999999998
20
196.92500000000001
10
-216.83750000000001
20
184.02500000000001
42
-0.41421356237320855
0
LWPOLYLINE
5
249
100
AcDbEntity
8
0
100
AcDbPolyline
90
8
70
1
43
0.0
10
-3.0749999999999398
20
107.27500000000001
10
-15.975000000000001
20
107.27499999999998
42
-0.41421356237304185
10
-16.524999999999938
20
107.825
10
-16.524999999999991
20
120.72499999999999
42
-0.41421356237310097
10
-15.975000000000001
20
121.27499999999998
10
-3.07499999999997
20
121.27499999999999
42
-0.41421356237311896
10
-2.5249999999999568
20
120.72499999999999
10
-2.5249999999999355
20
107.825
42
-0.41421356237307994
0
LWPOLYLINE
5
250
100
AcDbEntity
8
0
100
AcDbPolyline
90
8
70
1
43
0.0
10
-7.8374999999999808
20
126.325
10
-20.737500000000001
20
126.325
42
-0.41421356237309975
10
-21.287500000000016
20
126.875
10
-21.287500000000009
20
139.77500000000001
42
-0.41421356237308321
10
-20.737500000000001
20
140.32500000000002
10
-7.8374999999999817
20
140.32500000000002
42
-0.41421356237312101
10
-7.2874999999999632
20
139.77500000000001
10
-7.287499999999973
20
126.875
42
-0.41421356237310036
0
LWPOLYLINE
5
251
100
AcDbEntity
8
0
100
AcDbPolyline
90
8
70
1
43
0.0
10
-154.92500000000004
20
120.72499999999999
42
0.4142135623730856
10
-155.47499999999999
20
121.27499999999996
10
-168.37500000000003
20
121.27499999999989
42
0.41421356237313289
10
-168.92500000000001
20
120.72499999999999
10
-168.92500000000001
20
107.825
42
0.41421356237309503
10
-168.37500000000003
20
107.27500000000001
10
-155.47499999999999
20
107.27500000000003
42
0.41421356237312346
10
-154.92500000000001
20
107.825
0
LWPOLYLINE
5
252
100
AcDbEntity
8
0
100
AcDbPolyline
90
8
70
1
43
0.0
10
-64.987499999999997
20
164.42499999999995
42
0.4142135623730856
10
-64.437499999999986
20
164.97499999999999
10
-64.4375
20
177.875
42
0.41421356237310453
10
-64.987499999999997
20
178.42500000000001
10
-77.887500000000003
20
178.42500000000001
42
0.41421356237310453
10
-78.4375
20
177.875
10
-78.437499999999986
20
164.97499999999999
42
0.4142135623730856
10
-77.887500000000003
20
164.42500000000001
0
LWPOLYLINE
5
253
100
AcDbEntity
8
0
100
AcDbPolyline
90
8
70
1
43
0.0
10
-68.912499999999994
20
184.02500000000001
10
-68.91249999999998
20
196.92500000000001
42
-0.41421356237312812
10
-68.362499999999997
20
197.47500000000002
10
-53.081250000000004
20
197.47500000000002
42
-0.41421356237310453
10
-52.531250000000007
20
196.92500000000001
10
-52.531250000000028
20
184.02500000000003
42
-0.4142135623730856
10
-53.081250000000004
20
183.47499999999999
10
-68.362499999999997
20
183.47499999999997
42
-0.41421356237307611
0
LWPOLYLINE
5
254
100
AcDbEntity
8
0
100
AcDbPolyline
90
8
70
1
43
0.0
10
-96.937500000000099
20
178.42500000000001
42
0.41421356237302881
10
-97.487500000000082
20
177.87500000000006
10
-97.487500000000026
20
164.97499999999999
42
0.41421356237304774
10
-96.937500000000099
20
164.42500000000001
10
-84.037500000000009
20
164.42500000000001
42
0.41421356237309503
10
-83.487500000000011
20
164.97499999999999
10
-83.487500000000026
20
177.875
42
0.41421356237306667
10
-84.037500000000009
20
178.42500000000001
0
LWPOLYLINE
5
255
100
AcDbEntity
8
0
100
AcDbPolyline
90
8
70
1
43
0.0
10
-302.27500000000003
20
164.97499999999999
42
0.41421356237305718
10
-301.72500000000002
20
164.42499999999998
10
-288.82499999999999
20
164.42499999999993
42
0.41421356237307611
10
-288.27499999999998
20
164.97499999999999
10
-288.27499999999998
20
177.875
42
0.41421356237320855
10
-288.82499999999999
20
178.42500000000001
10
-301.72500000000002
20
178.42499999999998
42
0.41421356237311396
10
-302.27499999999998
20
177.875
0
LWPOLYLINE
5
256
100
AcDbEntity
8
0
100
AcDbPolyline
90
8
70
1
43
0.0
10
-149.875
20
107.825
10
-149.87499999999994
20
120.72499999999999
42
-0.41421356237311396
10
-149.32499999999999
20
121.27499999999996
10
-136.42500000000001
20
121.27499999999996
42
-0.41421356237312346
10
-135.87500000000003
20
120.72499999999999
10
-135.875
20
107.825
42
-0.41421356237309503
10
-136.42500000000001
20
107.27499999999999
10
-149.32499999999999
20
107.27499999999999
42
-0.41421356237309503
0
LWPOLYLINE
5
257
100
AcDbEntity
8
0
100
AcDbPolyline
90
8
70
1
43
0.0
10
-92.725000000000094
20
107.825
10
-92.725000000000023
20
120.72499999999999
42
-0.41421356237305718
10
-92.174999999999997
20
121.27500000000003
10
-79.275000000000006
20
121.27500000000001
42
-0.41421356237311396
10
-78.725000000000009
20
120.72499999999999
10
-78.72499999999998
20
107.825
42
-0.41421356237311396
10
-79.275000000000006
20
107.27499999999998
10
-92.174999999999997
20
107.27500000000001
42
-0.41421356237317075
0
LWPOLYLINE
5
258
100
AcDbEntity
8
0
100
AcDbPolyline
90
8
70
1
43
0.0
10
-149.875
20
184.02500000000001
42
0.41421356237307611
10
-149.32499999999999
20
183.47499999999997
10
-124.51875000000001
20
183.47500000000002
42
0.41421356237312346
10
-123.96875000000001
20
184.02500000000001
10
-123.96875000000001
20
196.92500000000001
42
0.41421356237310453
10
-124.51875000000001
20
197.47500000000002
10
-149.32499999999999
20
197.47500000000002
42
0.41421356237309503
10
-149.875
20
196.92500000000001
0
LWPOLYLINE
5
259
100
AcDbEntity
8
0
100
AcDbPolyline
90
8
70
1
43
0.0
10
-21.57500000000001
20
120.72499999999999
42
0.41421356237309975
10
-22.125
20
121.27499999999998
10
-35.024999999999999
20
121.27499999999998
42
0.41421356237309975
10
-35.575000000000003
20
120.72499999999999
10
-35.574999999999932
20
107.825
42
0.41421356237304063
10
-35.024999999999999
20
107.27500000000001
10
-22.125
20
107.27499999999999
42
0.4142135623730927
10
-21.575000000000003
20
107.825
0
LWPOLYLINE
5
260
100
AcDbEntity
8
0
100
AcDbPolyline
90
8
70
1
43
0.0
10
-82.650000000000006
20
140.32499999999999
42
0.41421356237312346
10
-83.200000000000003
20
139.77500000000001
10
-83.199999999999989
20
126.875
42
0.41421356237313289
10
-82.650000000000006
20
126.325
10
-69.75
20
126.32499999999996
42
0.41421356237309503
10
-69.200000000000003
20
126.875
10
-69.199999999999974
20
139.77500000000001
42
0.41421356237311396
10
-69.75
20
140.32499999999999
0
LWPOLYLINE
5
261
100
AcDbEntity
8
0
100
AcDbPolyline
90
8
70
1
43
0.0
10
-14.431250000000013
20
177.875
42
0.41421356237304774
10
-14.981249999999999
20
178.42500000000001
10
-27.881250000000005
20
178.42500000000001
42
0.41421356237310686
10
-28.431250000000002
20
177.875
10
-28.431250000000002
20
164.97499999999999
42
0.41421356237312812
10
-27.881250000000005
20
164.42500000000001
10
-14.981249999999999
20
164.42499999999998
42
0.41421356237310686
10
-14.431250000000002
20
164.97499999999999
0
LWPOLYLINE
5
262
100
AcDbEntity
8
0
100
AcDbPolyline
90
8
70
1
43
0.0
10
-269.22500000000002
20
196.92500000000001
42
0.41421356237313289
10
-269.77499999999998
20
197.47500000000002
10
-282.67500000000001
20
197.47499999999999
42
0.41421356237311396
10
-283.22500000000002
20
196.92500000000001
10
-283.22499999999997
20
184.02500000000001
42
0.41421356237313289
10
-282.67500000000001
20
183.47499999999999
10
-269.77499999999998
20
183.47499999999999
42
0.41421356237313289
10
-269.22500000000002
20
184.02500000000001
0
LWPOLYLINE
5
263
100
AcDbEntity
8
0
100
AcDbPolyline
90
8
70
1
43
0.0
10
-40.624999999999986
20
120.72499999999999
42
0.41421356237309503
10
-41.174999999999997
20
121.27500000000001
10
-54.075000000000003
20
121.27499999999999
42
0.41421356237307611
10
-54.625
20
120.72499999999999
10
-54.625
20
107.825
42
0.41421356237307611
10
-54.075000000000003
20
107.27500000000001
10
-41.174999999999997
20
107.27499999999995
42
0.41421356237310919
10
-40.625
20
107.825
0
LWPOLYLINE
5
264
100
AcDbEntity
8
0
100
AcDbPolyline
90
8
70
1
43
0.0
10
-302.27499999999998
20
107.825
10
-302.27500000000003
20
120.72499999999999
42
-0.41421356237309503
10
-301.72500000000002
20
121.27499999999999
10
-288.82499999999999
20
121.27499999999998
42
-0.41421356237306667
10
-288.27500000000003
20
120.72499999999999
10
-288.27500000000003
20
107.825
42
-0.41421356237309503
10
-288.82499999999999
20
107.27500000000005
10
-301.72500000000002
20
107.27500000000008
42
-0.41421356237307611
0
LWPOLYLINE
5
265
100
AcDbEntity
8
0
100
AcDbPolyline
90
8
70
1
43
0.0
10
-29.268750000000004
20
183.47499999999999
42
0.41421356237308793
10
-28.718750000000021
20
184.02500000000001
10
-28.718750000000011
20
196.92500000000001
42
0.41421356237305007
10
-29.268750000000004
20
197.47500000000002
10
-44.549999999999997
20
197.47500000000002
42
0.41421356237312812
10
-45.100000000000009
20
196.92500000000001
10
-45.100000000000016
20
184.02500000000001
42
0.41421356237308082
10
-44.549999999999997
20
183.47499999999999
0
LWPOLYLINE
5
266
100
AcDbEntity
8
0
100
AcDbPolyline
90
8
70
1
43
0.0
10
-250.17500000000007
20
196.92500000000001
42
0.41421356237311396
10
-250.72500000000002
20
197.47499999999997
10
-263.625
20
197.47500000000005
42
0.41421356237305718
10
-264.17500000000007
20
196.92500000000001
10
-264.17500000000007
20
184.02500000000001
42
0.41421356237305718
10
-263.625
20
183.47499999999999
10
-250.72500000000002
20
183.47500000000002
42
0.41421356237313289
10
-250.17500000000001
20
184.02500000000001
0
LWPOLYLINE
5
267
100
AcDbEntity
8
0
100
AcDbPolyline
90
8
70
1
43
0.0
10
-102.53749999999999
20
177.875
10
-102.53750000000005
20
164.97499999999999
42
-0.41421356237309503
10
-103.08750000000002
20
164.42500000000001
10
-115.98750000000001
20
164.42499999999995
42
-0.41421356237304774
10
-116.53750000000004
20
164.97499999999999
10
-116.53749999999999
20
177.875
42
-0.41421356237306667
10
-115.98750000000001
20
178.42499999999998
10
-103.08750000000002
20
178.42500000000001
42
-0.41421356237309503
0
LWPOLYLINE
5
268
100
AcDbEntity
8
0
100
AcDbPolyline
90
8
70
1
43
0.0
10
-50.700000000000003
20
126.325
10
-63.600000000000001
20
126.325
42
-0.41421356237309975
10
-64.15000000000002
20
126.875
10
-64.150000000000034
20
139.77500000000001
42
-0.41421356237311396
10
-63.600000000000001
20
140.32500000000005
10
-50.700000000000003
20
140.32499999999999
42
-0.4142135623730856
10
-50.150000000000034
20
139.77500000000001
10
-50.15000000000002
20
126.875
42
-0.4142135623730856
0
LWPOLYLINE
5
269
100
AcDbEntity
8
0
100
AcDbPolyline
90
8
70
1
43
0.0
10
-98.325000000000017
20
107.27500000000003
42
0.41421356237311396
10
-97.775000000000034
20
107.825
10
-97.775000000000034
20
120.72499999999999
42
0.41421356237307611
10
-98.325000000000017
20
121.27500000000001
10
-111.22500000000001
20
121.27500000000001
42
0.41421356237309503
10
-111.77500000000002
20
120.72499999999999
10
-111.77499999999992
20
107.825
42
0.41421356237311396
10
-111.22500000000001
20
107.27500000000001
0
LWPOLYLINE
5
270
100
AcDbEntity
8
0
100
AcDbPolyline
90
8
70
1
43
0.0
10
-5.9932499999999997
20
179.875
10
-5.9932499999999722
20
164.97499999999999
42
-0.41421356237311163
10
-6.5432500000000005
20
164.42499999999998
10
-12.443250000000001
20
164.42499999999998
42
-0.4142135623730856
10
-12.993249999999994
20
164.97499999999999
10
-12.99324999999998
20
179.87499999999997
42
-0.4142135623730856
10
-12.443250000000001
20
180.42500000000001
10
-6.5432500000000005
20
180.42499999999995
42
-0.41421356237310863
0
LWPOLYLINE
5
271
100
AcDbEntity
8
0
100
AcDbPolyline
90
8
70
1
43
0.0
10
-177.46875000000014
20
196.92500000000001
42
0.41421356237313289
10
-178.01875000000001
20
197.47499999999991
10
-183.91874999999999
20
197.47500000000002
42
0.41421356237313289
10
-184.46875000000003
20
196.92500000000001
10
-184.46875000000003
20
182.02500000000001
42
0.41421356237305718
10
-183.91874999999999
20
181.47500000000002
10
-178.01875000000001
20
181.47500000000008
42
0.41421356237305718
10
-177.46875
20
182.02500000000001
0
LWPOLYLINE
5
272
100
AcDbEntity
8
0
100
AcDbPolyline
90
8
70
1
43
0.0
10
-31.100000000000001
20
139.77500000000001
10
-31.099999999999977
20
126.875
42
-0.41421356237309975
10
-31.649999999999999
20
126.32499999999999
10
-44.549999999999997
20
126.32499999999996
42
-0.41421356237307144
10
-45.100000000000023
20
126.875
10
-45.100000000000009
20
139.77499999999998
42
-0.41421356237311868
10
-44.549999999999997
20
140.32500000000002
10
-31.649999999999999
20
140.32500000000002
42
-0.4142135623730856
0
LWPOLYLINE
5
273
100
AcDbEntity
8
0
100
AcDbPolyline
90
8
70
1
43
0.0
10
-23.118750000000002
20
159.375
42
0.41421356237310453
10
-23.668749999999982
20
158.82499999999999
10
-23.668750000000024
20
145.92500000000001
42
0.4142135623730856
10
-23.118750000000002
20
145.375
10
-5.4562499999999803
20
145.375
42
0.41421356237310514
10
-4.9062499999999796
20
145.92500000000001
10
-4.9062499999999813
20
158.82499999999999
42
0.41421356237311868
10
-5.4562499999999803
20
159.375
0
LWPOLYLINE
5
274
100
AcDbEntity
8
0
100
AcDbPolyline
90
8
70
1
43
0.0
10
-21.287500000000001
20
184.02500000000001
10
-21.287500000000019
20
196.92500000000001
42
-0.41421356237310686
10
-20.737500000000001
20
197.47500000000002
10
-5.4562500000000114
20
197.47500000000002
42
-0.41421356237310986
10
-4.9062500000000036
20
196.92500000000001
10
-4.9062499999999858
20
184.02500000000001
42
-0.41421356237310986
10
-5.4562500000000105
20
183.47499999999999
10
-20.737500000000001
20
183.47500000000002
42
-0.41421356237310919
0
LWPOLYLINE
5
275
100
AcDbEntity
8
0
100
AcDbPolyline
90
8
70
1
43
0.0
10
-207.02499999999998
20
107.825
42
0.41421356237309503
10
-206.47500000000002
20
107.27500000000005
10
-193.57500000000002
20
107.27500000000006
42
0.41421356237304774
10
-193.02500000000003
20
107.825
10
-193.02500000000006
20
120.72499999999999
42
0.41421356237309503
10
-193.57500000000002
20
121.27500000000001
10
-206.47500000000002
20
121.27499999999996
42
0.41421356237306667
10
-207.02500000000001
20
120.72499999999999
0
LWPOLYLINE
5
276
100
AcDbEntity
8
0
100
AcDbPolyline
90
20
70
1
43
0.0
10
-251.262
20
121.27500000000001
10
-250.72500000000002
20
121.27499999999999
42
-0.41421356237309503
10
-250.17500000000001
20
120.72499999999999
10
-250.17499999999998
20
107.825
42
-0.41421356237309503
10
-250.72500000000002
20
107.27499999999998
10
-282.67500000000001
20
107.27499999999998
42
-0.41421356237309503
10
-283.22500000000002
20
107.825
10
-283.22500000000002
20
120.72499999999999
42
-0.41421356237304774
10
-282.67500000000001
20
121.27500000000003
10
-282.13799999999998
20
121.27500000000001
10
-282.13799999999998
20
122.72500000000001
42
-0.41421356237314239
10
-281.58800000000002
20
123.27500000000001
10
-275.68800000000005
20
123.27499999999995
42
-0.41421356237312346
10
-275.13800000000003
20
122.72500000000001
10
-275.13799999999998
20
121.27500000000001
10
-258.262
20
121.27500000000001
10
-258.26200000000006
20
122.72500000000001
42
-0.41421356237309503
10
-257.71199999999999
20
123.27500000000008
10
-251.81200000000004
20
123.27499999999998
42
-0.41421356237309503
10
-251.26200000000009
20
122.72500000000001
0
LWPOLYLINE
5
277
100
AcDbEntity
8
0
100
AcDbPolyline
90
8
70
1
43
0.0
10
-244.57499999999999
20
121.27500000000001
10
-231.67500000000004
20
121.27500000000012
42
-0.41421356237306667
10
-231.12499999999994
20
120.72499999999999
10
-231.12500000000009
20
107.825
42
-0.41421356237309503
10
-231.67500000000004
20
107.27500000000005
10
-244.57499999999999
20
107.27499999999991
42
-0.41421356237307611
10
-245.12500000000006
20
107.825
10
-245.12499999999994
20
120.72499999999999
42
-0.41421356237307611
0
LWPOLYLINE
5
278
100
AcDbEntity
8
0
100
AcDbPolyline
90
8
70
1
43
0.0
10
-226.07500000000002
20
107.825
10
-226.07499999999993
20
120.72499999999999
42
-0.41421356237306667
10
-225.52500000000003
20
121.27499999999996
10
-212.62500000000003
20
121.27500000000006
42
-0.41421356237309503
10
-212.07499999999996
20
120.72499999999999
10
-212.07499999999996
20
107.825
42
-0.41421356237314239
10
-212.62500000000003
20
107.27499999999992
10
-225.52500000000003
20
107.27499999999999
42
-0.41421356237310453
0
LWPOLYLINE
5
279
100
AcDbEntity
8
0
100
AcDbPolyline
90
8
70
1
43
0.0
10
-68.362499999999997
20
159.375
10
-55.462500000000006
20
159.37500000000003
42
-0.4142135623730856
10
-54.912500000000009
20
158.82499999999999
10
-54.91249999999998
20
145.92500000000001
42
-0.41421356237307144
10
-55.462500000000006
20
145.37499999999997
10
-68.362499999999997
20
145.375
42
-0.4142135623730856
10
-68.912499999999994
20
145.92500000000001
10
-68.91249999999998
20
158.82499999999999
42
-0.4142135623730856
0
LWPOLYLINE
5
280
100
AcDbEntity
8
0
100
AcDbPolyline
90
8
70
1
43
0.0
10
-45.9375
20
164.42500000000001
10
-58.837499999999999
20
164.42500000000001
42
-0.41421356237310453
10
-59.387499999999996
20
164.97499999999999
10
-59.387500000000017
20
177.875
42
-0.41421356237302881
10
-58.837499999999999
20
178.42500000000001
10
-45.9375
20
178.42500000000001
42
-0.41421356237312812
10
-45.387499999999996
20
177.875
10
-45.387500000000074
20
164.97499999999999
42
-0.41421356237307611
0
LWPOLYLINE
5
281
100
AcDbEntity
8
0
100
AcDbPolyline
90
8
70
1
43
0.0
10
-88.674999999999997
20
197.47499999999999
42
0.41421356237307611
10
-89.224999999999994
20
196.92500000000001
10
-89.22499999999998
20
182.02500000000001
42
0.41421356237307611
10
-88.674999999999997
20
181.47500000000002
10
-78.018749999999997
20
181.47499999999997
42
0.41421356237309503
10
-77.46875
20
182.02500000000001
10
-77.468750000000014
20
196.92500000000001
42
0.41421356237302881
10
-78.018749999999997
20
197.47500000000002
0
LWPOLYLINE
5
282
100
AcDbEntity
8
0
100
AcDbPolyline
90
8
70
1
43
0.0
10
-87.962500000000006
20
145.92500000000001
10
-87.962500000000006
20
158.82499999999999
42
-0.4142135623730383
10
-87.412500000000094
20
159.37500000000003
10
-74.512500000000003
20
159.37500000000003
42
-0.4142135623730856
10
-73.962500000000006
20
158.82499999999999
10
-73.962499999999977
20
145.92500000000001
42
-0.41421356237309975
10
-74.512500000000003
20
145.375
10
-87.412500000000094
20
145.375
42
-0.41421356237300044
0
LWPOLYLINE
5
283
100
AcDbEntity
8
0
100
AcDbPolyline
90
8
70
1
43
0.0
10
-302.27499999999998
20
184.02500000000001
42
0.41421356237305718
10
-301.72500000000002
20
183.47500000000008
10
-288.82499999999999
20
183.47499999999997
42
0.41421356237318963
10
-288.27499999999998
20
184.02500000000001
10
-288.27499999999998
20
196.92500000000001
42
0.41421356237313289
10
-288.82499999999999
20
197.47500000000002
10
-301.72500000000002
20
197.47499999999999
42
0.41421356237311396
10
-302.27499999999998
20
196.92500000000001
0
LWPOLYLINE
5
284
100
AcDbEntity
8
0
100
AcDbPolyline
90
8
70
1
43
0.0
10
-35.862499999999997
20
158.82499999999999
10
-35.862500000000011
20
145.92500000000001
42
-0.41421356237309037
10
-36.412500000000001
20
145.375
10
-49.3125
20
145.37500000000003
42
-0.41421356237309975
10
-49.86249999999999
20
145.92500000000001
10
-49.86249999999999
20
158.82499999999999
42
-0.41421356237309975
10
-49.3125
20
159.37499999999997
10
-36.412500000000001
20
159.37500000000003
42
-0.41421356237309037
0
LWPOLYLINE
5
285
100
AcDbEntity
8
0
100
AcDbPolyline
90
8
70
1
43
0.0
10
-174.52500000000001
20
107.27500000000006
42
0.41421356237304774
10
-173.97500000000005
20
107.825
10
-173.97500000000005
20
120.72499999999999
42
0.41421356237309503
10
-174.52500000000001
20
121.27500000000001
10
-187.42500000000004
20
121.27499999999998
42
0.41421356237309503
10
-187.97499999999999
20
120.72499999999999
10
-187.97500000000002
20
107.825
42
0.41421356237309503
10
-187.42500000000004
20
107.27500000000001
0
LWPOLYLINE
5
286
100
AcDbEntity
8
0
100
AcDbPolyline
90
8
70
1
43
0.0
10
-29.869250000000008
20
179.875
42
0.41421356237312812
10
-30.419250000000005
20
180.42500000000001
10
-36.319249999999997
20
180.42500000000001
42
0.41421356237310453
10
-36.869250000000008
20
179.875
10
-36.869249999999973
20
164.97499999999999
42
0.41421356237309975
10
-36.319249999999997
20
164.42500000000001
10
-30.419250000000005
20
164.42499999999998
42
0.41421356237308321
10
-29.869250000000001
20
164.97499999999999
0
LWPOLYLINE
5
287
100
AcDbEntity
8
0
100
AcDbPolyline
90
8
70
1
43
0.0
10
-73.125
20
121.27500000000001
10
-60.225000000000009
20
121.27499999999998
42
-0.4142135623730856
10
-59.675000000000018
20
120.72499999999999
10
-59.674999999999983
20
107.82500000000002
42
-0.41421356237310919
10
-60.225000000000009
20
107.27499999999998
10
-73.125
20
107.27499999999995
42
-0.41421356237310919
10
-73.675000000000054
20
107.825
10
-73.675000000000011
20
120.72499999999998
42
-0.41421356237309037
0
LWPOLYLINE
5
288
100
AcDbEntity
8
0
100
AcDbPolyline
90
8
70
1
43
0.0
10
-116.82500000000002
20
120.72499999999999
10
-116.82499999999999
20
107.825
42
-0.41421356237309503
10
-117.375
20
107.27499999999999
10
-130.27500000000001
20
107.27500000000001
42
-0.41421356237307611
10
-130.82500000000002
20
107.825
10
-130.82500000000005
20
120.72499999999999
42
-0.41421356237309503
10
-130.27500000000001
20
121.27500000000001
10
-117.375
20
121.27499999999999
42
-0.41421356237309503
0
LWPOLYLINE
5
289
100
AcDbEntity
8
0
100
AcDbPolyline
90
8
70
1
43
0.0
10
-93.562500000000099
20
145.37499999999997
42
0.41421356237305718
10
-93.012500000000045
20
145.92500000000001
10
-93.012500000000045
20
158.82499999999999
42
0.41421356237305718
10
-93.562500000000099
20
159.375
10
-106.46250000000002
20
159.37499999999997
42
0.41421356237311396
10
-107.01250000000002
20
158.82499999999999
10
-107.0125
20
145.92500000000001
42
0.41421356237313289
10
-106.46250000000002
20
145.375
0
LWPOLYLINE
5
290
100
AcDbEntity
8
0
100
AcDbPolyline
90
8
70
1
43
0.0
10
-102.25000000000001
20
126.875
10
-102.25000000000006
20
139.77500000000001
42
-0.41421356237305718
10
-101.70000000000002
20
140.32500000000005
10
-88.800000000000097
20
140.32499999999999
42
-0.41421356237314239
10
-88.250000000000028
20
139.77500000000001
10
-88.250000000000043
20
126.875
42
-0.41421356237312346
10
-88.800000000000011
20
126.32500000000002
10
-101.70000000000002
20
126.325
42
-0.41421356237309503
0
LWPOLYLINE
5
291
100
AcDbEntity
8
0
100
AcDbPolyline
90
8
70
1
43
0.0
10
-269.22500000000002
20
177.875
10
-269.22500000000002
20
164.97499999999999
42
-0.41421356237313289
10
-269.77499999999998
20
164.42499999999998
10
-282.67500000000001
20
164.42499999999993
42
-0.41421356237305718
10
-283.22500000000008
20
164.97499999999999
10
-283.22500000000002
20
177.875
42
-0.41421356237307611
10
-282.67500000000001
20
178.42500000000007
10
-269.77499999999998
20
178.42499999999998
42
-0.41421356237305718
0
LWPOLYLINE
5
292
100
AcDbEntity
8
0
100
AcDbPolyline
90
8
70
1
43
0.0
10
-243.03125
20
177.875
10
-243.03125
20
164.97499999999999
42
-0.41421356237313289
10
-243.58125000000001
20
164.42499999999998
10
-256.48124999999999
20
164.42499999999998
42
-0.41421356237301937
10
-257.03125
20
164.97499999999999
10
-257.03125
20
177.875
42
-0.41421356237313289
10
-256.48124999999999
20
178.42500000000001
10
-243.58125000000001
20
178.42500000000001
42
-0.41421356237305718
0
LWPOLYLINE
5
293
100
AcDbEntity
8
0
100
AcDbPolyline
90
8
70
1
43
0.0
10
-216.83750000000003
20
177.875
10
-216.83749999999992
20
164.97499999999999
42
-0.41421356237305718
10
-217.38749999999999
20
164.42499999999993
10
-230.28750000000002
20
164.42499999999998
42
-0.41421356237311396
10
-230.83749999999998
20
164.97499999999999
10
-230.83749999999998
20
177.875
42
-0.41421356237305718
10
-230.28750000000002
20
178.42499999999998
10
-217.38749999999999
20
178.42500000000001
42
-0.41421356237318963
0
LWPOLYLINE
5
294
100
AcDbEntity
8
0
100
AcDbPolyline
90
8
70
1
43
0.0
10
-197.78750000000002
20
177.875
10
-197.78749999999991
20
164.97499999999999
42
-0.41421356237307611
10
-198.33750000000003
20
164.42499999999993
10
-211.23750000000001
20
164.42499999999998
42
-0.41421356237313289
10
-211.78750000000002
20
164.97499999999999
10
-211.78749999999994
20
177.875
42
-0.41421356237305718
10
-211.23750000000001
20
178.42499999999995
10
-198.33750000000003
20
178.42500000000001
42
-0.41421356237320855
0
LWPOLYLINE
5
295
100
AcDbEntity
8
0
100
AcDbPolyline
90
8
70
1
43
0.0
10
-178.73750000000001
20
177.875
10
-178.73749999999987
20
164.97499999999999
42
-0.41421356237300044
10
-179.28750000000002
20
164.4249999999999
10
-192.1875
20
164.42499999999995
42
-0.41421356237305718
10
-192.73750000000004
20
164.97499999999999
10
-192.73750000000001
20
177.875
42
-0.41421356237313289
10
-192.1875
20
178.42500000000001
10
-179.28750000000002
20
178.42500000000001
42
-0.41421356237305718
0
LWPOLYLINE
5
296
100
AcDbEntity
8
0
100
AcDbPolyline
90
8
70
1
43
0.0
10
-121.58750000000001
20
177.875
10
-121.58749999999999
20
164.97500000000002
42
-0.41421356237310453
10
-122.13750000000002
20
164.42499999999998
10
-135.03749999999999
20
164.42499999999995
42
-0.41421356237307611
10
-135.58750000000001
20
164.97499999999999
10
-135.58750000000001
20
177.875
42
-0.41421356237310453
10
-135.03749999999999
20
178.42500000000001
10
-122.13750000000002
20
178.42500000000001
42
-0.41421356237310453
0
LWPOLYLINE
5
297
100
AcDbEntity
8
0
100
AcDbPolyline
90
8
70
1
43
0.0
10
-156.66249999999999
20
177.42500017906704
10
-156.66249999999999
20
165.42500007795701
42
-0.41421356237309503
10
-157.01249999999999
20
165.07500007795701
10
-157.3125
20
165.07500007795701
42
-0.41421356237309503
10
-157.66250000000002
20
165.42500007795701
10
-157.66250000000002
20
177.42500017906704
42
-0.41421356237309503
10
-157.3125
20
177.77500017906704
10
-157.01249999999999
20
177.77500017906704
42
-0.41421356237309503
0
LWPOLYLINE
5
298
100
AcDbEntity
8
0
100
AcDbPolyline
90
8
70
1
43
0.0
10
-140.63749999999999
20
177.875
10
-140.63750000000002
20
164.97499999999999
42
-0.41421356237309503
10
-141.1875
20
164.42499999999998
10
-154.08750000000001
20
164.42499999999995
42
-0.41421356237310453
10
-154.63750000000007
20
164.97499999999999
10
-154.63750000000002
20
177.87499999999997
42
-0.4142135623730856
10
-154.08750000000001
20
178.42500000000004
10
-141.1875
20
178.42500000000001
42
-0.41421356237305718
0
LWPOLYLINE
5
299
100
AcDbEntity
8
0
100
AcDbPolyline
90
8
70
1
43
0.0
10
-119.21250000000001
20
177.775000179074
10
-118.91249999999999
20
177.775000179074
42
-0.41421356237309503
10
-118.5625
20
177.425000179074
10
-118.5625
20
165.425000077954
42
-0.41421356237309503
10
-118.91249999999999
20
165.075000077954
10
-119.21250000000001
20
165.075000077954
42
-0.41421356237309503
10
-119.5625
20
165.425000077954
10
-119.5625
20
177.425000179074
42
-0.41421356237309503
0
LWPOLYLINE
5
300
100
AcDbEntity
8
0
100
AcDbPolyline
90
8
70
1
43
0.0
10
-164.16250000000002
20
145.92500000000001
10
-164.16249999999997
20
158.82499999999999
42
-0.41421356237310453
10
-163.61250000000001
20
159.375
10
-150.71250000000001
20
159.37499999999989
42
-0.41421356237309503
10
-150.16250000000011
20
158.82499999999999
10
-150.16249999999999
20
145.92500000000001
42
-0.41421356237309503
10
-150.71250000000001
20
145.375
10
-163.61249999999998
20
145.375
42
-0.41421356237310453
0
LWPOLYLINE
5
301
100
AcDbEntity
8
0
100
AcDbPolyline
90
8
70
1
43
0.0
10
-105.27500000000002
20
127.324999774592
10
-105.27500000000001
20
139.32499987571299
42
-0.41421356237309503
10
-104.925
20
139.67499987571298
10
-104.625
20
139.67499987571298
42
-0.41421356237309503
10
-104.27500000000001
20
139.32499987571299
10
-104.27500000000001
20
127.324999774592
42
-0.41421356237309503
10
-104.625
20
126.97499977459201
10
-104.925
20
126.97499977459199
42
-0.41421356237309503
0
ENDSEC
0
SECTION
2
OBJECTS
0
DICTIONARY
5
C
100
AcDbDictionary
3
ACAD_GROUP
350
D
3
ACAD_MLINESTYLE
350
17
0
DICTIONARY
5
D
100
AcDbDictionary
0
DICTIONARY
5
1A
330
C
100
AcDbDictionary
0
DICTIONARY
5
17
100
AcDbDictionary
0
ENDSEC
0
EOF
