0
SECTION
2
HEADER
9
$INSUNITS
70
4
9
$ACADVER
1
AC1014
9
$HANDSEED
5
FFFF
0
ENDSEC
0
SECTION
2
TABLES
0
TABLE
2
VPORT
5
8
100
AcDbSymbolTable
0
ENDTAB
0
TABLE
2
LTYPE
5
5
100
AcDbSymbolTable
0
LTYPE
5
14
100
AcDbSymbolTableRecord
100
AcDbLinetypeTableRecord
2
BYBLOCK
70
0
0
LTYPE
5
15
100
AcDbSymbolTableRecord
100
AcDbLinetypeTableRecord
2
BYLAYER
70
0
0
ENDTAB
0
TABLE
2
LAYER
5
2
100
AcDbSymbolTable
70
2
0
LAYER
5
50
100
AcDbSymbolTableRecord
100
AcDbLayerTableRecord
2
0
70
0
6
CONTINUOUS
0
ENDTAB
0
TABLE
2
STYLE
5
3
100
AcDbSymbolTable
70
1
0
STYLE
5
11
100
AcDbSymbolTableRecord
100
AcDbTextStyleTableRecord
2
STANDARD
70
0
0
ENDTAB
0
TABLE
2
VIEW
5
6
100
AcDbSymbolTable
70
0
0
ENDTAB
0
TABLE
2
UCS
5
7
100
AcDbSymbolTable
70
0
0
ENDTAB
0
TABLE
2
APPID
5
9
100
AcDbSymbolTable
70
2
0
APPID
5
12
100
AcDbSymbolTableRecord
100
AcDbRegAppTableRecord
2
ACAD
70
0
0
ENDTAB
0
TABLE
2
DIMSTYLE
5
A
100
AcDbSymbolTable
70
1
0
ENDTAB
0
TABLE
2
BLOCK_RECORD
5
1
100
AcDbSymbolTable
70
1
0
BLOCK_RECORD
5
1F
100
AcDbSymbolTableRecord
100
AcDbBlockTableRecord
2
*MODEL_SPACE
0
BLOCK_RECORD
5
1B
100
AcDbSymbolTableRecord
100
AcDbBlockTableRecord
2
*PAPER_SPACE
0
ENDTAB
0
ENDSEC
0
SECTION
2
BLOCKS
0
BLOCK
5
20
100
AcDbEntity
100
AcDbBlockBegin
2
*MODEL_SPACE
0
ENDBLK
5
21
100
AcDbEntity
100
AcDbBlockEnd
0
BLOCK
5
1C
100
AcDbEntity
100
AcDbBlockBegin
2
*PAPER_SPACE
0
ENDBLK
5
1D
100
AcDbEntity
100
AcDbBlockEnd
0
ENDSEC
0
SECTION
2
ENTITIES
0
LINE
5
100
100
AcDbEntity
8
0
100
AcDbLine
10
-67.943749435332435
20
105.72814913500318
30
4.3368086899420177e-17
11
-67.943749358398975
21
12.059491546010772
31
3.3306690738754696e-15
0
ARC
5
101
100
AcDbEntity
8
0
100
AcDbCircle
10
-66.918749358398969
20
12.05949154769451
30
3.2699537522162814e-15
40
1.0250000000000092
210
5.9234460155305081e-17
220
9.7302719425926242e-26
230
1
100
AcDbArc
50
180
51
234.57869508305993
0
ARC
5
102
100
AcDbEntity
8
0
100
AcDbCircle
10
-68.382199539603988
20
10.001837891917855
30
3.4087316302944259e-15
40
1.5000000000000038
210
2.2493581071832537e-15
220
3.7659040637976154e-23
230
1
100
AcDbArc
50
8.5377364625159387e-07
51
54.578695083060673
0
LINE
5
103
100
AcDbEntity
8
0
100
AcDbLine
10
-66.882199539603988
20
10.001837917031047
30
3.4694469519536142e-17
11
-66.882199492695321
21
8.5344890573179004
31
5.9674487573602164e-15
0
ARC
5
104
100
AcDbEntity
8
0
100
AcDbCircle
10
-64.882199435330307
20
8.5344890736563919
30
8.6736173798840355e-18
40
2.0000000573650123
210
2.9793874845338666e-15
220
2.433934975571402e-23
230
1
100
AcDbArc
50
180
51
270.00000000003502
0
LINE
5
105
100
AcDbEntity
8
0
100
AcDbLine
10
-64.882199435329085
20
6.5344890162910829
30
2.6020852139652106e-17
11
12.767800534470766
21
6.53448901629144
31
0
0
ARC
5
106
100
AcDbEntity
8
0
100
AcDbCircle
10
12.767800564669667
20
8.5344890736564274
30
8.6736173798840355e-18
40
2.0000000573649879
210
-6.5483424726857814e-26
220
-4.3368085655515313e-18
230
1
100
AcDbArc
50
269.99999913486522
51
359.99999914622634
0
LINE
5
107
100
AcDbEntity
8
0
100
AcDbLine
10
14.767800622034976
20
8.5344890434575191
30
-8.6736173798840355e-18
11
14.767800604958214
21
10.034474635896
31
1.5352302762394743e-15
0
ARC
5
108
100
AcDbEntity
8
0
100
AcDbCircle
10
16.267800604958197
20
10.034474638359203
30
1.6479873021779667e-15
40
1.4999999999999813
210
-4.5800422786296436e-18
220
1.0928661927640787e-15
230
1
100
AcDbArc
50
90.240116821264408
51
180
0
LINE
5
109
100
AcDbEntity
8
0
100
AcDbLine
10
16.261514379678385
20
11.534461466091926
30
8.6736173798840355e-18
11
79.485893520979417
21
11.534475460915543
31
0
0
LINE
5
110
100
AcDbEntity
8
0
100
AcDbLine
10
79.485893520979417
20
11.534475460915543
30
0
11
128.3812499499156
21
11.534466337394953
31
8.6736173798840355e-18
0
LINE
5
111
100
AcDbEntity
8
0
100
AcDbLine
10
128.38124994991932
20
11.534486283985661
30
8.6736173798840355e-18
11
133.59470016302365
21
11.534487437991714
31
0
0
ARC
5
112
100
AcDbEntity
8
0
100
AcDbCircle
10
133.5947004950512
20
10.034487437991746
30
1.1015494072452725e-15
40
1.5000000000000036
210
-3.4694469519536062e-17
220
-2.8342647581503299e-25
230
1
100
AcDbArc
50
0
51
90.000012682518346
0
LINE
5
113
100
AcDbEntity
8
0
100
AcDbLine
10
135.0947004950512
20
10.034487450245564
30
1.1535911115245767e-15
11
135.09470050730502
21
8.5344889802464401
31
5.9674487573602164e-15
0
ARC
5
114
100
AcDbEntity
8
0
100
AcDbCircle
10
137.094700564671
20
8.534488996584864
30
8.6736173798840355e-18
40
2.0000000573659982
210
2.9793874845323977e-15
220
2.4339247214370844e-23
230
1
100
AcDbArc
50
180
51
270.00000000002848
0
LINE
5
115
100
AcDbEntity
8
0
100
AcDbLine
10
137.094700564672
20
6.5344889392195533
30
1.7347234759768071e-17
11
214.74470053447203
21
6.5344889392208794
31
8.6736173798840355e-18
0
ARC
5
116
100
AcDbEntity
8
0
100
AcDbCircle
10
214.74470056467101
20
8.5344889965858659
30
8.6736173798840355e-18
40
2.000000057364987
210
0
220
0
230
1
100
AcDbArc
50
269.99999913486306
51
359.99999914622634
0
LINE
5
117
100
AcDbEntity
8
0
100
AcDbLine
10
216.74470062203631
20
8.5344889663869097
30
-8.6736173798840355e-18
11
216.74470060501406
21
10.001780066839956
31
1.8908485888147197e-15
0
ARC
5
118
100
AcDbEntity
8
0
100
AcDbCircle
10
218.24470060501409
20
10.001780069302448
30
2.7929047963226594e-15
40
1.5000000000000049
210
-5.8984535618648029e-16
220
8.2933996734360023e-16
230
1
100
AcDbArc
50
125.42129885248471
51
180
0
ARC
5
119
100
AcDbEntity
8
0
100
AcDbCircle
10
216.78125064160085
20
12.059433879977579
30
2.680147770384167e-15
40
1.0250000000000108
210
7.9943009749218381e-16
220
-1.1240222949862046e-15
230
1
100
AcDbArc
50
-54.578701147517577
51
0
0
LINE
5
120
100
AcDbEntity
8
0
100
AcDbLine
10
217.80625064160088
20
12.059433881661299
30
1.0104977436406481e-08
11
217.80625056466729
21
105.72820726874626
31
1.5216455179212218e-08
0
ARC
5
121
100
AcDbEntity
8
0
100
AcDbCircle
10
216.78125056466729
20
105.72820726874626
30
-3.2181869260077577e-06
40
1.0249999999999915
210
-1.4845319511282513e-08
220
-2.5727399850681851e-22
230
1
100
AcDbArc
50
0
51
54.578701241633794
0
ARC
5
122
100
AcDbEntity
8
0
100
AcDbCircle
10
218.24470052470048
20
107.78586108182535
30
2.7929047963226594e-15
40
1.4999999999999858
210
-2.3129646346357648e-17
220
-2.3282353105481694e-29
230
1
100
AcDbArc
50
180
51
234.57870124163514
0
LINE
5
123
100
AcDbEntity
8
0
100
AcDbLine
10
216.74470052470048
20
107.78586108182382
30
2.7582103268031233e-15
11
216.744700524699
21
109.25315159909503
31
9.540979117872439e-17
0
ARC
5
124
100
AcDbEntity
8
0
100
AcDbCircle
10
214.7447004673337
20
109.25315159909303
30
4.9266146717741321e-15
40
2.0000000573653054
210
2.4156023710118202e-15
220
2.4243989935171503e-27
230
1
100
AcDbArc
50
0
51
89.99999999973619
0
LINE
5
125
100
AcDbEntity
8
0
100
AcDbLine
10
214.74470046734291
20
111.25315165645833
30
4.9960036108132044e-15
11
137.09470046733543
21
111.25315165681529
31
-1.474898481210879e-07
0
ARC
5
126
100
AcDbEntity
8
0
100
AcDbCircle
10
137.09470046733443
20
109.25315159927102
30
8.0568651763024253e-06
40
2.0000000575439945
210
3.6679242131644223e-20
220
7.3744922298710375e-08
230
0.99999999999999745
100
AcDbArc
50
89.999999999971507
51
180
0
LINE
5
127
100
AcDbEntity
8
0
100
AcDbLine
10
135.09470040979036
20
109.25315159927229
30
6.6786853825107073e-16
11
135.09470040978968
21
107.75319022276199
31
8.6736173798840355e-18
0
ARC
5
128
100
AcDbEntity
8
0
100
AcDbCircle
10
133.59470040978965
20
107.75319022276273
30
5.1868231931706532e-15
40
1.4999999999999993
210
7.109338969963368e-24
220
-3.4694469519535421e-17
230
1
100
AcDbArc
50
270.00001174063613
51
360
0
LINE
5
129
100
AcDbEntity
8
0
100
AcDbLine
10
133.59470071715879
20
106.25319022276275
30
5.134781488891349e-15
11
16.267800832067412
21
106.25316618098678
31
8.6736173798840355e-18
0
ARC
5
130
100
AcDbEntity
8
0
100
AcDbCircle
10
16.267800524698302
20
107.75316618098672
30
1.6479873021779667e-15
40
1.4999999999999991
210
-7.5171350625661682e-17
220
-4.0949550461993545e-29
230
1
100
AcDbArc
50
180
51
270.0000117406351
0
LINE
5
131
100
AcDbEntity
8
0
100
AcDbLine
10
14.767800524698306
20
107.75316618098591
30
1.5352302762394743e-15
11
14.767800524697488
21
109.253151675986
31
5.9674487573602164e-15
0
ARC
5
132
100
AcDbEntity
8
0
100
AcDbCircle
10
12.7678004673324
20
109.25315167598492
30
7.1991024253037494e-16
40
2.0000000573650878
210
-2.6237691821585461e-15
220
-1.4215288104060927e-27
230
1
100
AcDbArc
50
0
51
90.000000000031648
0
LINE
5
133
100
AcDbEntity
8
0
100
AcDbLine
10
12.767800467331295
20
111.25315173335024
30
7.3725747729014302e-16
11
-64.882199540208063
21
111.25315173370693
31
8.6736173798840355e-18
0
ARC
5
134
100
AcDbEntity
8
0
100
AcDbCircle
10
-64.882199540217272
20
109.25315167616283
30
-3.4954678040932663e-15
40
2.0000000575440957
210
-8.0608637625809906e-27
220
-1.7520706603259143e-15
230
1
100
AcDbArc
50
89.99999999973619
51
179.99999914622637
0
LINE
5
135
100
AcDbEntity
8
0
100
AcDbLine
10
-66.882199597761343
20
109.25315170636173
30
-3.5214886562329184e-15
11
-66.8821996199175
21
107.78580276572669
31
3.4694469519536142e-17
0
ARC
5
136
100
AcDbEntity
8
0
100
AcDbCircle
10
-68.382199619917515
20
107.78580278837586
30
3.4087316302944259e-15
40
1.5000000000000038
210
1.675697287869517e-17
220
-2.3560792725643626e-17
230
1
100
AcDbArc
50
305.42130501105839
51
359.99999914622634
0
ARC
5
137
100
AcDbEntity
8
0
100
AcDbCircle
10
-66.91874943533243
20
105.72814913500318
30
3.2699537522162814e-15
40
1.0249999999999995
210
5.3949278536286975e-17
220
-7.5854259506950508e-17
230
1
100
AcDbArc
50
125.42130501105781
51
180
0
LWPOLYLINE
5
138
100
AcDbEntity
8
0
100
AcDbPolyline
90
8
70
1
43
0.0
10
-35.59424943533287
20
52.409492765657326
10
-35.594249435333765
20
64.909492765658456
42
0.41421356237309853
10
-36.344249435333857
20
65.659492765658442
10
-40.011999435333799
20
65.659492765658158
42
0.41421356237309503
10
-40.761999435333742
20
64.909492765658115
10
-40.761999435332712
20
52.409492765657191
42
0.41421356237306384
10
-40.011999435332768
20
51.659492765657298
10
-36.344249435332955
20
51.659492765657205
42
0.41421356237312101
0
LWPOLYLINE
5
139
100
AcDbEntity
8
0
100
AcDbPolyline
90
8
70
1
43
0.0
10
179.56150056466728
20
50.409492765657376
10
179.56150056466612
20
66.909492765658555
42
0.41421356237310197
10
178.81150056466601
20
67.659492765658527
10
177.34375056466601
20
67.659492765658428
42
0.41421356237309159
10
176.59375056466612
20
66.909492765658371
10
176.59375056466743
20
50.409492765657191
42
0.41421356237307078
10
177.3437505646674
20
49.659492765657298
10
178.81150056466726
20
49.659492765657262
42
0.41421356237311585
0
LWPOLYLINE
5
140
100
AcDbEntity
8
0
100
AcDbPolyline
90
8
70
1
43
0.0
10
187.18700056466631
20
65.659492765658186
10
181.68700056466631
20
65.659492765658186
42
0.41421356237309503
10
180.93700056466631
20
64.909492765658186
10
180.93700056466736
20
50.40949276565815
42
0.41421356237309503
10
181.68700056466733
20
49.659492765658158
10
187.18700056466733
20
49.659492765658122
42
0.41421356237309503
10
187.93700056466733
20
50.40949276565815
10
187.93700056466611
20
64.909492765658186
42
0.41421356237309503
0
LWPOLYLINE
5
141
100
AcDbEntity
8
0
100
AcDbPolyline
90
8
70
1
43
0.0
10
202.62500056466632
20
65.659492765659223
10
190.12500056466632
20
65.659492765658186
42
0.41421356237309503
10
189.37500056466629
20
64.909492765658186
10
189.37500056466735
20
52.409492765658158
42
0.41421356237309503
10
190.12500056466735
20
51.659492765658129
10
202.62500056466735
20
51.659492765659138
42
0.41421356237309503
10
203.37500056466735
20
52.409492765659202
10
203.37500056466644
20
64.909492765658229
42
0.41421356237309503
0
LWPOLYLINE
5
142
100
AcDbEntity
8
0
100
AcDbPolyline
90
8
70
1
43
0.0
10
211.06300056466631
20
65.659492765659223
10
205.56300056466628
20
65.659492765659223
42
0.41421356237309503
10
204.81300056466631
20
64.909492765659195
10
204.81300056466739
20
50.409492765659188
42
0.41421356237309503
10
205.56300056466736
20
49.659492765659195
10
211.06300056466736
20
49.659492765659124
42
0.41421356237309503
10
211.81300056466736
20
50.409492765659188
10
211.8130005646662
20
64.909492765659195
42
0.41421356237309503
0
LWPOLYLINE
5
143
100
AcDbEntity
8
0
100
AcDbPolyline
90
8
70
1
43
0.0
10
216.15625056466726
20
50.409492765656296
10
216.1562505646686
20
66.909492765661227
42
0.41421356237314705
10
215.40625056466854
20
67.659492765658399
10
213.93850056466849
20
67.659492765661156
42
0.41421356237304652
10
213.18850056466857
20
66.90949276566117
10
213.18850056466741
20
50.409492765656566
42
0.41421356237311935
10
213.93850056466746
20
49.659492765657269
10
215.40625056466729
20
49.659492765656417
42
0.41421356237307078
0
LWPOLYLINE
5
144
100
AcDbEntity
8
0
100
AcDbPolyline
90
8
70
1
43
0.0
10
-38.074499435334211
20
85.959492765650069
10
-38.074499435333813
20
71.459492765650069
42
0.41421356237313323
10
-37.324499435333713
20
70.709492765650083
10
-31.824499435333706
20
70.70949276565004
42
0.41421356237309503
10
-31.07449943533371
20
71.459492765650069
10
-31.074499435334268
20
85.959492765650069
42
0.4142135623730569
10
-31.824499435334211
20
86.709492765650054
10
-37.324499435334218
20
86.709492765650097
42
0.41421356237309331
0
LWPOLYLINE
5
145
100
AcDbEntity
8
0
100
AcDbPolyline
90
8
70
1
43
0.0
10
-9.306249435334216
20
84.709492765651092
10
-21.806249435334113
20
84.709492765651092
42
0.41421356237349044
10
-22.556249435334109
20
83.959492765650083
10
-22.556249435333761
20
71.459492765650069
42
0.41421356237268919
10
-21.806249435333708
20
70.709492765650083
10
-9.3062494353338074
20
70.709492765651049
42
0.41421356237309503
10
-8.556249435333708
20
71.459492765651106
10
-8.556249435334319
20
83.959492765651106
42
0.41421356237309503
0
LWPOLYLINE
5
146
100
AcDbEntity
8
0
100
AcDbPolyline
90
8
70
1
43
0.0
10
-52.762499435333751
20
70.709492765649088
42
-0.41421356237308815
10
-53.51249943533378
20
71.459492765649145
10
-53.51249943533422
20
83.959492765649131
42
-0.41421356237312623
10
-52.762499435334185
20
84.709492765649088
10
-40.262499435334256
20
84.709492765649998
42
-0.41421356237312623
10
-39.51249943533427
20
83.959492765650083
10
-39.512499435333723
20
71.459492765650069
42
-0.41421356237309503
10
-40.262499435333751
20
70.70949276565004
0
LWPOLYLINE
5
147
100
AcDbEntity
8
0
100
AcDbPolyline
90
8
70
1
43
0.0
10
-61.950499435334322
20
85.959492765649102
10
-61.950499435333811
20
71.459492765649145
42
0.41421356237309503
10
-61.200499435333711
20
70.709492765649145
10
-55.700499435333661
20
70.709492765649145
42
0.41421356237304652
10
-54.950499435333782
20
71.459492765649145
10
-54.950499435334208
20
85.959492765649102
42
0.41421356237315404
10
-55.700499435334308
20
86.709492765649117
10
-61.200499435334223
20
86.709492765649102
42
0.41421356237313323
0
LWPOLYLINE
5
148
100
AcDbEntity
8
0
100
AcDbPolyline
90
8
70
1
43
0.0
10
-2.7562494353337019
20
70.70949276565122
42
-0.41421356237309853
10
-3.506249435333606
20
71.459492765651106
10
-3.5062494353342455
20
83.959492765651106
42
-0.41421356237313323
10
-2.7562494353340128
20
84.709492765651234
10
9.7437505646657883
20
84.709492765652129
42
-0.41421356237313495
10
10.4937505646659
20
83.959492765652115
10
10.493750564666282
20
71.459492765652129
42
-0.41421356237308982
10
9.7437505646663034
20
70.709492765652129
0
LWPOLYLINE
5
149
100
AcDbEntity
8
0
100
AcDbPolyline
90
8
70
1
43
0.0
10
16.293750564666297
20
70.709492765652129
10
28.793750564666297
20
70.709492765652129
42
0.41421356237313145
10
29.543750564666201
20
71.459492765652115
10
29.543750564665903
20
83.959492765652115
42
0.41421356237309681
10
28.793750564665888
20
84.709492765652101
10
16.293750564665888
20
84.709492765652143
42
0.41421356237309331
10
15.543750564665896
20
83.959492765652115
10
15.543750564666245
20
71.459492765652115
42
0.41421356237309681
0
LWPOLYLINE
5
150
100
AcDbEntity
8
0
100
AcDbPolyline
90
8
70
1
43
0.0
10
67.64375056466632
20
71.459492765654119
10
67.643750564666306
20
83.959492765654105
42
0.41421356237309159
10
66.893750564666291
20
84.70949276565409
10
54.393750564666291
20
84.709492765653181
42
0.41421356237309853
10
53.643750564666291
20
83.959492765653152
10
53.643750564666249
20
71.459492765653152
42
0.41421356237309853
10
54.393750564666306
20
70.709492765653167
10
66.893750564666306
20
70.709492765654161
42
0.41421356237309159
0
LWPOLYLINE
5
151
100
AcDbEntity
8
0
100
AcDbPolyline
90
8
70
1
43
0.0
10
39.068750564666914
20
52.409492765653127
10
39.068750564666793
20
64.909492765653155
42
0.41421356237309331
10
38.318750564666601
20
65.659492765653141
10
25.818750564666587
20
65.659492765652061
42
0.41421356237313145
10
25.068750564666594
20
64.909492765652104
10
25.068750564666917
20
52.409492765652146
42
0.41421356237317308
10
25.818750564667102
20
51.659492765652118
10
38.318750564667099
20
51.659492765653241
42
0.41421356237305862
0
LWPOLYLINE
5
152
100
AcDbEntity
8
0
100
AcDbPolyline
90
8
70
1
43
0.0
10
57.3687505646663
20
65.659492765653226
42
-0.41421356237309159
10
58.118750564666371
20
64.909492765653155
10
58.11875056466733
20
52.409492765653127
42
-0.41421356237309159
10
57.368750564667309
20
51.659492765653098
10
44.868750564667117
20
51.659492765653063
42
-0.41421356237314017
10
44.118750564666939
20
52.409492765653127
10
44.118750564666584
20
64.909492765653155
42
-0.41421356237313323
10
44.868750564666712
20
65.659492765653184
0
LWPOLYLINE
5
153
100
AcDbEntity
8
0
100
AcDbPolyline
90
8
70
1
43
0.0
10
-12.281249435333002
20
51.659492765651123
10
0.21875056466699405
20
51.659492765651123
42
0.41421356237309503
10
0.96875056466699583
20
52.409492765651109
10
0.96875056466654241
20
64.909492765651095
42
0.41421356237313323
10
0.21875056466649667
20
65.659492765651095
10
-12.281249435333507
20
65.659492765651166
42
0.4142135623730569
10
-13.03124943533351
20
64.909492765651095
10
-13.031249435333073
20
52.409492765651109
42
0.41421356237313495
0
LWPOLYLINE
5
154
100
AcDbEntity
8
0
100
AcDbPolyline
90
8
70
1
43
0.0
10
35.343750564666394
20
70.709492765652143
42
-0.41421356237313145
10
34.59375056466633
20
71.459492765652115
10
34.593750564665847
20
83.959492765653152
42
-0.41421356237313839
10
35.343750564665989
20
84.709492765653181
10
47.843750564665903
20
84.709492765653152
42
-0.41421356237309159
10
48.593750564665903
20
83.959492765653152
10
48.593750564666365
20
71.459492765653152
42
-0.41421356237304996
10
47.843750564666422
20
70.709492765653081
0
LWPOLYLINE
5
155
100
AcDbEntity
8
0
100
AcDbPolyline
90
8
70
1
43
0.0
10
63.918750564667306
20
51.659492765654136
10
76.418750564667306
20
51.659492765654136
42
0.41421356237309159
10
77.16875056466732
20
52.409492765654122
10
77.168750564666254
20
64.90949276565415
42
0.41421356237309159
10
76.418750564666311
20
65.659492765654136
10
63.918750564666311
20
65.659492765653141
42
0.41421356237309853
10
63.168750564666318
20
64.909492765653155
10
63.16875056466732
20
52.409492765654122
42
0.41421356237309853
0
LWPOLYLINE
5
156
100
AcDbEntity
8
0
100
AcDbPolyline
90
8
70
1
43
0.0
10
73.443750564666303
20
70.709492765654119
10
85.943750564666288
20
70.709492765654119
42
0.41421356237309503
10
86.693750564666317
20
71.459492765654119
10
86.693750564666288
20
83.959492765654105
42
0.41421356237309503
10
85.943750564666288
20
84.70949276565409
10
73.443750564666288
20
84.709492765653991
42
0.41421356237309853
10
72.693750564666288
20
83.959492765654105
10
72.693750564666317
20
71.459492765654119
42
0.41421356237309853
0
LWPOLYLINE
5
157
100
AcDbEntity
8
0
100
AcDbPolyline
90
8
70
1
43
0.0
10
19.268750564666504
20
65.659492765652089
10
6.7687505646665036
20
65.659492765651123
42
0.41421356237309681
10
6.0187505646665995
20
64.909492765652104
10
6.0187505646669948
20
52.409492765652146
42
0.41421356237313839
10
6.7687505646671076
20
51.659492765652118
10
19.268750564667091
20
51.659492765652118
42
0.41421356237305862
10
20.018750564666995
20
52.409492765652146
10
20.018750564666679
20
64.909492765652104
42
0.41421356237316964
0
LWPOLYLINE
5
158
100
AcDbEntity
8
0
100
AcDbPolyline
90
8
70
1
43
0.0
10
-18.831249435333511
20
65.659492765650299
42
-0.4142135623730569
10
-18.08124943533338
20
64.909492765650072
10
-18.081249435333074
20
52.409492765651109
42
-0.41421356237305518
10
-18.831249435333
20
51.659492765651081
10
-31.331249435333
20
51.659492765650086
42
-0.41421356237313495
10
-32.081249435333135
20
52.409492765650114
10
-32.081249435333532
20
64.909492765650072
42
-0.41421356237309503
10
-31.331249435333504
20
65.6594927656501
0
LWPOLYLINE
5
159
100
AcDbEntity
8
0
100
AcDbPolyline
90
8
70
1
43
0.0
10
52.606250564667306
20
46.609492765653144
10
40.106250564667114
20
46.609492765653144
42
0.41421356237309853
10
39.356250564667207
20
45.859492765653151
10
39.356250564667683
20
33.359492765653158
42
0.41421356237314017
10
40.106250564667718
20
32.609492765653123
10
52.606250564667327
20
32.609492765653094
42
0.4142135623730846
10
53.356250564667306
20
33.359492765653158
10
53.356250564667434
20
45.859492765653151
42
0.41421356237309159
0
LWPOLYLINE
5
160
100
AcDbEntity
8
0
100
AcDbPolyline
90
8
70
1
43
0.0
10
-63.037499435333608
20
64.909492765649105
10
-63.037499435333103
20
52.409492765649077
42
0.41421356237313667
10
-62.287499435333004
20
51.659492765649084
10
-45.024999435333044
20
51.65949276565005
42
0.41421356237306384
10
-44.274999435333065
20
52.409492765650114
10
-44.274999435333442
20
64.909492765650072
42
0.41421356237308116
10
-45.024999435333541
20
65.659492765650057
10
-62.287499435333508
20
65.659492765649205
42
0.41421356237309503
0
LWPOLYLINE
5
161
100
AcDbEntity
8
0
100
AcDbPolyline
90
8
70
1
43
0.0
10
-59.906249435332398
20
32.609492765649122
10
-47.406249435332356
20
32.609492765650089
42
0.4142135623730846
10
-46.656249435332327
20
33.35949276565011
10
-46.656249435332839
20
45.859492765650103
42
0.41421356237312623
10
-47.406249435332867
20
46.609492765650096
10
-59.906249435332903
20
46.609492765649058
42
0.41421356237309503
10
-60.656249435332903
20
45.859492765649101
10
-60.656249435332413
20
33.359492765649115
42
0.41421356237309503
0
LWPOLYLINE
5
162
100
AcDbEntity
8
0
100
AcDbPolyline
90
8
70
1
43
0.0
10
-23.593749435332899
20
46.609492765650096
10
-36.093749435332796
20
46.609492765650096
42
0.41421356237313495
10
-36.843749435332796
20
45.859492765650103
10
-36.84374943533237
20
33.35949276565011
42
0.41421356237309503
10
-36.093749435332299
20
32.609492765650089
10
-23.593749435332292
20
32.609492765650046
42
0.4142135623730534
10
-22.843749435332295
20
33.35949276565011
10
-22.843749435332708
20
45.859492765650103
42
0.41421356237317308
0
LWPOLYLINE
5
163
100
AcDbEntity
8
0
100
AcDbPolyline
90
8
70
1
43
0.0
10
-3.7937494353322965
20
33.359492765651083
10
-3.793749435332705
20
45.859492765651105
42
0.41421356237309503
10
-4.5437494353328045
20
46.609492765651098
10
-17.043749435332799
20
46.609492765651098
42
0.41421356237309503
10
-17.793749435332799
20
45.859492765651105
10
-17.79374943533233
20
33.359492765651083
42
0.41421356237309503
10
-17.043749435332298
20
32.60949276565109
10
-4.5437494353323959
20
32.609492765651083
42
0.41421356237313323
0
LWPOLYLINE
5
164
100
AcDbEntity
8
0
100
AcDbPolyline
90
8
70
1
43
0.0
10
1.2562505646672406
20
45.859492765651105
42
-0.41421356237310897
10
2.006250564667198
20
46.609492765651098
10
14.506250564667301
20
46.609492765652135
42
-0.41421356237305518
10
15.256250564667226
20
45.859492765652107
10
15.256250564667662
20
33.359492765652121
42
-0.41421356237309331
10
14.506250564667816
20
32.60949276565227
10
2.0062505646677131
20
32.609492765651268
42
-0.41421356237312279
10
1.2562505646677555
20
33.359492765651083
0
LWPOLYLINE
5
165
100
AcDbEntity
8
0
100
AcDbPolyline
90
8
70
1
43
0.0
10
21.05625056466781
20
32.609492765652128
10
33.556250564667828
20
32.609492765653123
42
0.41421356237308637
10
34.306250564667799
20
33.359492765653158
10
34.306250564667337
20
45.859492765653151
42
0.41421356237272916
10
33.556250564667202
20
46.609492765653144
10
21.056250564667295
20
46.609492765652107
42
0.41421356237313145
10
20.306250564667302
20
45.859492765652107
10
20.306250564667756
20
33.359492765652121
42
0.41421356237313495
0
LWPOLYLINE
5
166
100
AcDbEntity
8
0
100
AcDbPolyline
90
8
70
1
43
0.0
10
30.581250564668419
20
13.559492765652198
42
-0.41421356237313667
10
29.831250564668359
20
14.309492765652161
10
29.831250564667855
20
26.809492765652148
42
-0.41421356237313145
10
30.581250564667904
20
27.559492765652106
10
43.081250564667926
20
27.559492765653211
42
-0.41421356237309159
10
43.831250564667982
20
26.809492765653147
10
43.831250564668409
20
14.309492765653156
42
-0.4142135623731254
10
43.081250564668338
20
13.559492765653165
0
LWPOLYLINE
5
167
100
AcDbEntity
8
0
100
AcDbPolyline
90
8
70
1
43
0.0
10
24.031250564667893
20
27.559492765652141
10
11.531250564667911
20
27.559492765652141
42
0.41421356237313495
10
10.7812505646679
20
26.809492765652148
10
10.781250564668525
20
14.309492765652161
42
0.41421356237309503
10
11.531250564668408
20
13.559492765652132
10
24.031250564668426
20
13.559492765652092
42
0.41421356237309503
10
24.781250564668525
20
14.309492765652161
10
24.781250564667971
20
26.809492765652148
42
0.41421356237309681
0
LWPOLYLINE
5
168
100
AcDbEntity
8
0
100
AcDbPolyline
90
8
70
1
43
0.0
10
4.9812505646678096
20
27.559492765652141
10
-7.5187494353321949
20
27.5594927656511
42
0.4142135623730534
10
-8.2687494353321966
20
26.809492765651115
10
-8.2687494353316371
20
14.309492765651122
42
0.41421356237317569
10
-7.5187494353314843
20
13.559492765651093
10
4.9812505646684135
20
13.559492765651163
42
0.41421356237309764
10
5.7312505646684242
20
14.309492765651157
10
5.7312505646679579
20
26.809492765652148
42
0.41421356237317308
0
LWPOLYLINE
5
169
100
AcDbEntity
8
0
100
AcDbPolyline
90
8
70
1
43
0.0
10
-32.36874943533163
20
14.309492765650083
42
-0.41421356237313495
10
-33.118749435331686
20
13.559492765650125
10
-45.61874943533163
20
13.559492765650134
42
-0.41421356237312623
10
-46.368749435331658
20
14.309492765650083
10
-46.368749435332141
20
26.809492765650074
42
-0.4142135623730846
10
-45.618749435332134
20
27.559492765650102
10
-33.118749435332191
20
27.559492765650187
42
-0.41421356237309503
10
-32.368749435332077
20
26.809492765650074
0
LWPOLYLINE
5
170
100
AcDbEntity
8
0
100
AcDbPolyline
90
8
70
1
43
0.0
10
-52.168749435332209
20
27.559492765649097
10
-64.668749435332188
20
27.559492765649097
42
0.41421356237309503
10
-65.418749435332188
20
26.809492765649104
10
-65.41874943533179
20
14.309492765649079
42
0.41421356237313667
10
-64.668749435331691
20
13.559492765649086
10
-52.168749435331641
20
13.559492765648979
42
0.41421356237304302
10
-51.418749435331677
20
14.309492765649079
10
-51.418749435332302
20
26.809492765649104
42
0.4142135623730846
0
LWPOLYLINE
5
171
100
AcDbEntity
8
0
100
AcDbPolyline
90
8
70
1
43
0.0
10
147.85625056466733
20
46.609492765657151
10
135.35625056466733
20
46.609492765656178
42
0.41421356237309503
10
134.60625056466736
20
45.859492765656185
10
134.60625056466745
20
33.359492765656164
42
0.41421356237309503
10
135.35625056466733
20
32.609492765656135
10
147.85625056466733
20
32.609492765657208
42
0.41421356237309503
10
148.60625056466733
20
33.359492765657166
10
148.60625056466739
20
45.859492765657151
42
0.41421356237309503
0
LWPOLYLINE
5
172
100
AcDbEntity
8
0
100
AcDbPolyline
90
8
70
1
43
0.0
10
-13.318749435331556
20
14.309492765651122
42
-0.41421356237309592
10
-14.068749435331585
20
13.559492765651092
10
-26.56874943533159
20
13.559492765650001
42
-0.41421356237309503
10
-27.318749435331672
20
14.309492765650083
10
-27.31874943533219
20
26.809492765650074
42
-0.41421356237309331
10
-26.568749435332094
20
27.559492765650173
10
-14.068749435332197
20
27.559492765651111
42
-0.41421356237313667
10
-13.318749435332094
20
26.809492765651115
0
LWPOLYLINE
5
173
100
AcDbEntity
8
0
100
AcDbPolyline
90
8
70
1
43
0.0
10
154.40625056466732
20
32.609492765657102
42
-0.41421356237309503
10
153.65625056466726
20
33.359492765657166
10
153.65625056466726
20
45.859492765657151
42
-0.41421356237309503
10
154.40625056466732
20
46.609492765657222
10
166.90625056466732
20
46.60949276565718
42
-0.41421356237309503
10
167.65625056466735
20
45.859492765657151
10
167.65625056466732
20
33.359492765657166
42
-0.41421356237309503
10
166.90625056466732
20
32.609492765657173
0
LWPOLYLINE
5
174
100
AcDbEntity
8
0
100
AcDbPolyline
90
8
70
1
43
0.0
10
138.33125056466832
20
27.559492765656145
42
-0.41421356237309503
10
139.08125056466832
20
26.809492765656152
10
139.08125056466832
20
14.309492765656167
42
-0.41421356237309592
10
138.33125056466832
20
13.559492765656172
10
125.83125056466834
20
13.559492765656065
42
-0.41421356237309243
10
125.08125056466824
20
14.309492765656158
10
125.08125056466831
20
26.809492765656152
42
-0.41421356237309503
10
125.83125056466834
20
27.559492765656181
0
LWPOLYLINE
5
175
100
AcDbEntity
8
0
100
AcDbPolyline
90
8
70
1
43
0.0
10
158.13125056466833
20
14.30949276565717
10
158.13125056466833
20
26.809492765657158
42
0.41421356237309503
10
157.38125056466833
20
27.559492765657186
10
144.88125056466833
20
27.55949276565708
42
0.414213562373487
10
144.13125056466836
20
26.809492765656152
10
144.13125056466845
20
14.309492765656167
42
0.41421356237309592
10
144.88125056466833
20
13.559492765657177
10
157.38125056466833
20
13.559492765657065
42
0.41421356237309681
0
LWPOLYLINE
5
176
100
AcDbEntity
8
0
100
AcDbPolyline
90
8
70
1
43
0.0
10
176.43125056466832
20
27.559492765658185
10
163.93125056466832
20
27.559492765657186
42
0.41421356237309503
10
163.18125056466835
20
26.809492765657158
10
163.18125056466837
20
14.30949276565717
42
0.41421356237309681
10
163.93125056466832
20
13.559492765657177
10
176.43125056466832
20
13.559492765658071
42
0.41421356237309331
10
177.18125056466832
20
14.309492765658165
10
177.1812505646682
20
26.80949276565816
42
0.41421356237309503
0
LWPOLYLINE
5
177
100
AcDbEntity
8
0
100
AcDbPolyline
90
10
70
1
43
0.0
10
182.98125056466833
20
13.559492765658145
10
195.48125056466833
20
13.559497506995166
42
0.41421356237309592
10
196.23125056466833
20
14.309497506994155
10
196.23124553492869
20
26.809497795398176
42
0.41421356237309503
10
195.48125056466833
20
27.559492765658185
10
190.31825056466832
20
27.559497812702176
10
183.31825056466835
20
27.559492765658185
10
182.98125056466833
20
27.559492765658081
42
0.41421356237309503
10
182.23125056466836
20
26.80949276565816
10
182.23125056466827
20
14.309492765658165
42
0.41421356237309331
0
LWPOLYLINE
5
178
100
AcDbEntity
8
0
100
AcDbPolyline
90
8
70
1
43
0.0
10
172.70625056466736
20
45.859492765657151
10
172.70625056466736
20
33.35949276565816
42
0.41421356237309503
10
173.45625056466733
20
32.609492765658139
10
185.95625056466733
20
32.609492765658167
42
0.41421356237309503
10
186.70625056466733
20
33.35949276565816
10
186.70625056466747
20
45.85949276565816
42
0.41421356237309503
10
185.95625056466733
20
46.609492765658153
10
173.45625056466733
20
46.609492765658047
42
0.414213562373487
0
LWPOLYLINE
5
179
100
AcDbEntity
8
0
100
AcDbPolyline
90
10
70
1
43
0.0
10
215.28125056466834
20
14.309492765659169
10
215.28125056466834
20
26.809492765659193
42
0.41421356237309503
10
214.53125056466831
20
27.559492765659218
10
214.19425056466835
20
27.559497812703214
10
207.19425056466832
20
27.559492765659218
10
202.03125056466831
20
27.559497795398169
42
0.41421356237309503
10
201.28125056466831
20
26.809497795398212
10
201.28124582333214
20
14.309497506995195
42
0.41421356237309681
10
202.03125056466831
20
13.559492765658181
10
214.53125056466831
20
13.559492765659213
42
0.4142135623730942
0
LWPOLYLINE
5
180
100
AcDbEntity
8
0
100
AcDbPolyline
90
8
70
1
43
0.0
10
210.51875056466739
20
33.359492765659205
42
-0.41421356237309503
10
209.7687505646673
20
32.609492765659141
10
197.26875056466736
20
32.609492765659034
42
-0.41421356237270313
10
196.51875056466722
20
33.35949276565816
10
196.5187505646673
20
45.85949276565816
42
-0.41421356237309503
10
197.26875056466736
20
46.609492765658224
10
209.7687505646673
20
46.609492765659333
42
-0.41421356237309503
10
210.51875056466744
20
45.859492765659198
0
LWPOLYLINE
5
181
100
AcDbEntity
8
0
100
AcDbPolyline
90
11
70
1
43
0.0
10
206.3005005646653
20
86.709492765659121
42
-0.41421356237309503
10
207.05050056466524
20
85.959492765659164
10
207.05050056466629
20
84.709492765659178
10
214.53125056466629
20
84.709492765659206
42
-0.41421356237309503
10
215.28125056466632
20
83.959492765659178
10
215.28125056466618
20
71.459492765659192
42
-0.41421356237309503
10
214.53125056466629
20
70.709492765659306
10
200.80050056466629
20
70.709492765658197
42
-0.41421356237309503
10
200.05050056466629
20
71.459492765658183
10
200.05050056466536
20
85.959492765659121
42
-0.41421356237309503
10
200.8005005646653
20
86.70949276565905
0
LWPOLYLINE
5
182
100
AcDbEntity
8
0
100
AcDbPolyline
90
14
70
1
43
0.0
10
176.17450056466629
20
84.709492765658183
10
175.8375005646663
20
84.709492765658183
42
0.41421356237309503
10
175.0875005646663
20
83.959492765658183
10
175.08750056466636
20
71.45949276565716
42
0.41421356237269275
10
175.8375005646663
20
70.709492765658169
10
197.86250056466631
20
70.70949276565824
42
0.41421356237309503
10
198.61250056466631
20
71.459492765658183
10
198.61250056466633
20
83.959492765658183
42
0.41421356237309503
10
197.86250056466631
20
84.709492765658183
10
183.17450056466629
20
84.709492765658183
10
183.17450056466618
20
85.959492765658169
42
0.41421356237348356
10
182.42450056466532
20
86.709492765658197
10
176.92450056466529
20
86.709492765658126
42
0.41421356237270657
10
176.17450056466629
20
85.959492765658169
0
LWPOLYLINE
5
183
100
AcDbEntity
8
0
100
AcDbPolyline
90
8
70
1
43
0.0
10
-23.593749435334921
20
103.75949276565009
10
-36.093749435334821
20
103.75949276565009
42
0.41421356237313323
10
-36.843749435334821
20
103.00949276565009
10
-36.843749435334445
20
90.509492765650123
42
0.41421356237313323
10
-36.093749435334416
20
89.759492765650123
10
-23.593749435334416
20
89.759492765650052
42
0.41421356237309503
10
-22.843749435334416
20
90.509492765650123
10
-22.843749435334942
20
103.00949276565009
42
0.41421356237350782
0
LWPOLYLINE
5
184
100
AcDbEntity
8
0
100
AcDbPolyline
90
8
70
1
43
0.0
10
154.4062505646653
20
89.759492765657157
10
166.9062505646653
20
89.759492765657157
42
0.41421356237309503
10
167.6562505646653
20
90.509492765657157
10
167.6562505646653
20
103.00949276565719
42
0.41421356237309503
10
166.9062505646653
20
103.75949276565719
10
154.4062505646653
20
103.75949276565726
42
0.41421356237309503
10
153.6562505646653
20
103.00949276565719
10
153.65625056466541
20
90.509492765657157
42
0.41421356237309503
0
LWPOLYLINE
5
185
100
AcDbEntity
8
0
100
AcDbPolyline
90
8
70
1
43
0.0
10
110.28125056466529
20
88.759492765655182
10
115.7812505646653
20
88.759492765655182
42
0.41421356237309503
10
116.53125056466529
20
89.509492765655153
10
116.5312505646651
20
103.00949276565615
42
0.41421356237272045
10
115.7812505646653
20
103.75949276565518
10
110.28125056466529
20
103.7594927656551
42
0.41421356237309503
10
109.5312505646653
20
103.00949276565518
10
109.53125056466533
20
89.509492765655153
42
0.41421356237309503
0
LWPOLYLINE
5
186
100
AcDbEntity
8
0
100
AcDbPolyline
90
8
70
1
43
0.0
10
71.656250564665299
20
103.7594927656538
42
-0.41421356237309159
10
72.406250564665001
20
103.0094927656541
10
72.406250564665243
20
90.509492765654116
42
-0.41421356237309159
10
71.656250564665299
20
89.759492765654159
10
59.156250564665299
20
89.759492765653135
42
-0.41421356237309853
10
58.406250564665278
20
90.509492765653135
10
58.406250564665328
20
103.00949276565407
42
-0.41421356237309853
10
59.156250564665299
20
103.75949276565406
0
LWPOLYLINE
5
187
100
AcDbEntity
8
0
100
AcDbPolyline
90
8
70
1
43
0.0
10
14.281250564665227
20
103.00949276565214
42
-0.41421356237309681
10
15.031250564665189
20
103.7594927656521
10
20.531250564665179
20
103.7594927656521
42
-0.41421356237309331
10
21.281250564665129
20
103.00949276565214
10
21.281250564665619
20
89.509492765652126
42
-0.41421356237309681
10
20.531250564665587
20
88.759492765652098
10
15.031250564665687
20
88.759492765652197
42
-0.41421356237309331
10
14.281250564665742
20
89.509492765652126
0
LWPOLYLINE
5
188
100
AcDbEntity
8
0
100
AcDbPolyline
90
8
70
1
43
0.0
10
-12.281249435334519
20
89.759492765651146
42
-0.41421356237309503
10
-13.031249435334447
20
90.509492765651061
10
-13.031249435334743
20
103.00949276565106
42
-0.41421356237309503
10
-12.281249435334821
20
103.75949276565098
10
0.21875056466518206
20
103.75949276565093
42
-0.41421356237313323
10
0.96875056466514886
20
103.00949276565106
10
0.96875056466561915
20
90.509492765651061
42
-0.41421356237309503
10
0.21875056466559073
20
89.759492765651032
0
LWPOLYLINE
5
189
100
AcDbEntity
8
0
100
AcDbPolyline
90
8
70
1
43
0.0
10
129.84375056466533
20
103.00949276565615
42
-0.41421356237309503
10
130.5937505646653
20
103.75949276565609
10
143.0937505646653
20
103.75949276565609
42
-0.41421356237309503
10
143.84375056466524
20
103.00949276565615
10
143.84375056466527
20
90.509492765656148
42
-0.41421356237309503
10
143.0937505646653
20
89.759492765656148
10
130.5937505646653
20
89.759492765656262
42
-0.41421356237309503
10
129.84375056466541
20
90.509492765656148
0
LWPOLYLINE
5
190
100
AcDbEntity
8
0
100
AcDbPolyline
90
8
70
1
43
0.0
10
139.3687505646663
20
64.909492765656182
10
139.36875056466732
20
52.409492765656196
42
0.41421356237309503
10
140.11875056466732
20
51.659492765656168
10
152.61875056466735
20
51.659492765657198
42
0.41421356237309503
10
153.36875056466735
20
52.409492765657191
10
153.3687505646663
20
64.909492765657149
42
0.41421356237309503
10
152.61875056466633
20
65.659492765657149
10
140.1187505646663
20
65.659492765656097
42
0.41421356237309503
0
LWPOLYLINE
5
191
100
AcDbEntity
8
0
100
AcDbPolyline
90
8
70
1
43
0.0
10
119.28125056466833
20
27.559492765656181
10
106.78125056466833
20
27.559492765655143
42
0.41421356237309503
10
106.0312505646683
20
26.809492765655154
10
106.03125056466844
20
14.309492765655163
42
0.41421356237309503
10
106.78125056466833
20
13.559492765655135
10
119.28125056466833
20
13.559492765656099
42
0.41421356237309331
10
120.03125056466831
20
14.309492765656158
10
120.0312505646674
20
26.809492765656152
42
0.41421356237270657
0
LWPOLYLINE
5
192
100
AcDbEntity
8
0
100
AcDbPolyline
90
8
70
1
43
0.0
10
49.631250564668328
20
13.559492765653147
42
-0.41421356237309764
10
48.881250564668306
20
14.309492765653156
10
48.881250564667987
20
26.809492765653147
42
-0.41421356237306384
10
49.631250564667937
20
27.559492765653175
10
62.131250564668328
20
27.559492765654131
42
-0.41421356237309159
10
62.881250564668292
20
26.809492765654156
10
62.881250564668385
20
14.309492765653156
42
-0.41421356237309076
10
62.131250564668328
20
13.559492765653093
0
LWPOLYLINE
5
193
100
AcDbEntity
8
0
100
AcDbPolyline
90
8
70
1
43
0.0
10
171.66875056466631
20
65.659492765658186
10
159.16875056466631
20
65.659492765657149
42
0.41421356237309503
10
158.41875056466631
20
64.909492765657149
10
158.41875056466733
20
52.409492765657191
42
0.41421356237309503
10
159.16875056466736
20
51.659492765657127
10
171.66875056466736
20
51.659492765657198
42
0.41421356237309503
10
172.41875056466736
20
52.409492765657191
10
172.41875056466648
20
64.909492765657149
42
0.41421356237309503
0
LWPOLYLINE
5
194
100
AcDbEntity
8
0
100
AcDbPolyline
90
8
70
1
43
0.0
10
67.931250564668332
20
26.809492765654156
10
67.931250564668332
20
14.309492765654124
42
0.41421356237309853
10
68.681250564668318
20
13.559492765654095
10
81.181250564668304
20
13.559492765654095
42
0.41421356237309503
10
81.931250564668332
20
14.309492765654124
10
81.931250564668233
20
26.809492765654156
42
0.41421356237309503
10
81.181250564668304
20
27.559492765654142
10
68.681250564668318
20
27.559492765654184
42
0.41421356237309853
0
LWPOLYLINE
5
195
100
AcDbEntity
8
0
100
AcDbPolyline
90
8
70
1
43
0.0
10
100.23125056466732
20
27.559492765655108
10
87.731250564668315
20
27.559492765654142
42
0.4142135623734714
10
86.981250564668329
20
26.809492765654156
10
86.981250564668244
20
14.309492765654124
42
0.41421356237309503
10
87.731250564668315
20
13.559492765654095
10
100.23125056466831
20
13.559492765655135
42
0.41421356237309503
10
100.98125056466834
20
14.309492765655127
10
100.9812505646683
20
26.809492765655119
42
0.41421356237348356
0
LWPOLYLINE
5
196
100
AcDbEntity
8
0
100
AcDbPolyline
90
8
70
1
43
0.0
10
148.89375056466636
20
83.95949276565716
42
-0.41421356237309503
10
149.64375056466633
20
84.709492765657117
10
162.14375056466633
20
84.709492765657217
42
-0.41421356237309503
10
162.89375056466639
20
83.95949276565716
10
162.89375056466639
20
71.45949276565716
42
-0.41421356237309503
10
162.14375056466633
20
70.709492765657103
10
149.64375056466633
20
70.709492765657203
42
-0.41421356237309503
10
148.89375056466636
20
71.45949276565716
0
LWPOLYLINE
5
197
100
AcDbEntity
8
0
100
AcDbPolyline
90
8
70
1
43
0.0
10
143.0937505646653
20
84.709492765656279
42
-0.41421356237309503
10
143.84375056466538
20
83.959492765656179
10
143.84375056466632
20
71.459492765656194
42
-0.41421356237309503
10
143.09375056466627
20
70.709492765656165
10
130.59375056466627
20
70.709492765656236
42
-0.41421356237309503
10
129.84375056466632
20
71.459492765656194
10
129.8437505646653
20
83.959492765656179
42
-0.41421356237309503
10
130.5937505646653
20
84.709492765656179
0
LWPOLYLINE
5
198
100
AcDbEntity
8
0
100
AcDbPolyline
90
8
70
1
43
0.0
10
109.75625056466728
20
46.609492765655176
10
97.256250564667283
20
46.609492765655141
42
0.41421356237309503
10
96.506250564667297
20
45.859492765655148
10
96.506250564667312
20
33.359492765655155
42
0.41421356237349738
10
97.256250564668321
20
32.609492765655098
10
109.75625056466733
20
32.609492765655197
42
0.41421356237308116
10
110.50625056466728
20
33.35949276565519
10
110.50625056466731
20
45.859492765655183
42
0.41421356237309503
0
LWPOLYLINE
5
199
100
AcDbEntity
8
0
100
AcDbPolyline
90
8
70
1
43
0.0
10
114.51875056466631
20
65.659492765655131
10
102.01875056466631
20
65.659492765655131
42
0.41421356237309503
10
101.26875056466631
20
64.909492765655145
10
101.26875056466731
20
52.409492765655195
42
0.41421356237309503
10
102.0187505646673
20
51.659492765655166
10
114.51875056466733
20
51.659492765655202
42
0.41421356237309503
10
115.26875056466733
20
52.409492765655195
10
115.26875056466622
20
64.909492765655145
42
0.41421356237309503
0
LWPOLYLINE
5
200
100
AcDbEntity
8
0
100
AcDbPolyline
90
8
70
1
43
0.0
10
120.31875056466632
20
64.909492765656182
42
-0.41421356237309503
10
121.06875056466627
20
65.65949276565614
10
133.56875056466629
20
65.65949276565614
42
-0.41421356237309503
10
134.31875056466623
20
64.909492765656182
10
134.3187505646674
20
52.409492765656196
42
-0.41421356237309503
10
133.56875056466731
20
51.659492765656097
10
121.06875056466731
20
51.659492765656161
42
-0.41421356237309503
10
120.31875056466728
20
52.409492765656189
0
LWPOLYLINE
5
201
100
AcDbEntity
8
0
100
AcDbPolyline
90
8
70
1
43
0.0
10
124.04375056466527
20
84.709492765656179
10
111.54375056466527
20
84.70949276565517
42
0.41421356237270657
10
110.79375056466529
20
83.95949276565517
10
110.7937505646663
20
71.459492765655156
42
0.41421356237309503
10
111.54375056466631
20
70.70949276565517
10
124.04375056466627
20
70.709492765656236
42
0.41421356237309503
10
124.7937505646663
20
71.459492765656194
10
124.79375056466526
20
83.959492765656179
42
0.41421356237309503
0
LWPOLYLINE
5
202
100
AcDbEntity
8
0
100
AcDbPolyline
90
8
70
1
43
0.0
10
105.74375056466624
20
71.459492765655156
42
-0.41421356237309503
10
104.9937505646663
20
70.709492765655199
10
92.4937505646663
20
70.709492765654176
42
-0.41421356237349044
10
91.743750564666357
20
71.459492765655128
10
91.743750564666328
20
83.959492765655142
42
-0.41421356237309503
10
92.4937505646663
20
84.709492765655085
10
104.99375056466531
20
84.709492765655128
42
-0.41421356237348356
10
105.74375056466624
20
83.95949276565517
0
LWPOLYLINE
5
203
100
AcDbEntity
8
0
100
AcDbPolyline
90
8
70
1
43
0.0
10
128.80625056466732
20
46.609492765656178
10
116.30625056466734
20
46.609492765655176
42
0.41421356237309503
10
115.55625056466735
20
45.859492765655183
10
115.55625056466731
20
33.35949276565519
42
0.41421356237309503
10
116.30625056466734
20
32.609492765655133
10
128.80625056466732
20
32.609492765656171
42
0.41421356237309503
10
129.55625056466732
20
33.359492765656164
10
129.55625056466749
20
45.859492765656185
42
0.41421356237309503
0
LWPOLYLINE
5
204
100
AcDbEntity
8
0
100
AcDbPolyline
90
8
70
1
43
0.0
10
59.156250564667317
20
32.609492765653123
10
71.656250564667317
20
32.609492765654132
42
0.4142135623730846
10
72.406250564668312
20
33.35949276565416
10
72.406250564667374
20
45.859492765654146
42
0.41421356237309159
10
71.656250564667303
20
46.609492765654139
10
59.156250564667303
20
46.609492765653215
42
0.41421356237309853
10
58.40625056466731
20
45.859492765653151
10
58.406250564667388
20
33.359492765653158
42
0.41421356237310542
0
LWPOLYLINE
5
205
100
AcDbEntity
8
0
100
AcDbPolyline
90
8
70
1
43
0.0
10
91.456250564668295
20
33.359492765655155
42
-0.41421356237309503
10
90.706250564668309
20
32.609492765655162
10
78.206250564667315
20
32.60949276565411
42
-0.41421356237310542
10
77.456250564667243
20
33.35949276565416
10
77.456250564667258
20
45.859492765654146
42
-0.41421356237309853
10
78.2062505646673
20
46.609492765654174
10
90.706250564667315
20
46.609492765655091
42
-0.41421356237309503
10
91.456250564667258
20
45.859492765655148
0
LWPOLYLINE
5
206
100
AcDbEntity
8
0
100
AcDbPolyline
90
8
70
1
43
0.0
10
95.468750564666294
20
65.659492765655159
42
-0.41421356237309503
10
96.218750564666337
20
64.909492765655116
10
96.218750564667317
20
52.409492765655159
42
-0.41421356237309503
10
95.468750564667289
20
51.659492765655131
10
82.968750564667289
20
51.659492765654107
42
-0.41421356237309503
10
82.218750564667275
20
52.409492765654122
10
82.218750564666436
20
64.90949276565415
42
-0.41421356237309503
10
82.968750564666294
20
65.659492765653994
0
CIRCLE
5
207
100
AcDbEntity
8
0
100
AcDbCircle
10
-175.91970046733445
20
109.25315159912225
30
-7.0256356719448528e-16
40
1.25000000000032
210
-3.1799956284971044e-24
220
0
230
-1
0
CIRCLE
5
208
100
AcDbEntity
8
0
100
AcDbCircle
10
-137.09470046733443
20
109.25315159927131
30
-7.1991067849092405e-16
40
1.25
210
-3.1799956346600802e-24
220
0
230
-1
0
CIRCLE
5
209
100
AcDbEntity
8
0
100
AcDbCircle
10
-12.7678004673324
20
109.25315167598492
30
-7.1991028313192467e-16
40
1.25
210
-3.1799956346600802e-24
220
0
230
-1
0
CIRCLE
5
210
100
AcDbEntity
8
0
100
AcDbCircle
10
64.882199540217272
20
109.25315167616283
30
3.4954680104183775e-15
40
1.25
210
-3.1799956346600802e-24
220
0
230
-1
0
CIRCLE
5
211
100
AcDbEntity
8
0
100
AcDbCircle
10
-214.7447004673337
20
109.25315159909303
30
-4.9266153546613416e-15
40
1.25
210
-3.1799956346600802e-24
220
0
230
-1
0
CIRCLE
5
212
100
AcDbEntity
8
0
100
AcDbCircle
10
41.749999435332384
20
39.609492765656086
30
-8.6736173798845501e-18
40
2.5
210
1.2325951644078309e-32
220
0
230
-1
0
CIRCLE
5
213
100
AcDbEntity
8
0
100
AcDbCircle
10
-214.74470056467101
20
8.5344889965858659
30
-8.6736173798813885e-18
40
1.25
210
1.2325951644078309e-32
220
0
230
-1
0
CIRCLE
5
214
100
AcDbEntity
8
0
100
AcDbCircle
10
-137.094700564671
20
8.534488996584864
30
-8.6736173798823453e-18
40
1.25
210
1.2325951644078309e-32
220
0
230
-1
0
CIRCLE
5
215
100
AcDbEntity
8
0
100
AcDbCircle
10
-175.91970056467102
20
8.5344889965558419
30
-1.7347234759765902e-17
40
1.25000000000032
210
1.2325951644078309e-32
220
0
230
-1
0
CIRCLE
5
216
100
AcDbEntity
8
0
100
AcDbCircle
10
64.882199435330307
20
8.5344890736563919
30
-8.6736173798848351e-18
40
1.25
210
1.2325951644078309e-32
220
0
230
-1
0
CIRCLE
5
217
100
AcDbEntity
8
0
100
AcDbCircle
10
-12.767800564669667
20
8.5344890736564274
30
-8.6736173798838783e-18
40
1.25
210
1.2325951644078309e-32
220
0
230
-1
0
CIRCLE
5
218
100
AcDbEntity
8
0
100
AcDbCircle
10
26.05719943533034
20
8.5344890736274053
30
-8.6736173798841957e-18
40
1.25000000000028
210
6.1629758220391547e-33
220
0
230
-1
0
CIRCLE
5
219
100
AcDbEntity
8
0
100
AcDbCircle
10
26.057199532667511
20
109.2531516760139
30
-7.1123654228871014e-16
40
1.25000000000028
210
-3.1799956346600802e-24
220
0
230
-1
0
ENDSEC
0
SECTION
2
OBJECTS
0
DICTIONARY
5
C
100
AcDbDictionary
3
ACAD_GROUP
350
D
3
ACAD_MLINESTYLE
350
17
0
DICTIONARY
5
D
100
AcDbDictionary
0
DICTIONARY
5
1A
330
C
100
AcDbDictionary
0
DICTIONARY
5
17
100
AcDbDictionary
0
ENDSEC
0
EOF
