0
SECTION
2
HEADER
9
$INSUNITS
70
4
9
$ACADVER
1
AC1014
9
$HANDSEED
5
FFFF
0
ENDSEC
0
SECTION
2
TABLES
0
TABLE
2
VPORT
5
8
100
AcDbSymbolTable
0
ENDTAB
0
TABLE
2
LTYPE
5
5
100
AcDbSymbolTable
0
LTYPE
5
14
100
AcDbSymbolTableRecord
100
AcDbLinetypeTableRecord
2
BYBLOCK
70
0
0
LTYPE
5
15
100
AcDbSymbolTableRecord
100
AcDbLinetypeTableRecord
2
BYLAYER
70
0
0
ENDTAB
0
TABLE
2
LAYER
5
2
100
AcDbSymbolTable
70
2
0
LAYER
5
50
100
AcDbSymbolTableRecord
100
AcDbLayerTableRecord
2
0
70
0
6
CONTINUOUS
0
ENDTAB
0
TABLE
2
STYLE
5
3
100
AcDbSymbolTable
70
1
0
STYLE
5
11
100
AcDbSymbolTableRecord
100
AcDbTextStyleTableRecord
2
STANDARD
70
0
0
ENDTAB
0
TABLE
2
VIEW
5
6
100
AcDbSymbolTable
70
0
0
ENDTAB
0
TABLE
2
UCS
5
7
100
AcDbSymbolTable
70
0
0
ENDTAB
0
TABLE
2
APPID
5
9
100
AcDbSymbolTable
70
2
0
APPID
5
12
100
AcDbSymbolTableRecord
100
AcDbRegAppTableRecord
2
ACAD
70
0
0
ENDTAB
0
TABLE
2
DIMSTYLE
5
A
100
AcDbSymbolTable
70
1
0
ENDTAB
0
TABLE
2
BLOCK_RECORD
5
1
100
AcDbSymbolTable
70
1
0
BLOCK_RECORD
5
1F
100
AcDbSymbolTableRecord
100
AcDbBlockTableRecord
2
*MODEL_SPACE
0
BLOCK_RECORD
5
1B
100
AcDbSymbolTableRecord
100
AcDbBlockTableRecord
2
*PAPER_SPACE
0
ENDTAB
0
ENDSEC
0
SECTION
2
BLOCKS
0
BLOCK
5
20
100
AcDbEntity
100
AcDbBlockBegin
2
*MODEL_SPACE
0
ENDBLK
5
21
100
AcDbEntity
100
AcDbBlockEnd
0
BLOCK
5
1C
100
AcDbEntity
100
AcDbBlockBegin
2
*PAPER_SPACE
0
ENDBLK
5
1D
100
AcDbEntity
100
AcDbBlockEnd
0
ENDSEC
0
SECTION
2
ENTITIES
0
LWPOLYLINE
5
100
100
AcDbEntity
8
0
100
AcDbPolyline
90
8
70
1
43
0.0
10
19.870781122377803
20
-45.645210663738155
42
-0.41421356237313228
10
19.293104189940774
20
-44.755666195074397
10
21.892000325162819
20
-32.528821185901904
42
-0.41421356237309237
10
22.781544793826399
20
-31.951144253464907
10
35.008389802999019
20
-34.550040388686874
42
-0.41421356237304502
10
35.586066735435978
20
-35.439584857350489
10
32.987170600213958
20
-47.666429866523089
42
-0.41421356237306095
10
32.097626131550321
20
-48.244106798960061
0
LWPOLYLINE
5
101
100
AcDbEntity
8
0
100
AcDbPolyline
90
20
70
1
43
0.0
10
17.494510912974206
20
-103.56688383496501
10
34.001729822957806
20
-107.075601529205
10
33.7418402094358
20
-108.29828603012209
42
0.41421356237332085
10
34.319517141872723
20
-109.18783049878598
10
39.699328945908746
20
-110.33134479828337
42
0.41421356237276341
10
40.588873414572106
20
-109.75366786584699
10
40.848763028094403
20
-108.53098336492906
10
43.507612743789245
20
-109.09613931849437
42
0.41421356237275492
10
44.397157212452612
20
-108.51846238605802
10
46.996053347674703
20
-96.291617376885199
42
0.41421356237309331
10
46.418376415237724
20
-95.402072908221513
10
13.228605637838902
20
-88.347369349161568
42
0.41421356237305068
10
12.339061169175276
20
-88.925046281598526
10
9.740165033953188
20
-101.15189129077102
42
0.41421356237302825
10
10.317841966390446
20
-102.04143575943441
10
10.647477707837607
20
-102.11150199923999
10
10.387588094315293
20
-103.33418650015804
42
0.41421356237294221
10
10.965265026752407
20
-104.22373096882099
10
16.345076830788244
20
-105.36724526831934
42
0.41421356237324441
10
17.234621299452037
20
-104.789568335882
0
LWPOLYLINE
5
102
100
AcDbEntity
8
0
100
AcDbPolyline
90
8
70
1
43
0.0
10
25.901736003474149
20
-124.82948302556633
42
-0.4142135623732886
10
25.324059071037404
20
-123.93993855690205
10
27.922955206259125
20
-111.71309354773001
42
-0.41421356237328616
10
28.812499674922986
20
-111.13541661529268
10
29.301573475289882
20
-111.23937246070169
42
-0.41421356237291079
10
29.87925040772684
20
-112.12891692936502
10
27.280354272504969
20
-124.35576193853802
42
-0.41421356237323348
10
26.390809803841147
20
-124.93343887097538
0
LWPOLYLINE
5
103
100
AcDbEntity
8
0
100
AcDbPolyline
90
8
70
1
43
0.0
10
34.074596305584436
20
-73.302733117923992
42
-0.41421356237312157
10
34.652273238021507
20
-74.192277586587807
10
32.053377102799473
20
-86.419122595760314
42
-0.4142135623731022
10
31.163832634135797
20
-86.996799528197371
10
14.278592634531309
20
-83.407766958960309
42
-0.41421415964141106
10
13.700914206114144
20
-82.51822217231782
10
16.299810341335458
20
-70.291377163148283
42
-0.41421296510503597
10
17.189353314019019
20
-69.713699912732466
0
LWPOLYLINE
5
104
100
AcDbEntity
8
0
100
AcDbPolyline
90
8
70
1
43
0.0
10
350.18750000000006
20
-108.05
10
350.18750000000006
20
-120.55
42
0.41421356237309503
10
350.9375
20
-121.30000000000003
10
363.4375
20
-121.29999999999998
42
0.41421356237309503
10
364.1875
20
-120.55
10
364.1875
20
-108.05
42
0.41421356237309503
10
363.4375
20
-107.29999999999997
10
350.9375
20
-107.30000000000001
42
0.41421356237309503
0
LWPOLYLINE
5
105
100
AcDbEntity
8
0
100
AcDbPolyline
90
8
70
1
43
0.0
10
48.1138180024493
20
-27.303968058862331
10
60.340663011621913
20
-29.902864194084358
42
0.41421356237308621
10
61.23020748028555
20
-29.325187261647315
10
63.829103615507563
20
-17.098342252474708
42
0.41421356237309503
10
63.25142668307052
20
-16.208797783811036
10
51.024581673897906
20
-13.609901648589096
42
0.41421356237305068
10
50.135037205234227
20
-14.187578581026079
10
47.536141070012341
20
-26.414423590198712
42
0.41421356237303925
0
LWPOLYLINE
5
106
100
AcDbEntity
8
0
100
AcDbPolyline
90
67
70
1
43
0.0
10
23.641713103994135
20
-6.7416264458527078
42
-0.41421245410061436
10
26.6068594661429
20
-4.8160460781373704
10
35.10432780104609
20
-6.6222391918579273
42
0.414213597298421
10
36.290387157417648
20
-5.852003226942907
10
36.706210382653552
20
-3.8957081141380776
42
-0.41421356237312118
10
37.892269622388412
20
-3.1254721244311678
10
129.83814540614705
20
-22.669164875740005
42
-0.41421356237308216
10
130.608381395854
20
-23.855224115474982
10
130.19255813950716
20
-25.811519374644519
42
0.41421355347141164
10
130.96279409948602
20
-26.997578608060397
10
140.92748436354799
20
-29.115638524573821
42
0.052407779465253469
10
148.82812865536403
20
-29.946029703874292
10
159.71188125347402
20
-29.946029703874263
42
0.052407779094189713
10
167.612525489392
20
-29.115638536360784
10
177.552881038755
20
-27.002750705389261
42
0.41421356143122273
10
178.32311695669239
20
-25.816691397059998
10
177.90729357371214
20
-23.860396190193661
42
-0.41421356225970846
10
178.67752948313498
20
-22.674336898647883
10
281.57865705766409
20
-0.80202697745574525
42
-0.4142135622341761
10
282.76471634949007
20
-1.5722628863345367
10
283.18053973326863
20
-3.5285580894474133
42
0.41421356228936212
10
284.36659902527549
20
-4.2987939982912486
10
294.29234562506213
20
-2.1890114209324314
42
-0.05240777910117065
10
301.77716646729198
20
-1.4023250477400939
10
311.97005321337002
20
-1.4021858960265907
42
0.41420003422490342
10
312.97003956099604
20
-0.40221843248290146
10
312.97010463531342
20
1.5978304861266639
42
-0.41421408913935287
10
313.97013896964006
20
2.597797949173295
10
373.67013893629291
20
2.5957481582976931
42
-0.41421303560716138
10
374.67010460090813
20
1.595715622524434
10
374.67003952924125
20
-0.4042518395245232
42
0.41422309208531571
10
375.67003952871198
20
-1.4042843758876344
10
384.26281050461199
20
-1.4042843758876455
42
-0.41421356237309503
10
386.76281050461199
20
-3.9042843758876522
10
386.76281050461199
20
-122.38941978758497
42
-0.41421356237309503
10
384.26281050461199
20
-124.88941978758497
10
375.53726792464602
20
-124.88941978758503
42
0.41421356237309503
10
374.53726792464607
20
-125.88941978758497
10
374.53726792464607
20
-127.88941978758501
42
-0.41421356237309503
10
373.53726792464607
20
-128.88941978758504
10
315.83726792464608
20
-128.88941978758498
42
-0.41421356237309503
10
314.83726792464614
20
-127.88941978758501
10
314.83726792464614
20
-125.88941978758497
42
0.41421356237309503
10
313.83726792464608
20
-124.88941978758497
10
304.22206321957293
20
-124.8894197875846
42
0.052407779283046095
10
294.86603713277293
20
-125.87277775456295
10
285.59714615900009
20
-127.84294135044313
42
0.41421356237309953
10
284.82691024908399
20
-129.02900064199494
10
285.24273363072001
20
-130.98529584346207
42
-0.4142135623730776
10
284.47249772080397
20
-132.17135513501398
10
174.72433681245306
20
-155.49904700738907
42
-0.41421358244045414
10
173.53827750665704
20
-154.728811030457
10
173.1224542590536
20
-152.77251580050006
42
0.41421358244049444
10
171.93639495325692
20
-152.00227982356733
10
162.67156417730902
20
-153.97158039775826
42
-0.10510423526567549
10
146.03862891188805
20
-153.971580397758
10
136.89796043805504
20
-152.02867133559425
42
0.41421356237311557
10
135.71190114650304
20
-152.79890724551001
10
135.2960777648675
20
-154.75520244697788
42
-0.41421857309927401
10
134.11000173953101
20
-155.52543479986798
10
11.548553228451144
20
-129.47200323228034
42
-0.41420855166463227
10
10.778334052320622
20
-128.28594749775402
10
11.194186185344687
20
-126.32951703163904
42
0.41417305560187995
10
10.424085551984019
20
-125.14348650378494
10
10.36140099337902
20
-125.13015342823401
10
1.4360968584312797
20
-123.23298568650381
42
-0.4142135623730836
10
-0.48948154248345865
20
-120.26783007137502
0
LWPOLYLINE
5
107
100
AcDbEntity
8
0
100
AcDbPolyline
90
8
70
1
43
0.0
10
22.589710563579203
20
-52.152712407400408
10
19.990814428357268
20
-64.379557416572894
42
0.41421356237308715
10
20.568491360794198
20
-65.269101885236623
10
32.795336369966826
20
-67.867998020458572
42
0.41421356237305079
10
33.684880838630448
20
-67.290321088021599
10
36.283776973852454
20
-55.063476078849014
42
0.41421356237309809
10
35.706100041415418
20
-54.173931610185363
10
23.479255032242907
20
-51.575035474963414
42
0.41421356237312856
0
LWPOLYLINE
5
108
100
AcDbEntity
8
0
100
AcDbPolyline
90
8
70
1
43
0.0
10
24.821678259975695
20
-22.353070921264461
42
-0.41421356237308959
10
24.244001327538641
20
-21.463526452600817
10
26.842897462760654
20
-9.2366814434282585
42
-0.41421356237309132
10
27.732441931424304
20
-8.6590045109912204
10
39.959286940596783
20
-11.257900646213235
42
-0.41421356237309503
10
40.536963873033855
20
-12.14744511487689
10
37.938067737811849
20
-24.374290124049388
42
-0.41421356237310047
10
37.048523269148184
20
-24.951967056486446
0
LWPOLYLINE
5
109
100
AcDbEntity
8
0
100
AcDbPolyline
90
8
70
1
43
0.0
10
312.0062819548279
20
-118.58712248183538
42
-0.41421356237271273
10
311.11673748616477
20
-118.00944554939882
10
308.51784135094186
20
-105.782600540226
42
-0.41421356237273993
10
309.09551828337908
20
-104.89305607156196
10
309.58459208374597
20
-104.78910022615378
42
-0.41421356237349893
10
310.47413655241041
20
-105.36677715859088
10
313.07303268763246
20
-117.59362216776289
42
-0.41421356237316581
10
312.49535575519491
20
-118.48316663642642
0
LWPOLYLINE
5
110
100
AcDbEntity
8
0
100
AcDbPolyline
90
8
70
1
43
0.0
10
5.2299308692352584
20
-106.88954232075808
42
-0.41421356237324403
10
6.1194753378986366
20
-106.311865388321
10
6.6085491382656159
20
-106.41582123372969
42
-0.41421356237297102
10
7.1862260707026451
20
-107.30536570239309
10
4.5873299354806809
20
-119.53221071156604
42
-0.41421356237324364
10
3.6977854668168768
20
-120.10988764400336
10
3.2087116664499598
20
-120.00593179859435
42
-0.41421356237331503
10
2.6310347340131468
20
-119.11638732993005
0
LWPOLYLINE
5
111
100
AcDbEntity
8
0
100
AcDbPolyline
90
8
70
1
43
0.0
10
8.6863382305592811
20
-121.17023726717335
42
-0.41421356237294221
10
8.1086612981222341
20
-120.28069279851002
10
10.707557433343787
20
-108.05384778933688
42
-0.41421356237276885
10
11.59710190200791
20
-107.47617085690001
10
23.823946911180375
20
-110.07506699212264
42
-0.41421356237304235
10
24.40162384361761
20
-110.96461146078603
10
21.802727708395647
20
-123.19145646995801
42
-0.41421356237323353
10
20.913183239731843
20
-123.76913340239537
0
LWPOLYLINE
5
112
100
AcDbEntity
8
0
100
AcDbPolyline
90
8
70
1
43
0.0
10
16.469483065715579
20
-63.631075329629013
42
-0.41421356237313295
10
15.579938597051816
20
-64.208752262066071
10
15.090864796684908
20
-64.104796416657166
42
-0.41421356237306206
10
14.513187864247945
20
-63.215251947993508
10
17.112083999469789
20
-50.988406938820965
42
-0.41421356237312495
10
18.001628468133614
20
-50.410730006383908
10
18.490702268500495
20
-50.514685851792862
42
-0.4142135623730554
10
19.068379200937471
20
-51.404230320456499
0
LWPOLYLINE
5
113
100
AcDbEntity
8
0
100
AcDbPolyline
90
8
70
1
43
0.0
10
298.51549013448908
20
-82.50347478663727
10
310.74233514366193
20
-79.904578651415093
42
0.41421356237279661
10
311.32001207609841
20
-79.015034182751705
10
308.72111594087698
20
-66.78818917357907
42
0.41421356237304541
10
307.83157147221283
20
-66.210512241141387
10
295.60472646304095
20
-68.809408376364004
42
0.41421356237323237
10
295.02704953060368
20
-69.698952845027776
10
297.62594566582561
20
-81.925797854200013
42
0.41421356237305146
0
LWPOLYLINE
5
114
100
AcDbEntity
8
0
100
AcDbPolyline
90
8
70
1
43
0.0
10
223.92439611516906
20
-21.516653655424683
10
226.52329225039071
20
-33.74349866459734
42
0.41421356237298868
10
227.4128367190541
20
-34.321175597034291
10
239.63968172822703
20
-31.722279461812395
42
0.41421356237322871
10
240.21735866066399
20
-30.832734993148687
10
237.61846252544242
20
-18.605889983976009
42
0.41421356237331608
10
236.7289180567781
20
-18.028213051539076
10
224.50207304760602
20
-20.627109186761075
42
0.41421356237322438
0
LWPOLYLINE
5
115
100
AcDbEntity
8
0
100
AcDbPolyline
90
8
70
1
43
0.0
10
194.80306652032598
20
-26.939827899215185
42
-0.41421356237297124
10
195.69261098898937
20
-27.517504831652197
10
198.29150712421128
20
-39.74434984082481
42
-0.41421356237320045
10
197.71383019177406
20
-40.633894309488582
10
185.48698518260204
20
-43.232790444710396
42
-0.41421356237335427
10
184.59744071393766
20
-42.655113512273559
10
181.99854457871581
20
-30.428268503101016
42
-0.41421356237325929
10
182.57622151115299
20
-29.53872403443728
0
LWPOLYLINE
5
116
100
AcDbEntity
8
0
100
AcDbPolyline
90
8
70
1
43
0.0
10
301.542414347153
20
-62.384493851378771
42
-0.41421356237332224
10
300.65286987848884
20
-61.806816918942033
10
298.05397374326742
20
-49.579971909769398
42
-0.41421356237279294
10
298.63165067570401
20
-48.690427441105761
10
310.85849568487703
20
-46.091531305883805
42
-0.41421356237293677
10
311.74804015354027
20
-46.669208238320799
10
314.34693628876238
20
-58.896053247493292
42
-0.41421356237328039
10
313.76925935632494
20
-59.785597716157127
0
LWPOLYLINE
5
117
100
AcDbEntity
8
0
100
AcDbPolyline
90
8
70
1
43
0.0
10
176.16935472634705
20
-30.900545609293584
10
163.942509717174
20
-33.499441744515586
42
0.41421356237323081
10
163.36483278473673
20
-34.388986213179365
10
165.9637289199587
20
-46.615831222351943
42
0.4142135623733032
10
166.85327338862299
20
-47.193508154788788
10
179.08011839779502
20
-44.594612019566924
42
0.41421356237326196
10
179.65779533023206
20
-43.705067550903188
10
177.05889919501033
20
-31.47822254173051
42
0.41421356237289381
0
LWPOLYLINE
5
118
100
AcDbEntity
8
0
100
AcDbPolyline
90
8
70
1
43
0.0
10
319.82456285287202
20
-57.731747778913878
10
317.2256667176494
20
-45.504902769741484
42
0.41421356237300344
10
316.33612224898599
20
-44.927225837304363
10
315.84704844861892
20
-45.031181682713282
42
0.41421356237268975
10
315.26937151618262
20
-45.920726151376741
10
317.86826765140376
20
-58.147571160549496
42
0.41421356237331947
10
318.75781212006802
20
-58.725248092986355
10
319.24688592043486
20
-58.621292247577479
42
0.41421356237282225
0
LWPOLYLINE
5
119
100
AcDbEntity
8
0
100
AcDbPolyline
90
8
70
1
43
0.0
10
238.88897424071104
20
-119.815917680007
42
-0.41421356237308149
10
239.778518709374
20
-120.39359461244402
10
242.37741484459639
20
-132.6204396216169
42
-0.41421356237314322
10
241.799737912159
20
-133.50998409028045
10
224.91446495449202
20
-137.09905965302224
42
-0.41421356237347728
10
224.02492048582758
20
-136.52138272058508
10
221.42602435060567
20
-124.2945377114121
42
-0.41421356237310186
10
222.003701283043
20
-123.40499324274862
0
LWPOLYLINE
5
120
100
AcDbEntity
8
0
100
AcDbPolyline
90
20
70
1
43
0.0
10
283.6064412900941
20
-46.721341636792701
42
-0.41421356237292833
10
282.71689682143074
20
-46.143664704355736
10
280.11800068620869
20
-33.916819695183136
42
-0.4142135623732569
10
280.69567761864607
20
-33.027275226519343
10
311.55623442179711
20
-26.467661381219262
42
-0.41421356237324752
10
312.44577889046121
20
-27.045338313656011
10
315.0446750256832
20
-39.27218332282861
42
-0.41421356237319956
10
314.46699809324599
20
-40.161727791492368
10
314.13736235179903
20
-40.23179403129798
10
314.39725196532135
20
-41.454478532215084
42
-0.41421356237326462
10
313.81957503288396
20
-42.344023000878892
10
308.43976322884794
20
-43.487537300376445
42
-0.41421356237305296
10
307.55021876018463
20
-42.909860367939352
10
307.29032914666197
20
-41.687175867022255
10
290.783110236678
20
-45.195893561262778
10
291.0429998502014
20
-46.418578062179904
42
-0.41421356237326462
10
290.46532291776401
20
-47.308122530843704
10
285.08551111372799
20
-48.451636830341265
42
-0.41421356237305296
10
284.19596664506469
20
-47.873959897904172
10
283.93607703154203
20
-46.651275396987074
0
LWPOLYLINE
5
121
100
AcDbEntity
8
0
100
AcDbPolyline
90
8
70
1
43
0.0
10
331.13749999999993
20
-108.05
10
331.13749999999993
20
-120.55
42
0.41421356237309503
10
331.88749999999999
20
-121.29999999999997
10
344.38749999999999
20
-121.30000000000001
42
0.41421356237309503
10
345.13750000000005
20
-120.55
10
345.13749999999993
20
-108.05
42
0.41421356237309503
10
344.38749999999999
20
-107.29999999999997
10
331.88749999999999
20
-107.29999999999998
42
0.41421356237309503
0
LWPOLYLINE
5
122
100
AcDbEntity
8
0
100
AcDbPolyline
90
8
70
1
43
0.0
10
292.93884050290205
20
-70.398400524720529
42
-0.41421356237331891
10
293.82838497156632
20
-70.976077457157416
10
296.63519279760538
20
-84.181070067063928
42
-0.41421356237272583
10
296.05751586516897
20
-85.070614535727302
10
290.677704061133
20
-86.214128835224969
42
-0.41421356237330542
10
289.78815959246879
20
-85.636451902788124
10
286.9813517664295
20
-72.431459292881669
42
-0.41421356237280388
10
287.55902869886609
20
-71.541914824218068
0
LWPOLYLINE
5
123
100
AcDbEntity
8
0
100
AcDbPolyline
90
14
70
1
43
0.0
10
295.93751105769337
20
-103.80498258539612
10
295.677621444171
20
-102.58229808447895
10
310.04465340374901
20
-99.52849116974788
42
0.41421356237313872
10
310.62233033618719
20
-98.638946701084151
10
308.0234342009644
20
-86.412101691911602
42
0.41421356237297968
10
307.13388973230099
20
-85.83442475947453
10
285.59018882613901
20
-90.413679749735678
42
0.41421356237326945
10
285.01251189370174
20
-91.303224218399563
10
287.61140802892362
20
-103.53006922757206
42
0.41421356237307572
10
288.50095249758704
20
-104.10774616000938
10
288.83058823903519
20
-104.037679920203
10
289.09047785255677
20
-105.26036442112101
42
0.4142135623730025
10
289.98002232122082
20
-105.83804135355723
10
295.35983412525616
20
-104.6945270540604
42
0.41421356237340518
0
LWPOLYLINE
5
124
100
AcDbEntity
8
0
100
AcDbPolyline
90
8
70
1
43
0.0
10
246.04654851303306
20
-30.36045788695597
10
258.27339352220605
20
-27.761561751734085
42
0.41421356237325424
10
258.85107045464332
20
-26.872017283070218
10
256.25217431942139
20
-14.645172273897691
42
0.41421356237333617
10
255.36262985075706
20
-14.067495341460848
10
243.13578484158498
20
-16.666391476682673
42
0.41421356237323148
10
242.55810790914802
20
-17.555935945346373
10
245.1570040443697
20
-29.782780954519037
42
0.41421356237297208
0
LWPOLYLINE
5
125
100
AcDbEntity
8
0
100
AcDbPolyline
90
8
70
1
43
0.0
10
199.29233667850494
20
-128.23244281392354
42
-0.41421356237320794
10
200.18188114716853
20
-128.8101197463611
10
202.78077728239052
20
-141.03696475553312
42
-0.41421356237268453
10
202.20310034995396
20
-141.92650922419625
10
189.97625534078088
20
-144.52540535941827
42
-0.41421356237264056
10
189.08671087211803
20
-143.947728426982
10
186.48781473689556
20
-131.72088341780915
42
-0.41421356237311441
10
187.06549166933297
20
-130.83133894914556
0
LWPOLYLINE
5
126
100
AcDbEntity
8
0
100
AcDbPolyline
90
8
70
1
43
0.0
10
283.31397210099101
20
-22.439022466799369
10
295.54081711016408
20
-19.84012633157737
42
0.41421356237321721
10
296.11849404260101
20
-18.950581862913669
10
293.51959790737953
20
-6.7237368537410269
42
0.41421356237341106
10
292.63005343871487
20
-6.1460599213040563
10
280.40320842954304
20
-8.7449560565260569
42
0.41421356237326462
10
279.82553149710577
20
-9.6345005251897895
10
282.42442763232771
20
-21.861345534362336
42
0.41421356237293777
0
LWPOLYLINE
5
127
100
AcDbEntity
8
0
100
AcDbPolyline
90
8
70
1
43
0.0
10
264.68026030701202
20
-26.399740176877661
42
-0.41421356237296708
10
263.79071583834866
20
-25.822063244440621
10
261.19181970312667
20
-13.59521823526817
42
-0.41421356237324092
10
261.769496635564
20
-12.705673766604358
10
273.99634164473605
20
-10.106777631382528
42
-0.41421356237331908
10
274.88588611340037
20
-10.684454563819401
10
277.48478224862242
20
-22.911299572991911
42
-0.41421356237325435
10
276.90710531618498
20
-23.800844041655704
0
LWPOLYLINE
5
128
100
AcDbEntity
8
0
100
AcDbPolyline
90
8
70
1
43
0.0
10
331.1375000000001
20
-50.899999999999963
10
331.13749999999993
20
-63.399999999999963
42
0.41421356237309503
10
331.88749999999999
20
-64.149999999999977
10
344.38749999999999
20
-64.149999999999977
42
0.41421356237309503
10
345.13750000000016
20
-63.399999999999963
10
345.13750000000016
20
-50.899999999999963
42
0.41421356237309503
10
344.38749999999999
20
-50.14999999999997
10
331.88749999999999
20
-50.14999999999997
42
0.41421356237309503
0
LWPOLYLINE
5
129
100
AcDbEntity
8
0
100
AcDbPolyline
90
68
70
1
43
0.0
10
204.86898631009217
20
-140.33751707584042
42
-0.41421356237318757
10
203.97944184142858
20
-139.75984014340287
10
201.11545830042257
20
-126.28585694329448
42
0.41421356237327561
10
199.92939900887086
20
-125.51562103337781
10
185.37847530035421
20
-128.60851534598302
42
0.41421356237294604
10
184.60823939043803
20
-129.79457463753403
10
187.4722229314452
20
-143.26855783764393
42
-0.41421356237272777
10
186.89454599900799
20
-144.158102306308
10
181.51473419497211
20
-145.30161660580521
42
-0.41421356237347728
10
180.6251897263077
20
-144.72393967336808
10
177.76120618529788
20
-131.24995647326003
42
0.41421356237322265
10
176.57514689374625
20
-130.47972056334365
10
160.5073610195584
20
-133.89503388241124
42
-0.10510423526567189
10
148.03265957049237
20
-133.89503388241116
10
134.47049257942174
20
-131.01230629799448
42
0.41421356237280216
10
133.2844332878704
20
-131.78254220790959
10
130.42044974684222
20
-145.25652540801605
42
-0.41421356237301749
10
129.53090527817818
20
-145.83420234045224
10
124.15109347414189
20
-144.69068804095596
42
-0.41421356237302787
10
123.57341654170506
20
-143.80114357229098
10
126.43740008272913
20
-130.32716037218603
42
0.4142135623732971
10
125.66716417281324
20
-129.14110108063377
10
111.11624046428004
20
-126.04820676802511
42
0.41421356237326035
10
109.93018117272834
20
-126.81844267794173
10
107.06619763172144
20
-140.29242587805089
42
-0.41421356237315904
10
106.17665316305792
20
-140.87010281048839
10
100.79684135902193
20
-139.72658851099044
42
-0.41421356237305368
10
100.21916442658465
20
-138.83704404232697
10
103.0831479675944
20
-125.363060842217
42
0.41421356237299911
10
102.31291205767829
20
-124.17700155066581
10
47.164216717611453
20
-112.45478448859356
42
-0.41421356237308121
10
46.393980807695392
20
-111.26872519704204
10
49.938875136137767
20
-94.591308604530838
42
0.41421356237309248
10
49.168639226221693
20
-93.405249312979279
10
38.314257569329129
20
-91.098079268936289
42
-0.41421356237310497
10
37.544021659413069
20
-89.912019977384745
10
41.088915987855607
20
-73.234603384872813
42
0.41421356237308177
10
40.318680077939561
20
-72.048544093321269
10
38.781154318036329
20
-71.72173290431715
42
-0.41421356237309886
10
38.01091840812029
20
-70.535673612765606
10
41.555812736563055
20
-53.858257020254271
42
0.41421356237309503
10
40.785576826647016
20
-52.672197728702706
10
35.754230105372564
20
-51.602751969058858
42
-0.41421356237309126
10
34.983994195456518
20
-50.416692677507299
10
39.023978237658994
20
-31.410062110748548
42
-0.41421356237310453
10
40.210037529210574
20
-30.639826200832498
10
148.03265957048839
20
-53.558232012173676
42
0.10510423526567635
10
160.50736101955414
20
-53.558232012173761
10
275.49402989243453
20
-29.11706103866495
42
-0.41421356237305906
10
276.68008918398613
20
-29.88729694858101
10
280.90123057551102
20
-49.746205835516619
42
0.41421356237308177
10
282.08728986706257
20
-50.516441745432701
10
291.77704160134158
20
-48.456821433358364
42
-0.41421356237310525
10
292.96310089289318
20
-49.227057343274403
10
296.32683230899914
20
-65.052169443686182
42
-0.4142135623730987
10
295.55659639908311
20
-66.238228735237726
10
282.90462398894198
20
-68.927488489081298
42
0.41421356237311086
10
282.13438807902594
20
-70.113547780632842
10
285.67928797048268
20
-86.790990545067046
42
-0.4142135623731012
10
284.90905206056664
20
-87.97704983661859
10
279.3461050537835
20
-89.159490725132969
42
0.41421356237306345
10
278.57586914386741
20
-90.34555001668457
10
282.12076347231039
20
-107.02296660919617
42
-0.41421356237310919
10
281.35052756239429
20
-108.20902590074773
10
208.73272741547191
20
-123.64441581601865
42
0.41421356237297258
10
207.96249150555579
20
-124.83047510756991
10
210.82647504656603
20
-138.30445830767883
42
-0.41421356237317936
10
210.24879811412802
20
-139.19400277634307
0
LWPOLYLINE
5
130
100
AcDbEntity
8
0
100
AcDbPolyline
90
8
70
1
43
0.0
10
350.9375
20
-102.25
42
-0.41421356237309503
10
350.1875
20
-101.49999999999997
10
350.1875
20
-88.999999999999972
42
-0.41421356237309503
10
350.9375
20
-88.249999999999957
10
363.4375
20
-88.249999999999943
42
-0.41421356237309503
10
364.1875
20
-88.999999999999972
10
364.1875
20
-101.49999999999997
42
-0.41421356237309503
10
363.4375
20
-102.24999999999996
0
LWPOLYLINE
5
131
100
AcDbEntity
8
0
100
AcDbPolyline
90
14
70
1
43
0.0
10
309.63792214163686
20
-87.091272281249474
10
312.44472996767763
20
-100.29626489115586
42
0.4142135623731561
10
313.33427443634105
20
-100.87394182359327
10
318.71408624037701
20
-99.730427524095091
42
0.41421356237274137
10
319.29176317281338
20
-98.840883055431732
10
319.03187355929208
20
-97.618198554514279
10
326.34915122348099
20
-96.062863173429378
42
0.41421356237328472
10
326.92682815591803
20
-95.173318704765677
10
324.32793202069632
20
-82.946473695592985
42
0.41421356237328011
10
323.438387552032
20
-82.368796763156226
10
311.21154254286
20
-84.96769289837799
42
0.41421356237320817
10
310.63386561042307
20
-85.857237367041662
10
310.68584353312696
20
-86.101774267225153
10
310.21559907407413
20
-86.201727812586014
42
0.41421356237278112
0
LWPOLYLINE
5
132
100
AcDbEntity
8
0
100
AcDbPolyline
90
8
70
1
43
0.0
10
383.23750000000007
20
-120.55
42
-0.41421356237309503
10
382.48750000000001
20
-121.30000000000001
10
369.98750000000001
20
-121.29999999999995
42
-0.41421356237309503
10
369.23750000000007
20
-120.55
10
369.23749999999995
20
-108.05
42
-0.41421356237309503
10
369.98750000000001
20
-107.29999999999997
10
382.48750000000001
20
-107.29999999999997
42
-0.41421356237309503
10
383.23750000000007
20
-108.05
0
LWPOLYLINE
5
133
100
AcDbEntity
8
0
100
AcDbPolyline
90
8
70
1
43
0.0
10
294.79088418191293
20
-122.24636824022795
10
307.01772919108606
20
-119.64747210500617
42
0.41421356237260953
10
307.59540612352237
20
-118.75792763634308
10
304.99650998830055
20
-106.53108262717011
42
0.41421356237317936
10
304.10696551963701
20
-105.95340569473252
10
291.88012051046394
20
-108.55230182995477
42
0.41421356237301071
10
291.30244357802775
20
-109.4418462986188
10
293.90133971324963
20
-121.66869130779085
42
0.41421356237314999
0
LWPOLYLINE
5
134
100
AcDbEntity
8
0
100
AcDbPolyline
90
8
70
1
43
0.0
10
332.210734604214
20
-82.581882621054206
42
-0.41421356237309503
10
331.21073460421405
20
-81.581882621054262
10
331.210734604214
20
-70.819290790203269
42
-0.41421356237309503
10
332.210734604214
20
-69.819290790203297
10
382.16358495351409
20
-69.819290790203496
42
-0.41421356237309503
10
383.16358495351392
20
-70.819290790203382
10
383.16358495351392
20
-81.581882621054348
42
-0.41421356237309503
10
382.16358495351409
20
-82.581882621054262
0
LWPOLYLINE
5
135
100
AcDbEntity
8
0
100
AcDbPolyline
90
8
70
1
43
0.0
10
204.120696976581
20
-39.272072734632175
10
216.34754198575305
20
-36.673176599410283
42
0.4142135623732332
10
216.92521891819035
20
-35.783632130746497
10
214.32632278296839
20
-23.556787121573901
42
0.41421356237295359
10
213.43677831430497
20
-22.979110189136822
10
201.20993330513201
20
-25.578006324358981
42
0.41421356237323759
10
200.6322563726948
20
-26.467550793022632
10
203.23115250791665
20
-38.69439580219526
42
0.41421356237333457
0
LWPOLYLINE
5
136
100
AcDbEntity
8
0
100
AcDbPolyline
90
8
70
1
43
0.0
10
350.9375
20
-64.149999999999991
42
-0.41421356237309503
10
350.1875
20
-63.399999999999963
10
350.1875
20
-50.899999999999963
42
-0.41421356237309503
10
350.9375
20
-50.14999999999997
10
363.4375
20
-50.149999999999935
42
-0.41421356237309503
10
364.1875
20
-50.899999999999963
10
364.1875
20
-63.399999999999963
42
-0.41421356237309503
10
363.4375
20
-64.149999999999977
0
LWPOLYLINE
5
137
100
AcDbEntity
8
0
100
AcDbPolyline
90
8
70
1
43
0.0
10
110.86375832598068
20
-129.34270548100795
42
-0.41421356237345697
10
111.75330279464509
20
-128.76502854857085
10
123.98014780381712
20
-131.36392468379259
42
-0.41421356237349916
10
124.55782473625425
20
-132.25346915245706
10
121.95892860103201
20
-144.480314161629
42
-0.41421356237310186
10
121.06938413236904
20
-145.05799109406604
10
108.84253912319593
20
-142.45909495884436
42
-0.41421356237306473
10
108.26486219075868
20
-141.56955049018094
0
LWPOLYLINE
5
138
100
AcDbEntity
8
0
100
AcDbPolyline
90
16
70
1
43
0.0
10
137.6632059347389
20
-142.74584731025391
42
-0.26513349033034378
10
138.09356581360106
20
-142.50038684483698
10
149.06359392247003
20
-142.50038684483718
42
-0.33543673964514958
10
150.0256853083113
20
-143.22765957210891
42
0.75592894601858029
10
158.68450778088655
20
-143.22765957210913
42
-0.33543673964522897
10
159.64659916672804
20
-142.50038684483701
10
170.61662727559604
20
-142.5003868448369
42
-0.26513349033036793
10
171.04698715445829
20
-142.74584731025391
42
3.6550702443423639
10
171.04698715445861
20
-141.25492637941935
42
-0.26513349033081507
10
170.61662727559604
20
-141.50038684483701
10
159.64659916672804
20
-141.50038684483684
42
-0.33543673964549847
10
158.68450778088646
20
-140.77311411756392
42
0.75592894601840777
10
150.02568530831172
20
-140.77311411756421
42
-0.33543673964543047
10
149.06359392247003
20
-141.50038684483698
10
138.09356581360106
20
-141.50038684483707
42
-0.26513349033082623
10
137.66320593473841
20
-141.25492637941935
42
3.6550702443424248
0
LWPOLYLINE
5
139
100
AcDbEntity
8
0
100
AcDbPolyline
90
8
70
1
43
0.0
10
75.925548712270739
20
-121.91635977461104
42
-0.41421356237277257
10
76.815093180934085
20
-121.33868284217462
10
93.700366138601566
20
-124.92775840491581
42
-0.41421356237294682
10
94.278043071038525
20
-125.81730287357901
10
91.679146935816647
20
-138.04414788275201
42
-0.41421356237322643
10
90.789602467152847
20
-138.62182481518937
10
73.904329509485777
20
-135.03274925244739
42
-0.4142135623730599
10
73.326652577048506
20
-134.14320478378394
0
LWPOLYLINE
5
140
100
AcDbEntity
8
0
100
AcDbPolyline
90
8
70
1
43
0.0
10
50.612189767012055
20
-130.08185211484937
42
-0.41421356237302431
10
50.034512834574812
20
-129.19230764618601
10
52.633408969796378
20
-116.96546263701293
42
-0.41421356237280121
10
53.522953438460604
20
-116.38778570457605
10
70.408226396127915
20
-119.97686126731766
42
-0.41421356237332907
10
70.985903328564746
20
-120.86640573598197
10
68.387007193342953
20
-133.09325074515402
42
-0.41421356237323798
10
67.497462724679153
20
-133.67092767759135
0
LWPOLYLINE
5
141
100
AcDbEntity
8
0
100
AcDbPolyline
90
8
70
1
43
0.0
10
316.293092618022
20
-65.43430099475566
10
310.913280813987
20
-66.577815294253213
42
0.41421356237323798
10
310.33560388154967
20
-67.467359762917042
10
313.1424117075897
20
-80.672352372823127
42
0.41421356237303786
10
314.03195617625306
20
-81.250029305260313
10
319.41176798028908
20
-80.106515005762716
42
0.41421356237321688
10
319.98944491272641
20
-79.216970537098902
10
317.18263708668604
20
-66.011977927192675
42
0.414213562373348
0
LWPOLYLINE
5
142
100
AcDbEntity
8
0
100
AcDbPolyline
90
8
70
1
43
0.0
10
79.863919274264518
20
-33.285904971725593
10
82.462815409486424
20
-21.059059962553093
42
0.414213562373133
10
81.885138477049395
20
-20.169515493889385
10
69.658293467876916
20
-17.570619358667347
42
0.41421356237310492
10
68.768748999213244
20
-18.148296291104408
10
66.169852863991252
20
-30.375141300276994
42
0.41421356237309037
10
66.747529796428296
20
-31.264685768940652
10
78.974374805600789
20
-33.863581904162643
42
0.41421356237310697
0
LWPOLYLINE
5
143
100
AcDbEntity
8
0
100
AcDbPolyline
90
8
70
1
43
0.0
10
87.40246079319212
20
-22.10901400118269
10
84.803564657970142
20
-34.335859010355279
42
0.41421356237309681
10
85.3812415904072
20
-35.225403479018887
10
97.608086599579707
20
-37.824299614240935
42
0.41421356237310825
10
98.497631068243408
20
-37.246622681803892
10
101.09652720346537
20
-25.019777672631349
42
0.41421356237322915
10
100.518850271028
20
-24.130233203967695
10
88.292005261855806
20
-21.531337068745692
42
0.41421356237305362
0
LWPOLYLINE
5
144
100
AcDbEntity
8
0
100
AcDbPolyline
90
8
70
1
43
0.0
10
382.48750000000001
20
-50.149999999999935
42
-0.41421356237309503
10
383.23750000000007
20
-50.899999999999963
10
383.23750000000007
20
-63.399999999999935
42
-0.41421356237309503
10
382.48750000000001
20
-64.149999999999935
10
369.98750000000001
20
-64.14999999999992
42
-0.41421356237309503
10
369.23750000000007
20
-63.399999999999963
10
369.23749999999995
20
-50.899999999999963
42
-0.41421356237309503
10
369.98750000000001
20
-50.14999999999997
0
LWPOLYLINE
5
145
100
AcDbEntity
8
0
100
AcDbPolyline
90
8
70
1
43
0.0
10
350.18750000000006
20
-31.849999999999969
10
350.18750000000006
20
-44.34999999999998
42
0.41421356237309503
10
350.9375
20
-45.100000000000009
10
363.4375
20
-45.099999999999966
42
0.41421356237309503
10
364.1875
20
-44.349999999999959
10
364.1875
20
-31.849999999999969
42
0.41421356237309503
10
363.4375
20
-31.100000000000012
10
350.9375
20
-31.099999999999966
42
0.41421356237309503
0
LWPOLYLINE
5
146
100
AcDbEntity
8
0
100
AcDbPolyline
90
8
70
1
43
0.0
10
104.014953384386
20
-39.186121189097193
10
116.24179839355898
20
-41.78501732431932
42
0.41421356237294532
10
117.13134286222234
20
-41.207340391882276
10
119.73023899744432
20
-28.980495382709755
42
0.4142135623732936
10
119.15256206500703
20
-28.090950914045894
10
106.92571705583501
20
-25.492054778823988
42
0.41421356237333617
10
106.03617258717058
20
-26.0697317112609
10
103.43727645194868
20
-38.296576720433421
42
0.41421356237326618
0
LWPOLYLINE
5
147
100
AcDbEntity
8
0
100
AcDbPolyline
90
8
70
1
43
0.0
10
369.98750000000001
20
-21.287499999999998
42
-0.41421356237309503
10
369.23749999999995
20
-20.537499999999969
10
369.23749999999995
20
-8.037499999999957
42
-0.41421356237309503
10
369.98750000000001
20
-7.287499999999957
10
382.48750000000001
20
-7.2874999999998558
42
-0.41421356237309465
10
383.23750000000013
20
-8.0374999999999552
10
383.23750000000007
20
-20.537499999999969
42
-0.41421356237309503
10
382.48750000000001
20
-21.287499999999962
0
LWPOLYLINE
5
148
100
AcDbEntity
8
0
100
AcDbPolyline
90
8
70
1
43
0.0
10
129.3283123296448
20
-31.020628848858856
10
126.7294161944227
20
-43.247473858031427
42
0.41421356237325979
10
127.30709312686002
20
-44.137018326695227
10
139.53393813603202
20
-46.735914461916892
42
0.41421356237329976
10
140.42348260469632
20
-46.158237529480161
10
143.02237873991834
20
-33.931392520307561
42
0.4142135623732352
10
142.44470180748101
20
-33.041848051643747
10
130.21785679830799
20
-30.442951916421904
42
0.41421356237294632
0
LWPOLYLINE
5
149
100
AcDbEntity
8
0
100
AcDbPolyline
90
8
70
1
43
0.0
10
286.89156774672188
20
-109.61265145312503
42
-0.41421356237316581
10
287.78111221538597
20
-110.19032838556296
10
290.38000835060745
20
-122.41717339473507
42
-0.41421356237270879
10
289.80233141817087
20
-123.30671786339823
10
289.31325761780397
20
-123.41067370880721
42
-0.41421356237301749
10
288.42371314913981
20
-122.83299677637103
10
285.82481701391873
20
-110.6061517671978
42
-0.41421356237270596
10
286.40249394635526
20
-109.71660729853477
0
LWPOLYLINE
5
150
100
AcDbEntity
8
0
100
AcDbPolyline
90
8
70
1
43
0.0
10
345.13750000000005
20
-44.34999999999998
42
-0.41421356237309503
10
344.38749999999999
20
-45.09999999999998
10
331.88749999999999
20
-45.100000000000009
42
-0.41421356237309503
10
331.13749999999993
20
-44.34999999999998
10
331.13749999999993
20
-31.849999999999969
42
-0.41421356237309503
10
331.88749999999999
20
-31.099999999999966
10
344.38749999999999
20
-31.099999999999941
42
-0.41421356237309503
10
345.13750000000005
20
-31.849999999999969
0
LWPOLYLINE
5
151
100
AcDbEntity
8
0
100
AcDbPolyline
90
8
70
1
43
0.0
10
364.1875
20
-20.537499999999969
10
364.1875
20
-8.037499999999957
42
0.41421356237309503
10
363.4375
20
-7.2874999999999996
10
350.9375
20
-7.2874999999999588
42
0.41421356237309503
10
350.18750000000006
20
-8.0374999999999588
10
350.1875
20
-20.537499999999969
42
0.41421356237309503
10
350.9375
20
-21.287499999999998
10
363.4375
20
-21.287499999999969
42
0.41421356237309503
0
LWPOLYLINE
5
152
100
AcDbEntity
8
0
100
AcDbPolyline
90
8
70
1
43
0.0
10
369.98750000000001
20
-45.099999999999973
10
382.48750000000001
20
-45.099999999999973
42
0.41421356237309503
10
383.23750000000007
20
-44.349999999999959
10
383.23750000000013
20
-31.849999999999969
42
0.41421356237309503
10
382.48750000000001
20
-31.099999999999941
10
369.98750000000001
20
-31.099999999999966
42
0.41421356237309503
10
369.23750000000007
20
-31.849999999999969
10
369.23750000000007
20
-44.349999999999959
42
0.41421356237309503
0
LWPOLYLINE
5
153
100
AcDbEntity
8
0
100
AcDbPolyline
90
8
70
1
43
0.0
10
331.88749999999999
20
-21.287499999999998
42
-0.41421356237309503
10
331.13749999999993
20
-20.537499999999969
10
331.13749999999993
20
-8.0374999999999588
42
-0.41421356237309465
10
331.88749999999999
20
-7.2874999999999623
10
344.38749999999999
20
-7.2874999999997891
42
-0.41421356237309503
10
345.13750000000016
20
-8.0374999999999588
10
345.13750000000005
20
-20.537499999999969
42
-0.41421356237309503
10
344.38749999999999
20
-21.287499999999969
0
LWPOLYLINE
5
154
100
AcDbEntity
8
0
100
AcDbPolyline
90
8
70
1
43
0.0
10
244.71816409308002
20
-119.343640573814
42
-0.41421356237308826
10
245.29584102551698
20
-118.45409610515098
10
262.1811139831841
20
-114.86502054240971
42
-0.414213562373004
10
263.0706584518482
20
-115.44269747484597
10
265.66955458707048
20
-127.6695424840189
42
-0.41421356237311752
10
265.09187765463304
20
-128.55908695268243
10
248.20660469696608
20
-132.14816251542422
42
-0.4142135623734825
10
247.31706022830161
20
-131.57048558298709
0
ENDSEC
0
SECTION
2
OBJECTS
0
DICTIONARY
5
C
100
AcDbDictionary
3
ACAD_GROUP
350
D
3
ACAD_MLINESTYLE
350
17
0
DICTIONARY
5
D
100
AcDbDictionary
0
DICTIONARY
5
1A
330
C
100
AcDbDictionary
0
DICTIONARY
5
17
100
AcDbDictionary
0
ENDSEC
0
EOF
